<?xml version="1.0" encoding="utf-8"?>
<!-- Generator: Adobe Illustrator 16.0.0, SVG Export Plug-In . SVG Version: 6.00 Build 0)  -->
<!DOCTYPE svg PUBLIC "-//W3C//DTD SVG 1.1//EN" "http://www.w3.org/Graphics/SVG/1.1/DTD/svg11.dtd">
<svg version="1.1" id="Layer_1" xmlns="http://www.w3.org/2000/svg" xmlns:xlink="http://www.w3.org/1999/xlink" x="0px" y="0px"
	 width="180px" height="44px" viewBox="0 0 180 44" enable-background="new 0 0 180 44" xml:space="preserve">
<path fill="#58595B" d="M61.478,25.151V22.18h-8.091V19.94h18.742v2.239h-8.114v2.972h6.605v7.107h-2.537v-4.89H54.667v-2.218
	H61.478z M70.575,12.238v6.08h-2.537v-3.84H54.85v-2.24H70.575z"/>
<path fill="#58595B" d="M84.266,29.541h-2.514V15.369h-7.611v-2.286h10.125V29.541z M91.259,19.735h2.927v2.536h-2.927v9.944h-2.513
	V11.826h2.513V19.735z"/>
<path fill="#58595B" d="M99.03,27.187h6.332v2.218h-8.869V13.083h8.616v2.24H99.03V27.187z M107.374,22.134h-4.16v-2.262h4.16
	v-8.023h2.354v20.251h-2.354V22.134z M111.943,11.826h2.424v20.389h-2.424V11.826z"/>
<path fill="#58595B" d="M129.498,20.375c0,0.808-0.167,1.577-0.502,2.309c-0.335,0.732-0.786,1.364-1.35,1.897
	c-0.564,0.548-1.223,0.983-1.978,1.303c-0.752,0.319-1.564,0.481-2.433,0.481c-0.854,0-1.657-0.162-2.412-0.481
	s-1.413-0.755-1.978-1.303c-0.563-0.533-1.013-1.165-1.35-1.897c-0.335-0.731-0.502-1.501-0.502-2.309
	c0-0.823,0.167-1.6,0.502-2.331c0.337-0.732,0.786-1.364,1.35-1.897c0.564-0.533,1.223-0.959,1.978-1.28s1.558-0.48,2.412-0.48
	c0.868,0,1.681,0.16,2.433,0.48c0.755,0.32,1.413,0.747,1.978,1.28c0.563,0.533,1.015,1.166,1.35,1.897
	C129.331,18.774,129.498,19.552,129.498,20.375 M126.984,20.375c0-0.518-0.101-1.002-0.299-1.452
	c-0.198-0.449-0.464-0.849-0.799-1.2c-0.351-0.32-0.751-0.583-1.199-0.789c-0.45-0.206-0.934-0.309-1.451-0.309
	c-0.505,0-0.984,0.103-1.44,0.309c-0.458,0.206-0.853,0.469-1.189,0.789c-0.335,0.351-0.604,0.75-0.811,1.2
	c-0.206,0.45-0.308,0.934-0.308,1.452c0,0.518,0.102,1.002,0.308,1.452s0.476,0.841,0.811,1.177
	c0.337,0.335,0.731,0.604,1.189,0.811c0.456,0.206,0.936,0.31,1.44,0.31c0.518,0,1.001-0.104,1.451-0.31
	c0.448-0.206,0.849-0.476,1.199-0.811c0.335-0.335,0.601-0.727,0.799-1.177S126.984,20.892,126.984,20.375 M132.767,11.826h2.538
	v20.389h-2.538V11.826z"/>
<path fill="#58595B" d="M150.389,29.402h-10.857V13.083h10.629v2.24h-8.114v4.754h8.067v2.217h-8.067v4.892h8.343V29.402z
	 M154.114,11.826h2.537v20.389h-2.537v-9.944h-2.903v-2.262h2.903V11.826z"/>
<path fill="#58595B" d="M164.788,13.975v-2.171h2.721v2.171h4.868v2.171h-5.167l5.577,12.525l-2.103,0.938l-4.525-10.331
	l-4.503,10.49l-2.148-0.958l5.577-12.664h-5.371v-2.171H164.788z M175.463,22.18h-3.931v-2.262h3.931v-8.091H178v20.389h-2.537
	V22.18z"/>
<path fill="#FFFFFF" d="M43.368,22c0-11.976-9.708-21.684-21.684-21.684S0,10.024,0,22s9.708,21.684,21.684,21.684
	S43.368,33.976,43.368,22"/>
<path fill="#003964" d="M31.873,20.462c-3.449-2.341-7.864-1.385-10.182,2.134c-1.934,2.938-4.856,3.305-5.989,3.305
	c-3.688,0-6.215-2.59-6.962-5.272H8.739c-0.007-0.026-0.014-0.048-0.02-0.074c-0.007-0.03-0.016-0.06-0.024-0.091
	C8.4,19.346,8.328,18.81,8.328,17.621c0-6.411,6.588-13.548,16.074-13.548c9.717,0,15.277,7.386,16.707,11.49
	c-0.025-0.072-0.048-0.144-0.074-0.218C38.278,7.316,30.656,1.543,21.68,1.543c-11.296,0-20.457,9.146-20.457,20.428
	c0,10.085,7.286,18.717,17.389,18.717c8.058,0,13.473-4.512,15.957-10.729C35.934,26.559,34.968,22.562,31.873,20.462"/>
<path fill="#ED1A3B" d="M41.235,15.96c-1.194-4.004-6.794-11.888-16.833-11.888c-9.486,0-16.074,7.137-16.074,13.548
	c0,1.189,0.072,1.725,0.366,2.843c-0.124-0.489-0.187-0.98-0.187-1.458c0-6.677,6.693-11.304,13.574-11.304
	c9.317,0,16.87,7.543,16.87,16.843c0,7.292-4.204,13.603-10.309,16.637l0.001,0.006c7.871-2.848,13.492-10.374,13.492-19.216
	C42.136,19.879,41.855,18.035,41.235,15.96"/>
</svg>
