<?xml version="1.0"?>
<svg xmlns="http://www.w3.org/2000/svg" version="1.2" baseProfile="tiny" width="800" height="831" viewBox="0 0 800 831" stroke-linecap="round" stroke-linejoin="round">
<g id="BRA-ADM1">
<path d="M 221.76 69.68 213.29 65.66 206.38 51.84 210.63 35.35 235.21 38.89 235.64 33.31 245.89 32.67 269.48 24.66 280.04 12 288.75 13.93 289.14 22.58 294.77 26.26 298.39 36.38 292.64 45.06 289.37 60.48 294.96 75.36 311.15 90.08 311.16 107.82 310.78 108.4 287.94 108.46 276.41 130.26 267.18 122.42 259.16 127 257.87 141.39 251.04 139.06 244.39 125.34 245.71 116.33 241.31 111.26 240.99 91.71 234.44 82.19 236.48 75.39 221.76 69.68 Z" fill="#18213c" stroke="#52607a" stroke-width="1" id="BR-RR" data-shapename="Roraima"/>
<path d="M 389.41 66.94 402.3 71.78 410 69 422.72 71.27 431.49 68.67 438.75 52.73 446.47 41.16 457.06 30.01 463.24 38.86 463.68 47.84 471.09 70.96 487.66 82.3 486.77 95.47 482.3 101.51 472.7 110.89 460.86 116.79 445.62 137.06 437.84 134.85 432.58 119.87 427.31 116.92 424.09 101.48 414.38 87.26 400.26 79.81 392.65 79.43 389.41 66.94 Z" fill="#18213c" stroke="#52607a" stroke-width="1" id="BR-AP" data-shapename="Amapa"/>
<path d="M 221.76 69.68 236.48 75.39 234.44 82.19 240.99 91.71 241.31 111.26 245.71 116.33 244.39 125.34 251.04 139.06 257.87 141.39 259.16 127 267.18 122.42 276.41 130.26 287.94 108.46 310.78 108.4 311.45 108.6 311.84 120.07 320.8 133.73 333.82 144.02 343.57 146.62 359.39 163.16 346.3 189.86 325.09 238.21 319.16 245.12 325.74 257.55 325.77 258.12 321.67 267.17 322.61 277.4 319.87 287.22 259.25 286.75 258.23 286.63 243.53 283.35 231.83 269.92 218.1 269.63 207.27 286.24 191.58 292.72 175.11 302.46 170.43 298.03 155.5 306.4 154.82 306.93 127.71 295.9 84.79 273.66 36.43 263.07 16.94 254.19 17.4 247.12 28 241.09 26.23 232.61 31.51 226.95 34.24 214.95 53.39 201.67 72.28 198.55 77.22 192.96 92.19 193.36 96.96 174.03 103.11 139.43 98.31 121.94 90.38 117.16 90.93 104.38 108.43 94.23 95 91.82 95.22 78.89 125.31 78.01 142.49 68.77 154.55 88.5 163.72 96.47 177.97 92.46 186.68 93.59 195.83 85.44 206 82.99 211.1 73.12 221.76 69.68 Z" fill="#18213c" stroke="#52607a" stroke-width="1" id="BR-AM" data-shapename="Amazonas"/>
<path d="M 311.15 90.08 321.3 82.01 328.68 82.92 347.26 75.9 360.62 76.06 370.06 64.92 389.41 66.94 392.65 79.43 400.26 79.81 414.38 87.26 424.09 101.48 427.31 116.92 432.58 119.87 437.84 134.85 445.62 137.06 460.86 116.79 472.7 110.89 482.3 101.51 485.72 108.62 505.99 118.83 516.8 119.99 525.04 127.94 551.25 129.98 564.35 138 552.13 173.01 532.16 205.31 515.67 215.47 514.81 215.98 518.46 220.75 519.98 233.64 512.34 244.68 501.85 249.74 498.58 261.76 503.38 267.86 497.45 283.78 483.89 300.21 481.84 308.13 481.25 308.64 423.82 304.39 406.13 302.36 354.11 299.07 336.48 285.68 335.35 275.06 326.57 258.13 325.74 257.55 319.16 245.12 325.09 238.21 346.3 189.86 359.39 163.16 343.57 146.62 333.82 144.02 320.8 133.73 311.84 120.07 311.45 108.6 311.16 107.82 311.15 90.08 Z" fill="#18213c" stroke="#52607a" stroke-width="1" id="BR-PA" data-shapename="Para"/>
<path d="M 515.67 215.47 532.16 205.31 552.13 173.01 564.35 138 572.77 138.1 577.23 144.07 589.61 145.43 597.8 164.16 611.95 159.04 634.77 168.88 647.39 170.19 647.55 174.43 634.16 183.31 623.87 199.7 627.86 215.55 622.23 225.17 626.85 238.51 623.55 247.38 603.93 247.53 592.88 259.07 578.75 263.44 573.8 269.86 565.03 290.5 568.53 303.4 567.03 316.05 566.62 316.28 557.54 315.05 554.11 303.04 543.59 293.81 552.92 270.23 544.69 273.14 531.86 256.78 538.08 237.12 535.11 221.97 515.71 215.89 515.67 215.47 Z" fill="#18213c" stroke="#52607a" stroke-width="1" id="BR-MA" data-shapename="Maranhao"/>
<path d="M 717.62 234.75 716.13 234.73 712.88 239.54 712.39 240.12 709.46 263.96 709.37 265.06 704.27 269.46 691.42 259.45 686.03 259.31 674.03 260.55 673.65 260.06 676.17 249.25 668.64 242.59 664.93 217.18 659.58 212.16 661.37 195.78 656.81 188.07 657.12 173.33 675.95 170.17 685.84 172.18 714.16 188.13 731.51 206.15 738.25 210.14 730.85 212.55 726.19 223.44 717.62 234.75 Z" fill="#18213c" stroke="#52607a" stroke-width="1" id="BR-CE" data-shapename="Ceara"/>
<path d="M 717.62 234.75 726.19 223.44 730.85 212.55 738.25 210.14 748.25 214.34 772.35 215.58 779.78 224.52 784.38 242.83 753.89 240.47 753.45 248.43 734.69 246.29 739.65 233.6 726.19 241.15 713.28 240.12 712.88 239.54 716.13 234.73 717.62 234.75 Z" fill="#18213c" stroke="#52607a" stroke-width="1" id="BR-RN" data-shapename="Rio Granda do Norte"/>
<path d="M 709.46 263.96 712.39 240.12 713.28 240.12 726.19 241.15 739.65 233.6 734.69 246.29 753.45 248.43 753.89 240.47 784.38 242.83 787.64 249.26 787.83 263.22 774.93 261.51 770.09 266.98 758.33 267.92 751.33 275.08 741.41 274.89 741.26 273.37 741.4 266.8 741.44 266.24 738.09 257.76 725.34 267.98 709.93 264.4 709.46 263.96 Z" fill="#18213c" stroke="#52607a" stroke-width="1" id="BR-PB" data-shapename="Paraiba"/>
<path d="M 567.03 316.05 568.53 303.4 565.03 290.5 573.8 269.86 578.75 263.44 592.88 259.07 603.93 247.53 623.55 247.38 626.85 238.51 622.23 225.17 627.86 215.55 623.87 199.7 634.16 183.31 647.55 174.43 647.39 170.19 657.12 173.33 656.81 188.07 661.37 195.78 659.58 212.16 664.93 217.18 668.64 242.59 676.17 249.25 673.65 260.06 673.04 260.61 671.96 274.54 657.43 286.54 656.88 287.19 646.67 297.42 625.83 302.93 615.42 297.58 607.72 303.9 611.09 312.45 601.79 324.92 580.95 328.88 571.69 315.87 571.07 316.4 567.35 316.52 567.03 316.05 Z" fill="#18213c" stroke="#52607a" stroke-width="1" id="BR-PI" data-shapename="Piaui"/>
<path d="M 691.42 259.45 704.27 269.46 709.37 265.06 709.93 264.4 725.34 267.98 738.09 257.76 741.44 266.24 741.4 266.8 741.26 273.37 741.41 274.89 751.33 275.08 758.33 267.92 770.09 266.98 774.93 261.51 787.83 263.22 788 272.37 781.39 289.38 768.46 289.04 751.59 298.38 745.41 299.38 730.27 291.53 720.24 298.5 719.49 298.25 717.79 294.05 696.62 283.12 678.99 293.29 670.69 295.55 665.34 288.4 657.78 287.06 657.43 286.54 671.96 274.54 673.04 260.61 674.03 260.55 686.03 259.31 691.42 259.45 Z" fill="#18213c" stroke="#52607a" stroke-width="1" id="BR-PE" data-shapename="Pernambuco"/>
<path d="M 720.24 298.5 730.27 291.53 745.41 299.38 751.59 298.38 768.46 289.04 781.39 289.38 777.8 298.92 763.99 310.66 756.45 320.42 737.98 307.92 724.91 302.94 724.4 302.36 719.77 299.23 720.24 298.5 Z" fill="#18213c" stroke="#52607a" stroke-width="1" id="BR-AL" data-shapename="Alagoas"/>
<path d="M 16.94 254.19 36.43 263.07 84.79 273.66 127.71 295.9 154.82 306.93 155.47 306.98 158.65 309.29 148.8 317.46 130.79 325.24 119.27 334.56 104.07 329.92 93.45 329.53 85.08 333.25 78.91 330.28 78.4 301.43 64.84 311.39 49.41 311.39 44.18 301.08 29.08 299.71 32.99 291.83 25.56 284.55 12 263.13 16.94 254.19 Z" fill="#18213c" stroke="#52607a" stroke-width="1" id="BR-AC" data-shapename="Acre"/>
<path d="M 155.5 306.4 170.43 298.03 175.11 302.46 191.58 292.72 207.27 286.24 218.1 269.63 231.83 269.92 243.53 283.35 258.23 286.63 258.84 287.26 257.8 316.23 259.38 330.27 278.98 330.24 288.87 334.13 286.92 342.87 293.47 358.33 288.19 363.9 281.09 380.7 275.73 385.55 268.68 382.25 252.36 382.51 245.96 375.04 233.94 371.76 227.37 365.69 215.34 360.73 203.45 360.95 185.68 345.25 185.13 328.54 182.63 320.49 184.34 306.67 169.8 306.02 158.65 309.29 155.47 306.98 155.5 306.4 Z" fill="#18213c" stroke="#52607a" stroke-width="1" id="BR-RO" data-shapename="Rondonia"/>
<path d="M 724.91 302.94 737.98 307.92 756.45 320.42 749 325.29 735.56 342.8 724.5 339.77 719.65 326.39 727.77 324.87 728.99 317.55 723.86 302.98 724.91 302.94 Z" fill="#18213c" stroke="#52607a" stroke-width="1" id="BR-SE" data-shapename="Sergipe"/>
<path d="M 481.84 308.13 483.89 300.21 497.45 283.78 503.38 267.86 498.58 261.76 501.85 249.74 512.34 244.68 519.98 233.64 518.46 220.75 514.81 215.98 515.71 215.89 535.11 221.97 538.08 237.12 531.86 256.78 544.69 273.14 552.92 270.23 543.59 293.81 554.11 303.04 557.54 315.05 566.62 316.28 567.35 316.52 571.07 316.4 571.8 316.56 559.39 328.28 554.95 341.31 561.06 363.49 559.17 371.3 558.73 371.81 558.24 371.64 557.81 369.33 539.37 377.37 522.81 378.41 501.35 370.48 496.96 377.5 480.6 365.27 480.64 364.93 476.37 368.25 475.86 368.78 471.62 338.76 478.64 313.87 481.59 309.07 481.84 308.13 Z" fill="#18213c" stroke="#52607a" stroke-width="1" id="BR-TO" data-shapename="Tocantins"/>
<path d="M 656.88 287.19 657.78 287.06 665.34 288.4 670.69 295.55 678.99 293.29 696.62 283.12 717.79 294.05 719.49 298.25 719.77 299.23 724.4 302.36 723.86 302.98 728.99 317.55 727.77 324.87 719.65 326.39 724.5 339.77 735.56 342.8 732.85 351.32 718.12 371.3 705.52 377.48 704.05 417.75 707.46 429.1 700.62 455.14 701.22 468.73 690.44 481.11 679.23 473.99 678.56 473.38 671.94 460.68 674.61 451.61 686.92 436.91 679.76 429.47 656.78 422.34 649.19 415.85 643.72 416.64 626.2 407.6 607.1 406.05 608.85 399.47 597.26 398.03 587.54 405.22 564.79 415.45 565.2 414.85 564.34 411.37 563.83 410.81 563.98 398.08 560.38 393.85 559.8 371.85 559.17 371.3 561.06 363.49 554.95 341.31 559.39 328.28 571.8 316.56 571.69 315.87 580.95 328.88 601.79 324.92 611.09 312.45 607.72 303.9 615.42 297.58 625.83 302.93 646.67 297.42 656.88 287.19 Z" fill="#18213c" stroke="#52607a" stroke-width="1" id="BR-BA" data-shapename="Bahia"/>
<path d="M 259.25 286.75 319.87 287.22 322.61 277.4 321.67 267.17 325.77 258.12 326.57 258.13 335.35 275.06 336.48 285.68 354.11 299.07 406.13 302.36 423.82 304.39 481.25 308.64 481.59 309.07 478.64 313.87 471.62 338.76 475.86 368.78 476.37 369.24 469.53 387.21 463.62 412.97 457.23 413.86 446.85 430.67 433.7 439.08 435.09 444.41 426.5 452.05 422.36 463.26 423.84 470.22 424.37 470.82 425.88 475.59 425.41 476.17 411.42 475.53 405.79 466.57 397.59 463.63 383.68 466.86 364.78 457.71 353.8 460.95 346.45 470.12 339.63 472.71 332.69 465.65 327.42 464.46 319.23 454 321.52 440.33 286.49 438.49 284.84 424.09 279.29 416.41 284.09 409.87 275.73 385.55 281.09 380.7 288.19 363.9 293.47 358.33 286.92 342.87 288.87 334.13 278.98 330.24 259.38 330.27 257.8 316.23 258.84 287.26 259.25 286.75 Z" fill="#18213c" stroke="#52607a" stroke-width="1" id="BR-MT" data-shapename="Mato Grosso"/>
<path d="M 558.73 371.81 559.8 371.85 560.38 393.85 563.98 398.08 563.83 410.81 563.71 411.69 546.82 414.65 548.87 430.83 538.75 435.08 536.84 444.51 541.31 455.35 539.4 475.9 526.81 485.07 509.02 482.33 479.38 489.88 467.92 506.29 467.21 506.06 436.2 488.6 428.14 487.21 424.79 477.33 425.59 476.8 425.72 476.65 425.88 475.59 424.37 470.82 423.84 470.22 422.36 463.26 426.5 452.05 435.09 444.41 433.7 439.08 446.85 430.67 457.23 413.86 463.62 412.97 469.53 387.21 476.37 369.24 476.37 368.25 480.64 364.93 480.6 365.27 496.96 377.5 501.35 370.48 522.81 378.41 539.37 377.37 557.81 369.33 558.24 371.64 558.73 371.81 Z M 533.92 423.9 522.08 423.82 521.15 434.24 537.04 434.17 533.92 423.9 Z" fill-rule="evenodd" fill="#18213c" stroke="#52607a" stroke-width="1" id="BR-GO" data-shapename="Goias"/>
<path d="M 533.92 423.9 537.04 434.17 521.15 434.24 522.08 423.82 533.92 423.9 Z" fill="#18213c" stroke="#52607a" stroke-width="1" id="BR-DF" data-shapename="Distrito Federal"/>
<path d="M 678.56 473.38 678.01 473.91 677.56 473.77 677.27 472.9 661.65 479.31 665.13 489.86 662.18 494.65 664.71 505.27 655.9 520.53 649.88 520.5 646.21 533.45 645.74 533.98 638.51 544.36 638.39 553.19 625.34 559.37 608.78 560.63 589.25 567.59 588.32 567.91 567.08 577.83 557.39 578.64 550.73 567.18 550.82 555.69 540.22 535.75 542.88 530.15 539.93 520.34 534.56 516.28 527 519.68 508.12 521.22 498.78 517.36 475.03 512.35 466.03 516.86 465.6 516.21 467.61 506.92 467.92 506.29 479.38 489.88 509.02 482.33 526.81 485.07 539.4 475.9 541.31 455.35 536.84 444.51 538.75 435.08 548.87 430.83 546.82 414.65 563.71 411.69 564.34 411.37 565.2 414.85 564.79 415.45 587.54 405.22 597.26 398.03 608.85 399.47 607.1 406.05 626.2 407.6 643.72 416.64 649.19 415.85 656.78 422.34 679.76 429.47 686.92 436.91 674.61 451.61 671.94 460.68 678.56 473.38 Z" fill="#18213c" stroke="#52607a" stroke-width="1" id="BR-MG" data-shapename="Minas Gerais"/>
<path d="M 679.23 473.99 690.44 481.11 689.29 504.46 672.48 534.3 663.76 543.63 648.51 540.46 646.63 533.97 646.21 533.45 649.88 520.5 655.9 520.53 664.71 505.27 662.18 494.65 665.13 489.86 661.65 479.31 677.27 472.9 677.56 473.77 678.01 473.91 679.23 473.99 Z" fill="#18213c" stroke="#52607a" stroke-width="1" id="BR-ES" data-shapename="Espirito Santo"/>
<path d="M 332.69 465.65 339.63 472.71 346.45 470.12 353.8 460.95 364.78 457.71 383.68 466.86 397.59 463.63 405.79 466.57 411.42 475.53 425.41 476.17 425.72 476.65 425.59 476.8 424.79 477.33 428.14 487.21 436.2 488.6 467.21 506.06 467.61 506.92 465.6 516.21 465.59 517.13 464.43 522.82 453.64 530.98 447.65 548.65 436.15 564.33 424.61 572.04 424.02 573.04 414.87 579.13 412.94 587.47 406.8 591.65 401.31 603.16 395.38 598.79 380.34 602.11 370.72 566.09 359.88 561.45 351.78 565.51 330.05 561.31 329.24 548.06 331.29 535.92 325.9 519.99 326.66 510.22 332.76 496.23 337.59 478.44 332.69 465.65 Z" fill="#18213c" stroke="#52607a" stroke-width="1" id="BR-MS" data-shapename="Mato Grosso do Sul"/>
<path d="M 589.25 567.59 608.78 560.63 625.34 559.37 638.39 553.19 638.51 544.36 645.74 533.98 646.63 533.97 648.51 540.46 663.76 543.63 661.9 561.22 647.9 566.86 642.51 580.56 631.43 579.44 600.22 584.06 591.15 581.77 588.46 588.9 589.77 579.2 597.2 571.85 589.13 568.27 589.25 567.59 Z" fill="#18213c" stroke="#52607a" stroke-width="1" id="BR-RJ" data-shapename="Rio de Jeneiro"/>
<path d="M 466.03 516.86 475.03 512.35 498.78 517.36 508.12 521.22 527 519.68 534.56 516.28 539.93 520.34 542.88 530.15 540.22 535.75 550.82 555.69 550.73 567.18 557.39 578.64 567.08 577.83 588.32 567.91 589.13 568.27 597.2 571.85 589.77 579.2 588.46 588.9 571.78 598.42 546.34 607.65 531.94 619.72 523.31 630.17 513.47 625.92 512.22 617.29 499.41 617.06 500.35 610.07 493.33 599.72 491.95 585.06 485.57 579.22 470.32 580.24 467.29 576.36 445.86 570.84 424.72 572.66 424.61 572.04 436.15 564.33 447.65 548.65 453.64 530.98 464.43 522.82 465.59 517.13 466.03 516.86 Z" fill="#18213c" stroke="#52607a" stroke-width="1" id="BR-SP" data-shapename="Sao Paulo"/>
<path d="M 401.31 603.16 406.8 591.65 412.94 587.47 414.87 579.13 424.02 573.04 424.72 572.66 445.86 570.84 467.29 576.36 470.32 580.24 485.57 579.22 491.95 585.06 493.33 599.72 500.35 610.07 499.41 617.06 512.22 617.29 513.47 625.92 523.31 630.17 511.7 646.57 501.2 646.21 492.02 650.65 487.97 647.45 473.75 647.33 460.5 654.47 460 661.01 447.47 659.13 431.21 653.34 414.17 651.54 406.69 637.63 395.19 636.62 400.83 616.55 401.31 603.16 Z" fill="#18213c" stroke="#52607a" stroke-width="1" id="BR-PR" data-shapename="Parana"/>
<path d="M 414.17 651.54 431.21 653.34 447.47 659.13 460 661.01 460.5 654.47 473.75 647.33 487.97 647.45 492.02 650.65 501.2 646.21 511.7 646.57 514.36 649.97 510.76 662.91 517.49 677.7 512.39 689.17 509.5 702.9 501.08 707.55 490.55 720.37 484.95 717.28 490.49 701.65 475.29 700.38 464.04 686.62 442.09 673.43 411.98 670.95 414.17 651.54 Z" fill="#18213c" stroke="#52607a" stroke-width="1" id="BR-SC" data-shapename="Santa Catarina"/>
<path d="M 490.55 720.37 481.25 738.51 480.04 745.33 470.15 761.98 457.39 774.97 441.13 787.78 432.74 810.79 423.11 819.25 417.45 818.88 417.09 807.03 424.62 799.21 416.05 792.28 413.16 783.85 399.5 773.88 398.06 769.82 384.41 764.29 379.12 756.68 368.54 752.98 354.86 738.21 338.62 739.51 362.77 710.16 375.88 691.49 386.89 685.6 391 678.93 411.98 670.95 442.09 673.43 464.04 686.62 475.29 700.38 490.49 701.65 484.95 717.28 490.55 720.37 Z" fill="#18213c" stroke="#52607a" stroke-width="1" id="BR-RS" data-shapename="Rio Grande do Sul"/>
</g>
</svg>