<?xml version="1.0"?>
<svg xmlns="http://www.w3.org/2000/svg" version="1.2" baseProfile="tiny" width="800" height="771" viewBox="0 0 800 771" stroke-linecap="round" stroke-linejoin="round">
<g id="FRA-ADM2">
<path d="M 563.7 384.12 567.36 391.86 575.89 397.67 581.6 392.27 585.58 398.37 592.32 398.31 603.45 386.46 609.05 390.31 597.76 408.15 589.95 413.28 591.07 422.91 588.5 437.73 580.22 447.51 576.16 439.96 565.97 427.11 559.24 435.69 552.66 432.36 543.28 433.08 542.5 427.76 534.02 421.08 535.71 404.76 543.76 379.14 555.04 379.52 563.7 384.12 Z" fill="#18213c" stroke="#52607a" stroke-width="1" id="Ain" data-shapename="Ain"/>
<path d="M 450.84 101.48 460.23 99.62 474.15 100.4 479.48 96.75 499.02 105 502.01 104.18 506.82 105.93 508.02 110.34 505.47 120.39 497.8 136.31 497.06 150.97 487.66 150.87 475.72 158.5 478.88 169.11 474.54 171.62 476.79 180.72 467.33 195.64 461.86 194.06 450.63 182.37 450.45 175.7 445.53 174.25 447.07 167.78 441.85 166.45 449.03 137.12 447.98 126.53 445.97 113.52 450.84 101.48 Z" fill="#18213c" stroke="#52607a" stroke-width="1" id="Aisne" data-shapename="Aisne"/>
<path d="M 735.91 684.73 751 690.54 759.59 697.46 766.96 710.14 770.11 709.96 770.44 722.16 779.63 721.87 779.6 733.64 773.59 745.2 770.03 756.59 763.24 754.2 760.48 749.42 747.22 742.84 751.56 733.42 742.98 731.63 747.99 719.72 737.84 718.49 743.15 705.09 737.08 702.71 736.09 694.59 741.94 693.22 735.91 684.73 Z" fill="#18213c" stroke="#52607a" stroke-width="1" id="Corse-du-Sud" data-shapename="Corse-du-Sud"/>
<path d="M 779.63 721.87 770.44 722.16 770.11 709.96 766.96 710.14 759.59 697.46 751 690.54 735.91 684.73 740.21 682.32 741.26 674.91 752.1 667 758.87 666.21 764.96 659.64 776.69 658.81 775.15 651.54 777.29 639.79 782.79 641.18 784.3 655.04 782 662.88 786.33 671.76 788 691.79 787.45 704.45 780.18 715.73 779.63 721.87 Z" fill="#18213c" stroke="#52607a" stroke-width="1" id="Haute-Corse" data-shapename="Haute-Corse"/>
<path d="M 443.42 357.38 452.52 366.32 463.75 363.89 467.39 368.34 474.95 360.87 480.42 372.02 480.89 377.05 494.26 382.56 493.67 393.93 489.21 397.2 484.35 398.66 483.42 406.42 485.2 419.2 478.36 423.48 473 416.38 468.16 417.21 463.88 412.56 448.66 412.95 432.11 402.74 418.84 407.33 414.32 396.81 405.92 393.13 403.78 386.15 408.39 378.64 421.4 375.97 420.25 368.8 425.95 363.07 432.63 361.97 439.6 356.66 443.42 357.38 Z" fill="#18213c" stroke="#52607a" stroke-width="1" id="Allier" data-shapename="Allier"/>
<path d="M 582.97 553.47 589.26 551.83 597.72 538.34 604.46 533.4 615.57 532.1 633.46 534.62 636.16 528.37 650.15 519.22 645.41 528.13 646.93 540.95 638.3 549.16 636.31 555.13 639.49 564.49 644.84 570.9 633.67 583 621.95 582.79 620.32 586.98 611.39 582.25 601.92 589.92 594.87 587.12 587.28 587.35 579.38 573.75 574.09 570.66 575.99 565.64 573.63 559.02 577.72 553.72 582.97 553.47 Z" fill="#18213c" stroke="#52607a" stroke-width="1" id="Alpes-de-Haute-Provence" data-shapename="Alpes-de-Haute-Provence"/>
<path d="M 650.15 519.22 636.16 528.37 633.46 534.62 615.57 532.1 604.46 533.4 597.72 538.34 589.26 551.83 582.97 553.47 580.57 542.98 573.31 542.73 569.38 536.25 572.63 531.34 579.16 533.25 581.17 519.47 589.6 515.36 597.5 511.44 607.1 503.63 618.8 504.42 616.26 493.18 610.85 492.6 613.84 484.05 620.99 488.97 633.33 485.36 639.29 492.29 639.71 500.55 645.66 504.67 653.22 505.47 654.42 513.64 650.15 519.22 Z" fill="#18213c" stroke="#52607a" stroke-width="1" id="Hautes-Alpes" data-shapename="Hautes-Alpes"/>
<path d="M 633.67 583 644.84 570.9 639.49 564.49 636.31 555.13 638.3 549.16 646.93 540.95 653.31 550.25 662.24 553.05 667.67 557.19 675.46 559.02 685.59 556.56 690.64 561.41 686.24 570.12 678.99 578.11 680.81 582.93 674.53 587.91 661.73 592.61 659.44 598.59 651.3 600.79 649.36 605.51 648.22 596.91 642.49 594.84 640.07 587.08 633.67 583 Z" fill="#18213c" stroke="#52607a" stroke-width="1" id="Alpes-Maritimes" data-shapename="Alpes-Maritimes"/>
<path d="M 520.02 475.84 526.51 473.87 528.22 469.1 534.39 466.12 536.76 471.2 536.92 484.22 541.3 498.35 534.67 510.55 535.65 519.25 531.05 527.04 528.86 543.27 528.8 547.66 518.67 542.4 511.71 542.64 507.67 547.99 501.17 542.7 494.43 533.68 488.9 522.29 487.26 512.6 495.76 504.06 507.84 496.61 514.02 483.93 520.02 475.84 Z" fill="#18213c" stroke="#52607a" stroke-width="1" id="Ardèche" data-shapename="Ardèche"/>
<path d="M 497.06 150.97 497.8 136.31 505.47 120.39 508.02 110.34 506.82 105.93 518.04 107.62 530.67 101.9 531.58 94.6 538.02 89.19 540.28 94.47 536.27 105.9 541.5 109.93 540.08 118.7 545.02 118.7 555.4 125.48 561.47 127.3 568.11 133.8 563.79 138.48 551.96 139.66 552.99 150.18 544.7 164.63 540.04 165.22 525.63 160.33 518.12 161.75 503.75 151.22 497.06 150.97 Z" fill="#18213c" stroke="#52607a" stroke-width="1" id="Ardennes" data-shapename="Ardennes"/>
<path d="M 372.5 620.52 373.54 625.98 386.27 631.56 388.16 637.98 388.25 649.62 382.4 650.94 384.37 657.71 391.95 657.87 397.71 664.5 377.66 670.97 372.24 667.29 361.44 665.38 355.03 660.5 344.93 661.27 341.88 656.74 328.67 652.87 326.98 646.49 335.06 642.16 335.41 635.52 343.17 629.33 349.98 633.69 354.62 617.46 360.85 625.21 363.54 620.83 372.5 620.52 Z" fill="#18213c" stroke="#52607a" stroke-width="1" id="Ariège" data-shapename="Ariège"/>
<path d="M 463.62 232.51 462.24 225.58 471.05 214.18 475.18 220.42 485.3 222.55 498.66 207.68 510.32 206.62 511.14 214.48 522.25 221.52 529.88 221.22 528.08 227.24 538.88 236.6 540.15 247.64 537.76 255.25 531.09 256.5 531.69 261.8 525.12 261.09 523.77 265.95 512.63 266.88 509.97 269.24 490.62 268.54 486.44 263.82 480.81 249.99 468 234.14 463.62 232.51 Z" fill="#18213c" stroke="#52607a" stroke-width="1" id="Aube" data-shapename="Aube"/>
<path d="M 397.71 664.5 391.95 657.87 384.37 657.71 382.4 650.94 388.25 649.62 388.16 637.98 386.27 631.56 373.54 625.98 372.5 620.52 378.22 615.68 379.59 610.13 390.48 608.68 392.82 611.71 401.91 607.83 409.89 610.14 418.81 609.7 417.61 615.17 421.58 619.53 429.71 621.67 435.7 616.38 454.4 624.93 447.51 633.66 443.85 645.36 444.04 651.98 434.62 646.19 427.84 652.16 415.44 651.01 406.22 652.03 407.71 659.96 397.71 664.5 Z" fill="#18213c" stroke="#52607a" stroke-width="1" id="Aude" data-shapename="Aude"/>
<path d="M 399.92 522.12 406.2 518.1 411.87 520.41 417.91 514.66 422.15 503.04 427.39 498.28 433.76 503.11 440.76 519.97 446.17 526.29 448.77 533.71 449.9 547.48 461.47 554.98 459.56 563.26 465.4 566.1 460.64 573.87 455.72 575.22 452.67 581.29 445.15 579.59 444.92 590.01 438.32 589.9 432.41 584.96 427.85 587.34 418.72 579.15 418.33 573.53 413.23 563.77 396.82 552.79 388.43 556.56 383.82 553.36 382.72 542.51 380.49 532.5 393.3 524.23 399.92 522.12 Z" fill="#18213c" stroke="#52607a" stroke-width="1" id="Aveyron" data-shapename="Aveyron"/>
<path d="M 533.54 573.1 546 577.3 549.74 582.85 557.21 586.94 564.01 586.86 570.48 590.88 579.35 592.51 587.07 587.7 583.88 594.62 584.2 605.13 582.77 627.34 575.65 624.78 565.4 624.78 566.55 617.73 549.49 616.62 543.68 608.94 540.03 616.18 525.32 614.08 523.67 607.93 506.67 606.95 515.8 599.76 520.15 589.6 526.32 590.53 528.41 577.25 533.54 573.1 Z" fill="#18213c" stroke="#52607a" stroke-width="1" id="Bouches-du-Rhône" data-shapename="Bouches-du-Rhône"/>
<path d="M 299.05 149 299.9 157.7 303.58 162.44 305.96 181.14 305.16 187.73 298.02 186.5 275.59 197.96 260.55 193.78 242.17 200.87 238.98 203.61 226.3 201.61 224.54 194.82 229.38 191.5 236.56 181.94 236.58 173.32 226.44 164.83 223.19 158.82 226.89 152.19 238.95 154.64 262.46 156.84 271.28 160.65 283.17 157.54 289.29 151.83 299.05 149 Z" fill="#18213c" stroke="#52607a" stroke-width="1" id="Calvados" data-shapename="Calvados"/>
<path d="M 440.76 519.97 433.76 503.11 427.39 498.28 422.15 503.04 417.91 514.66 411.87 520.41 406.2 518.1 399.92 522.12 397.1 515.85 397.69 507.79 393.37 502.03 392.27 495.28 398.47 486.42 399.23 477.02 412.29 464.76 415.78 457.67 435.56 464.76 442.7 472.05 447.21 467.01 447.61 472.27 453.4 475.27 460.8 495.67 447.16 502 440.76 519.97 Z" fill="#18213c" stroke="#52607a" stroke-width="1" id="Cantal" data-shapename="Cantal"/>
<path d="M 277.94 420.53 281.69 413.97 293.8 410.97 303.93 413.08 326.83 408.44 326.35 414.27 332.28 417.53 327.48 424.09 323.6 433.87 316.59 439.84 309.75 447.23 310.24 451.53 296.46 465.86 297.63 470.7 290.25 477.97 283.6 479.2 277.29 474.98 270.14 466.77 270.03 454.47 262.59 446.82 262.17 434.41 271.78 435.12 276.26 431.96 277.94 420.53 Z" fill="#18213c" stroke="#52607a" stroke-width="1" id="Charente" data-shapename="Charente"/>
<path d="M 277.94 420.53 276.26 431.96 271.78 435.12 262.17 434.41 262.59 446.82 270.03 454.47 270.14 466.77 277.29 474.98 283.6 479.2 281.24 485.87 275.34 486.9 262.41 480.83 260.9 472.68 243.65 469.45 238.74 460.57 229.24 450.42 229.49 446.87 218.05 440.27 226.33 425.92 227.25 414.52 221.95 407.43 225.08 394.22 229.89 391.11 235.26 394.38 243.77 395.03 246.99 404.37 256.67 410.11 268.62 412.23 277.94 420.53 Z M 217.4 429.91 210.18 421.73 215.4 419.16 218.74 424.76 217.4 429.91 Z" fill-rule="evenodd" fill="#18213c" stroke="#52607a" stroke-width="1" id="Charente-Maritime" data-shapename="Charente-Maritime"/>
<path d="M 443.42 357.38 439.6 356.66 432.63 361.97 425.95 363.07 420.25 368.8 421.4 375.97 408.39 378.64 403.78 386.15 397.82 385.88 398.94 369.14 392.75 361.99 393.88 340.32 391.52 333.26 382.77 333.75 377 331.39 380.45 324.5 395.8 316.39 394.38 311.04 402.02 303.3 397 294.75 401.54 293.22 420.38 298.14 423.65 303.66 435.11 301.07 438.13 307.51 434.95 314.69 440.84 321.3 442.75 336.26 445.7 339.27 443.42 357.38 Z" fill="#18213c" stroke="#52607a" stroke-width="1" id="Cher" data-shapename="Cher"/>
<path d="M 415.78 457.67 412.29 464.76 399.23 477.02 398.47 486.42 392.27 495.28 384.1 495.16 379.49 498.96 369.42 491.03 359.82 492.08 348.25 473.01 353.24 464.83 349.53 460.24 357.66 454.01 365.46 452.32 372.5 446.27 383.61 441.07 391.41 436.12 403.35 441.91 414.93 438.09 413.4 448.54 415.78 457.67 Z" fill="#18213c" stroke="#52607a" stroke-width="1" id="Corrèze" data-shapename="Corrèze"/>
<path d="M 509.97 269.24 512.63 266.88 523.77 265.95 525.12 261.09 531.69 261.8 536.38 262.92 544.88 273.9 546.69 278.85 545.17 287.23 558.51 291.59 560.66 296.65 567.03 294.48 573.53 298.38 570.26 307.17 574.66 317.93 567.66 335.19 562.29 337.81 560.78 343.1 549.9 342.96 532.95 347.77 525.63 344.96 515.6 335.09 505.58 329.49 501.14 322.34 500.11 315.2 498.4 309.28 500.45 302.38 512.07 282.55 508.26 273.2 509.97 269.24 Z" fill="#18213c" stroke="#52607a" stroke-width="1" id="Côte-d&apos;Or" data-shapename="Côte-d&apos;Or"/>
<path d="M 90.21 211.31 96 203.97 112.88 194.31 127.57 202.61 134.16 211.3 134.46 216.25 144.02 221.9 148.73 216.16 161.28 209.35 167.2 217.28 171.27 215.43 177.44 218.53 180.65 220.56 181.62 227.5 180.03 239.8 172.34 242.98 162.63 252.83 155.31 249.64 148.01 258.09 142.66 259.89 138 254.25 123.13 247.3 110.1 252.23 95.21 248.72 97.34 243.1 93.34 229.98 96.29 220.85 90.21 211.31 Z" fill="#18213c" stroke="#52607a" stroke-width="1" id="Côtes d&apos;Armor" data-shapename="Côtes d&apos;Armor"/>
<path d="M 403.78 386.15 405.92 393.13 414.32 396.81 418.84 407.33 420.75 416.77 414.9 428.3 409.51 431.59 414.93 438.09 403.35 441.91 391.41 436.12 383.61 441.07 382.65 433.56 367.96 429.04 369.39 423.41 364.34 417.96 362.81 408.28 355.98 401.66 358.1 391.78 363.75 385.67 369.97 388.89 375.63 383.9 397.82 385.88 403.78 386.15 Z" fill="#18213c" stroke="#52607a" stroke-width="1" id="Creuse" data-shapename="Creuse"/>
<path d="M 283.6 479.2 290.25 477.97 297.63 470.7 296.46 465.86 310.24 451.53 309.75 447.23 316.59 439.84 324.35 443.38 326.19 450.32 337.39 447.75 342.36 457.45 349.53 460.24 353.24 464.83 348.25 473.01 359.82 492.08 359.52 502.39 352.83 512.86 340.13 524.97 335.29 520.27 329.18 523.39 325.47 515.74 314.26 515.94 305.2 519.75 299.06 511.23 300.01 505.06 285.9 506.61 282.84 504.1 287.25 488.29 281.24 485.87 283.6 479.2 Z" fill="#18213c" stroke="#52607a" stroke-width="1" id="Dordogne" data-shapename="Dordogne"/>
<path d="M 642.69 297.72 647.69 298.75 649.72 307.86 655.87 315.57 649.75 319.29 649.75 323.58 640.45 332.21 632.7 342.18 622.92 347.05 624.61 350.01 622.8 360.32 614.97 365.41 607.37 375.62 602.64 371.78 603.77 365.49 611.02 359.67 601.62 351.32 597.42 342.3 589.07 339.81 590.76 330.54 584.18 320.98 604.34 313.99 613.59 308.55 617.78 302.16 642.69 297.72 Z" fill="#18213c" stroke="#52607a" stroke-width="1" id="Doubs" data-shapename="Doubs"/>
<path d="M 582.97 553.47 577.72 553.72 573.63 559.02 567.6 552.76 556.54 551.31 550.5 544.87 538.16 550.74 536.98 545.19 528.86 543.27 531.05 527.04 535.65 519.25 534.67 510.55 541.3 498.35 536.92 484.22 536.76 471.2 546.62 467.81 556.63 474.93 556.87 487.24 571.84 490.19 573.35 493.82 572.72 509.48 581.44 514.06 589.6 515.36 581.17 519.47 579.16 533.25 572.63 531.34 569.38 536.25 573.31 542.73 580.57 542.98 582.97 553.47 Z" fill="#18213c" stroke="#52607a" stroke-width="1" id="Drôme" data-shapename="Drôme"/>
<path d="M 305.16 187.73 305.96 181.14 303.58 162.44 299.9 157.7 299.05 149 301.24 147.74 310.98 144.99 318.46 151.29 323.87 149.8 331.83 152.61 336.43 163.52 344.78 156.07 350.53 155.78 352.49 149.11 357.32 146.81 373.85 150.67 376.65 158.12 373.34 164.99 368.29 177.48 359.72 180.01 362.63 188.48 355.9 201.09 344.74 202.28 330.37 206.17 326.39 210.19 324.29 204.81 312.48 193.83 307.28 193.45 305.16 187.73 Z" fill="#18213c" stroke="#52607a" stroke-width="1" id="Eure" data-shapename="Eure"/>
<path d="M 326.39 210.19 330.37 206.17 344.74 202.28 355.9 201.09 362.63 188.48 367.73 196.68 366.59 207.6 370.74 213.99 377.73 219.48 377.62 224.55 384.83 227.13 388.62 240.72 382.84 255.69 369.63 258.05 363.62 264.8 355.68 267.04 347.3 265.87 341.76 256.93 336.35 253.09 327.77 255.27 325.49 248.01 323.98 237.89 333.55 231.77 334.44 221.87 326.64 215.01 326.39 210.19 Z" fill="#18213c" stroke="#52607a" stroke-width="1" id="Eure-et-Loir" data-shapename="Eure-et-Loir"/>
<path d="M 90.21 211.31 96.29 220.85 93.34 229.98 97.34 243.1 95.21 248.72 87.32 252.09 91.17 264.53 102.79 265.97 103.84 273.36 97.4 279.37 96.55 282.08 80.7 279.45 77.16 274.08 66.36 273.52 62.08 279.48 52.46 279.35 53.11 272.11 47.82 264.51 37.27 257.97 52.51 254.69 55.54 247.29 41.44 243.42 50.17 237.73 49.89 231.94 39.09 236.68 31.49 237.34 31.13 223.46 35.32 218.17 47.7 213.68 53.94 209.65 74.06 206.39 74.84 211.55 86.15 207.08 90.21 211.31 Z" fill="#18213c" stroke="#52607a" stroke-width="1" id="Finistère" data-shapename="Finistère"/>
<path d="M 494.43 533.68 501.17 542.7 507.67 547.99 511.71 542.64 518.67 542.4 528.8 547.66 532.65 553.77 531.79 559.62 536.07 562.7 537.37 570.32 533.54 573.1 528.41 577.25 526.32 590.53 520.15 589.6 515.8 599.76 506.67 606.95 499.86 600.09 504.78 592.84 502.09 586.86 494.57 581.25 483.31 569.98 478.93 570.32 471.26 578.07 460.64 573.87 465.4 566.1 459.56 563.26 461.47 554.98 465.51 558.24 475.13 558.64 477.81 554.28 483.8 558.18 492.51 554.7 489.65 539.92 494.43 533.68 Z" fill="#18213c" stroke="#52607a" stroke-width="1" id="Gard" data-shapename="Gard"/>
<path d="M 372.5 620.52 363.54 620.83 360.85 625.21 354.62 617.46 349.98 633.69 343.17 629.33 335.41 635.52 335.06 642.16 326.98 646.49 328.67 652.87 320.81 650.3 317.72 655.8 319.41 661.27 308.6 661.91 308.57 649.09 313.78 649.62 316.51 640.44 306.69 630.85 313.66 624.4 315.43 617.82 324.05 610.12 336.12 610.4 339.89 602.25 346.81 597.05 338.73 591.29 333.72 583.11 344.49 580.85 348.12 584.11 365.5 573.53 367.32 581.13 373.05 587.56 374.58 596.12 380.51 598.42 390.48 608.68 379.59 610.13 378.22 615.68 372.5 620.52 Z" fill="#18213c" stroke="#52607a" stroke-width="1" id="Haute-Garonne" data-shapename="Haute-Garonne"/>
<path d="M 333.72 583.11 338.73 591.29 346.81 597.05 339.89 602.25 336.12 610.4 324.05 610.12 315.43 617.82 304.3 616.18 299.11 612.18 291.46 611.39 289.3 602.8 282.59 596.39 278.26 598.09 270.58 597.9 270.42 589.14 273.05 576.13 281.05 570.27 287.39 568.79 294.68 565.85 299.36 568.2 307.64 563.46 322.54 562.75 327.06 567.79 333.72 583.11 Z" fill="#18213c" stroke="#52607a" stroke-width="1" id="Gers" data-shapename="Gers"/>
<path d="M 229.24 450.42 238.74 460.57 243.65 469.45 260.9 472.68 262.41 480.83 275.34 486.9 281.24 485.87 287.25 488.29 282.84 504.1 285.9 506.61 300.01 505.06 299.06 511.23 293.12 512.22 288.81 516.91 291.57 522.16 283.06 529.4 283.06 537.23 279.22 541.51 281.64 547.56 275.95 550.89 269.03 553.29 262.81 552.14 263.15 546.47 250.03 538.11 247.69 533.85 238.88 536.73 230.21 535.38 224.92 530.51 217.21 533.1 220.38 518.84 227.63 515.22 218.71 505.01 222.07 471.36 222.55 457.25 229.24 450.42 Z" fill="#18213c" stroke="#52607a" stroke-width="1" id="Gironde" data-shapename="Gironde"/>
<path d="M 454.4 624.93 435.7 616.38 429.71 621.67 421.58 619.53 417.61 615.17 418.81 609.7 424.21 606.26 421.45 599.22 438.32 589.9 444.92 590.01 445.15 579.59 452.67 581.29 455.72 575.22 460.64 573.87 471.26 578.07 478.93 570.32 483.31 569.98 494.57 581.25 502.09 586.86 504.78 592.84 499.86 600.09 488.82 603.36 476.65 611.89 468.93 620.28 463.18 619.43 454.4 624.93 Z" fill="#18213c" stroke="#52607a" stroke-width="1" id="Hérault" data-shapename="Hérault"/>
<path d="M 162.63 252.83 172.34 242.98 180.03 239.8 181.62 227.5 180.65 220.56 176.4 212.47 178.81 209.3 189.62 215.51 200.46 213.7 204.73 224.62 210.52 227.28 217.3 220.28 226.9 223.06 228.21 237.46 225.82 240.5 229.4 263.86 222.39 266.13 218.03 278.38 217.61 280.98 205.72 278.91 197.7 282.01 192.47 287.13 179.44 287.8 172.71 292.35 170.87 285.25 175.29 276.28 170.21 264.67 163.04 261.34 162.63 252.83 Z" fill="#18213c" stroke="#52607a" stroke-width="1" id="Ille-et-Vilaine" data-shapename="Ille-et-Vilaine"/>
<path d="M 380.45 324.5 377 331.39 382.77 333.75 391.52 333.26 393.88 340.32 392.75 361.99 398.94 369.14 397.82 385.88 375.63 383.9 369.97 388.89 363.75 385.67 358.1 391.78 345.53 388.95 347.04 386.01 340.79 377.12 331.32 372.02 332.35 365 329.16 360.98 333.22 361.84 337.36 353.47 339.1 341.84 344.68 338.46 349.53 339.85 353.4 327.08 360.32 322.94 373.95 320.04 380.45 324.5 Z" fill="#18213c" stroke="#52607a" stroke-width="1" id="Indre" data-shapename="Indre"/>
<path d="M 353.4 327.08 349.53 339.85 344.68 338.46 339.1 341.84 337.36 353.47 333.22 361.84 329.16 360.98 320.58 349.05 319.95 343.54 299.81 346.33 299.5 337.46 287.41 331.94 286.22 328.85 289.58 315.74 293.04 311.99 295.51 294.17 303.36 297.31 307.87 291.26 315.84 287.46 328.89 288.21 337.9 294.2 342.64 313.82 353.4 327.08 Z" fill="#18213c" stroke="#52607a" stroke-width="1" id="Indre-et-Loire " data-shapename="Indre-et-Loire "/>
<path d="M 552.66 432.36 559.24 435.69 565.97 427.11 576.16 439.96 580.22 447.51 588.59 460.39 593.65 462.99 600.53 459.54 606.53 460.63 609.94 469.59 607.05 471.96 608.21 480.93 613.84 484.05 610.85 492.6 616.26 493.18 618.8 504.42 607.1 503.63 597.5 511.44 589.6 515.36 581.44 514.06 572.72 509.48 573.35 493.82 571.84 490.19 556.87 487.24 556.63 474.93 546.62 467.81 536.76 471.2 534.39 466.12 534.48 459.39 540.57 453.86 542.09 448.03 548.83 447.21 554.89 439.43 552.66 432.36 Z" fill="#18213c" stroke="#52607a" stroke-width="1" id="Isère" data-shapename="Isère"/>
<path d="M 603.45 386.46 592.32 398.31 585.58 398.37 581.6 392.27 575.89 397.67 567.36 391.86 563.7 384.12 570.6 369.52 564.87 357.32 570.76 352.99 563.79 348.51 560.78 343.1 562.29 337.81 567.66 335.19 574.66 317.93 584.18 320.98 590.76 330.54 589.07 339.81 597.42 342.3 601.62 351.32 611.02 359.67 603.77 365.49 602.64 371.78 607.37 375.62 603.45 386.46 Z" fill="#18213c" stroke="#52607a" stroke-width="1" id="Jura" data-shapename="Jura"/>
<path d="M 287.39 568.79 281.05 570.27 273.05 576.13 270.42 589.14 270.58 597.9 265.64 600.39 259.68 597.07 253.97 600.96 242.83 598.29 230.99 603.76 221.79 600.86 215.23 604.21 203.1 601.98 207.44 588.94 214.03 557.46 217.21 533.1 224.92 530.51 230.21 535.38 238.88 536.73 247.69 533.85 250.03 538.11 263.15 546.47 262.81 552.14 269.03 553.29 275.95 550.89 276.58 556.34 283.17 556.52 288.73 561.11 287.39 568.79 Z" fill="#18213c" stroke="#52607a" stroke-width="1" id="Landes" data-shapename="Landes"/>
<path d="M 401.54 293.22 397 294.75 402.02 303.3 394.38 311.04 395.8 316.39 380.45 324.5 373.95 320.04 360.32 322.94 353.4 327.08 342.64 313.82 337.9 294.2 328.89 288.21 315.84 287.46 324.27 276.02 327.77 255.27 336.35 253.09 341.76 256.93 347.3 265.87 355.68 267.04 363.62 264.8 367.34 272.95 363.92 277.57 373.79 285.27 375.67 290.46 382.09 289.02 399.82 288.85 401.54 293.22 Z" fill="#18213c" stroke="#52607a" stroke-width="1" id="Loir-et-Cher" data-shapename="Loir-et-Cher"/>
<path d="M 478.36 423.48 485.2 419.2 483.42 406.42 484.35 398.66 489.21 397.2 490.19 402.78 511.19 405.23 514.96 401.47 511.54 408.27 509.05 419.75 513.69 428.53 513.85 443.13 519.29 449.64 526.95 450.36 529.45 457.03 534.48 459.39 534.39 466.12 528.22 469.1 526.51 473.87 520.02 475.84 513.64 468.27 503.91 464.11 497.71 467.59 489.1 466.8 492.57 460.89 492.11 451.84 485.18 446.04 479.29 433.43 478.36 423.48 Z" fill="#18213c" stroke="#52607a" stroke-width="1" id="Loire" data-shapename="Loire"/>
<path d="M 520.02 475.84 514.02 483.93 507.84 496.61 495.76 504.06 487.26 512.6 481.32 506.72 468.45 506.64 460.8 495.67 453.4 475.27 447.61 472.27 447.21 467.01 459.34 463 471.53 463.92 476.77 466.46 489.1 466.8 497.71 467.59 503.91 464.11 513.64 468.27 520.02 475.84 Z" fill="#18213c" stroke="#52607a" stroke-width="1" id="Haute-Loire" data-shapename="Haute-Loire"/>
<path d="M 172.71 292.35 179.44 287.8 192.47 287.13 197.7 282.01 205.72 278.91 217.61 280.98 223.33 293.34 229.58 296.66 232.38 303.25 231.92 312.69 214.92 315.25 219.65 321.89 218.49 330.83 222.76 339.26 216.32 334.95 211.6 338.47 210.96 345.22 201.13 352.19 183.63 344.86 179.1 339.3 174.98 334.18 166.17 331.82 169.42 325.36 155 321.51 148.71 312.89 153.59 306.71 161.36 305.38 172.59 300.04 172.71 292.35 Z" fill="#18213c" stroke="#52607a" stroke-width="1" id="Loire-Atlantique" data-shapename="Loire-Atlantique"/>
<path d="M 435.11 301.07 423.65 303.66 420.38 298.14 401.54 293.22 399.82 288.85 382.09 289.02 375.67 290.46 373.79 285.27 363.92 277.57 367.34 272.95 363.62 264.8 369.63 258.05 382.84 255.69 388.62 240.72 410.22 238.03 416.55 248 413.49 253.19 426.19 253.68 430.11 250.16 438.39 250.49 443.28 252.87 448.43 265.92 442.1 272.55 442.97 280.22 434.88 281.9 440.49 297.22 435.11 301.07 Z" fill="#18213c" stroke="#52607a" stroke-width="1" id="Loiret" data-shapename="Loiret"/>
<path d="M 399.92 522.12 393.3 524.23 380.49 532.5 382.72 542.51 373.24 544.39 367.15 549.24 361.13 546.63 355.11 552.24 341.88 543.47 339.55 539.67 336.62 527.21 340.13 524.97 352.83 512.86 359.52 502.39 359.82 492.08 369.42 491.03 379.49 498.96 384.1 495.16 392.27 495.28 393.37 502.03 397.69 507.79 397.1 515.85 399.92 522.12 Z" fill="#18213c" stroke="#52607a" stroke-width="1" id="Lot" data-shapename="Lot"/>
<path d="M 299.06 511.23 305.2 519.75 314.26 515.94 325.47 515.74 329.18 523.39 335.29 520.27 340.13 524.97 336.62 527.21 339.55 539.67 330.18 540.64 333.57 547.31 330.58 557.4 325.38 556.84 322.54 562.75 307.64 563.46 299.36 568.2 294.68 565.85 287.39 568.79 288.73 561.11 283.17 556.52 276.58 556.34 275.95 550.89 281.64 547.56 279.22 541.51 283.06 537.23 283.06 529.4 291.57 522.16 288.81 516.91 293.12 512.22 299.06 511.23 Z" fill="#18213c" stroke="#52607a" stroke-width="1" id="Lot-et-Garonne" data-shapename="Lot-et-Garonne"/>
<path d="M 487.26 512.6 488.9 522.29 494.43 533.68 489.65 539.92 492.51 554.7 483.8 558.18 477.81 554.28 475.13 558.64 465.51 558.24 461.47 554.98 449.9 547.48 448.77 533.71 446.17 526.29 440.76 519.97 447.16 502 460.8 495.67 468.45 506.64 481.32 506.72 487.26 512.6 Z" fill="#18213c" stroke="#52607a" stroke-width="1" id="Lozère" data-shapename="Lozère"/>
<path d="M 217.61 280.98 218.03 278.38 223.36 281.08 251.14 284.2 255.78 280.51 263.23 282.23 273 291 283.13 291.1 291.37 296.26 295.51 294.17 293.04 311.99 289.58 315.74 286.22 328.85 277.99 336.49 268.45 333.52 257.36 335.08 248.02 341.47 236.29 343.39 222.76 339.26 218.49 330.83 219.65 321.89 214.92 315.25 231.92 312.69 232.38 303.25 229.58 296.66 223.33 293.34 217.61 280.98 Z" fill="#18213c" stroke="#52607a" stroke-width="1" id="Maine-et-Loire" data-shapename="Maine-et-Loire"/>
<path d="M 223.19 158.82 226.44 164.83 236.58 173.32 236.56 181.94 229.38 191.5 224.54 194.82 226.3 201.61 238.98 203.61 243.12 208.45 242.51 218.76 237.97 223.65 226.9 223.06 217.3 220.28 210.52 227.28 204.73 224.62 200.46 213.7 206.86 213.96 200.49 204.31 198.53 167.91 193.25 158.12 187.18 151.57 183.91 139.92 185.25 131.23 192.68 128.67 197.86 131.97 208.39 126.62 215.12 127.6 218.55 133.3 214.24 139.26 221.19 149.8 223.19 158.82 Z" fill="#18213c" stroke="#52607a" stroke-width="1" id="Manche" data-shapename="Manche"/>
<path d="M 467.33 195.64 476.79 180.72 474.54 171.62 478.88 169.11 475.72 158.5 487.66 150.87 497.06 150.97 503.75 151.22 518.12 161.75 525.63 160.33 540.04 165.22 544.7 164.63 549.38 185.8 542.68 191.89 546.69 209.05 542.6 208.69 529.88 221.22 522.25 221.52 511.14 214.48 510.32 206.62 498.66 207.68 485.3 222.55 475.18 220.42 471.05 214.18 466.86 212.83 467.33 195.64 Z" fill="#18213c" stroke="#52607a" stroke-width="1" id="Marne" data-shapename="Marne"/>
<path d="M 531.69 261.8 531.09 256.5 537.76 255.25 540.15 247.64 538.88 236.6 528.08 227.24 529.88 221.22 542.6 208.69 546.69 209.05 548.04 214.98 558.5 221.47 563.45 222.48 572.11 230.06 578.34 241.37 585.21 246.45 580.95 255.69 588.21 260.94 594 269.22 589.32 275.48 583.83 277.46 583.78 288.2 572.78 288.2 567.03 294.48 560.66 296.65 558.51 291.59 545.17 287.23 546.69 278.85 544.88 273.9 536.38 262.92 531.69 261.8 Z" fill="#18213c" stroke="#52607a" stroke-width="1" id="Haute-Marne" data-shapename="Haute-Marne"/>
<path d="M 218.03 278.38 222.39 266.13 229.4 263.86 225.82 240.5 228.21 237.46 226.9 223.06 237.97 223.65 243.73 228.73 249.01 228.23 256.46 223.04 263.71 224.07 272.39 218.65 275.59 227.19 280.48 233.15 275.07 236.4 275.63 247.19 270.75 250.36 271.19 258.73 268.46 266.71 262.42 269.25 259.73 276.6 263.23 282.23 255.78 280.51 251.14 284.2 223.36 281.08 218.03 278.38 Z" fill="#18213c" stroke="#52607a" stroke-width="1" id="Mayenne" data-shapename="Mayenne"/>
<path d="M 572.14 143.52 582.18 138.95 589.12 139.11 594.46 143.57 597.53 157.43 601.5 163.43 601.28 170.53 596.47 174.94 597.87 179.93 607.86 189.16 614.4 189.1 615.44 196.46 620.97 201.83 627.75 203.59 644.64 213.72 652.12 214.75 657.07 220.85 659.37 222.68 640.58 231.79 634.59 229.47 616.31 230.8 597.93 235.66 594.74 224.28 587.69 224.04 585.06 218.84 587.72 214.28 585.25 205.17 588.58 197.16 586.94 190.06 590.94 176.5 586.72 173.68 583.86 150.17 573.54 150.81 572.14 143.52 Z" fill="#18213c" stroke="#52607a" stroke-width="1" id="Meurthe-et-Moselle" data-shapename="Meurthe-et-Moselle"/>
<path d="M 544.7 164.63 552.99 150.18 551.96 139.66 563.79 138.48 568.11 133.8 572.14 143.52 573.54 150.81 583.86 150.17 586.72 173.68 590.94 176.5 586.94 190.06 588.58 197.16 585.25 205.17 587.72 214.28 585.06 218.84 587.69 224.04 579.79 228.51 572.11 230.06 563.45 222.48 558.5 221.47 548.04 214.98 546.69 209.05 542.68 191.89 549.38 185.8 544.7 164.63 Z" fill="#18213c" stroke="#52607a" stroke-width="1" id="Meuse" data-shapename="Meuse"/>
<path d="M 95.21 248.72 110.1 252.23 123.13 247.3 138 254.25 142.66 259.89 148.01 258.09 155.31 249.64 162.63 252.83 163.04 261.34 170.21 264.67 175.29 276.28 170.87 285.25 172.71 292.35 172.59 300.04 161.36 305.38 153.59 306.71 153.19 301.71 142.91 301.24 136.24 298.53 133.05 293.43 124.64 297.32 116.59 294.26 106.91 285.77 100.69 287.12 97.4 279.37 103.84 273.36 102.79 265.97 91.17 264.53 87.32 252.09 95.21 248.72 Z" fill="#18213c" stroke="#52607a" stroke-width="1" id="Morbihan" data-shapename="Morbihan"/>
<path d="M 657.07 220.85 652.12 214.75 644.64 213.72 627.75 203.59 620.97 201.83 615.44 196.46 614.4 189.1 607.86 189.16 597.87 179.93 596.47 174.94 601.28 170.53 601.5 163.43 597.53 157.43 594.46 143.57 602.29 147.54 609.32 142.47 617.72 145.99 622.27 145.22 629.23 149.44 631.18 157.74 635 160.97 639.07 170.55 645.45 165.78 654.71 168.31 656.4 174.51 665.82 173.26 672.16 169.87 678.95 170.07 686.41 179.39 683.38 187.18 671.81 187.15 658.46 180.09 650.52 189.98 659.56 199.7 663.2 196.56 669.24 202.8 666.08 209.42 666.38 216.68 661.71 221.57 657.07 220.85 Z" fill="#18213c" stroke="#52607a" stroke-width="1" id="Moselle" data-shapename="Moselle"/>
<path d="M 474.95 360.87 467.39 368.34 463.75 363.89 452.52 366.32 443.42 357.38 445.7 339.27 442.75 336.26 440.84 321.3 434.95 314.69 438.13 307.51 435.11 301.07 440.49 297.22 447.1 295.76 450.45 301.29 460.51 304.31 462.32 301.95 472.38 302.83 479.56 310.22 500.11 315.2 501.14 322.34 505.58 329.49 504.12 329.87 500.66 331.99 496.19 342.71 499.85 352.42 497.83 357.84 483.68 364.14 474.95 360.87 Z" fill="#18213c" stroke="#52607a" stroke-width="1" id="Nièvre" data-shapename="Nièvre"/>
<path d="M 502.01 104.18 499.02 105 479.48 96.75 474.15 100.4 460.23 99.62 450.84 101.48 446.5 98.04 449.99 87.52 449.6 80.84 441.06 69.41 445.76 65.81 439.86 60.13 431.18 58.9 430.76 50.07 415.16 50.32 400.53 35.24 393.66 19.24 417.74 12 422.47 35.13 426.45 35.08 430.65 42.41 447.69 36.67 455.51 46.3 456.96 59.04 473.8 61.42 476.43 72.07 489.76 75.37 495.96 73.03 504.11 83.33 502.72 89.05 506.05 97.45 502.01 104.18 Z" fill="#18213c" stroke="#52607a" stroke-width="1" id="Nord" data-shapename="Nord"/>
<path d="M 447.98 126.53 449.03 137.12 441.85 166.45 447.07 167.78 445.53 174.25 440.42 177.77 430.81 176.45 420.11 177.3 405.87 169.13 400.73 171.48 393.75 166.92 382.77 170.64 376.01 169.67 373.34 164.99 376.65 158.12 373.85 150.67 375.64 140.16 373.18 135.26 377.53 122.26 383.37 127.08 390.13 126.09 405.68 128.03 418.92 134.9 437.18 126.67 447.98 126.53 Z" fill="#18213c" stroke="#52607a" stroke-width="1" id="Oise" data-shapename="Oise"/>
<path d="M 238.98 203.61 242.17 200.87 260.55 193.78 275.59 197.96 298.02 186.5 305.16 187.73 307.28 193.45 312.48 193.83 324.29 204.81 326.39 210.19 326.64 215.01 334.44 221.87 333.55 231.77 323.98 237.89 325.49 248.01 319.43 243.23 312.25 243.59 303.57 236.97 302.01 226.97 291.43 227.15 284.49 233.3 280.48 233.15 275.59 227.19 272.39 218.65 263.71 224.07 256.46 223.04 249.01 228.23 243.73 228.73 237.97 223.65 242.51 218.76 243.12 208.45 238.98 203.61 Z" fill="#18213c" stroke="#52607a" stroke-width="1" id="Orne" data-shapename="Orne"/>
<path d="M 393.66 19.24 400.53 35.24 415.16 50.32 430.76 50.07 431.18 58.9 439.86 60.13 445.76 65.81 441.06 69.41 449.6 80.84 449.99 87.52 446.5 98.04 435.36 99.96 427.58 92.15 425.41 94.81 410.24 88.89 408.53 85.25 395.33 85.1 378.65 72.82 370.28 73.75 365.5 69.52 366.82 55.87 365.76 44.67 368.17 36.62 366.84 30.36 380.76 21.35 393.66 19.24 Z" fill="#18213c" stroke="#52607a" stroke-width="1" id="Pas-de-Calais" data-shapename="Pas-de-Calais"/>
<path d="M 418.84 407.33 432.11 402.74 448.66 412.95 463.88 412.56 468.16 417.21 473 416.38 478.36 423.48 479.29 433.43 485.18 446.04 492.11 451.84 492.57 460.89 489.1 466.8 476.77 466.46 471.53 463.92 459.34 463 447.21 467.01 442.7 472.05 435.56 464.76 415.78 457.67 413.4 448.54 414.93 438.09 409.51 431.59 414.9 428.3 420.75 416.77 418.84 407.33 Z" fill="#18213c" stroke="#52607a" stroke-width="1" id="Puy-de-Dôme" data-shapename="Puy-de-Dôme"/>
<path d="M 270.58 597.9 278.26 598.09 283.89 609.73 282.49 620.66 267.9 640.84 266.84 651.17 262.57 654.66 255.74 654.91 244.74 647.8 243.64 642.63 233.49 643.67 224.53 638.58 211.91 638.27 208.73 631.03 210.4 622.01 203.89 619.08 198.46 622.09 195.31 617.53 196.5 610.99 203.1 601.98 215.23 604.21 221.79 600.86 230.99 603.76 242.83 598.29 253.97 600.96 259.68 597.07 265.64 600.39 270.58 597.9 Z" fill="#18213c" stroke="#52607a" stroke-width="1" id="Pyrénées-Atlantiques" data-shapename="Pyrénées-Atlantiques"/>
<path d="M 315.43 617.82 313.66 624.4 306.69 630.85 316.51 640.44 313.78 649.62 308.57 649.09 308.6 661.91 293.1 659.35 283.4 662.96 266.84 651.17 267.9 640.84 282.49 620.66 283.89 609.73 278.26 598.09 282.59 596.39 289.3 602.8 291.46 611.39 299.11 612.18 304.3 616.18 315.43 617.82 Z" fill="#18213c" stroke="#52607a" stroke-width="1" id="Hautes-Pyrénées" data-shapename="Hautes-Pyrénées"/>
<path d="M 377.66 670.97 397.71 664.5 407.71 659.96 406.22 652.03 415.44 651.01 427.84 652.16 434.62 646.19 444.04 651.98 443.47 668.35 450.95 680.9 446.26 681.58 438.83 677.7 424.6 687.52 414.47 687.7 402.5 680.64 389.6 686.77 384.53 680.1 378.62 676.94 377.66 670.97 Z" fill="#18213c" stroke="#52607a" stroke-width="1" id="Pyrénées-Orientales" data-shapename="Pyrénées-Orientales"/>
<path d="M 659.37 222.68 657.07 220.85 661.71 221.57 666.38 216.68 666.08 209.42 669.24 202.8 663.2 196.56 659.56 199.7 650.52 189.98 658.46 180.09 671.81 187.15 683.38 187.18 686.41 179.39 703.8 180.28 717.01 185.74 711.13 198.26 695.35 216.38 695.36 222.72 691.56 231.96 692.21 236.94 683.35 253.9 678.03 247.3 663.34 238.85 657.01 235.61 659.37 222.68 Z" fill="#18213c" stroke="#52607a" stroke-width="1" id="Bas-Rhin" data-shapename="Bas-Rhin"/>
<path d="M 663.34 238.85 678.03 247.3 683.35 253.9 683.98 268.26 680.95 280.11 680.49 290.03 684.16 295.03 679.84 302.89 673.22 307.98 661.85 307.11 659.74 302.42 653.55 283.75 644.73 277.35 649.9 263.44 663.34 238.85 Z" fill="#18213c" stroke="#52607a" stroke-width="1" id="Haut-Rhin" data-shapename="Haut-Rhin"/>
<path d="M 535.71 404.76 534.02 421.08 542.5 427.76 543.28 433.08 552.66 432.36 554.89 439.43 548.83 447.21 542.09 448.03 540.57 453.86 534.48 459.39 529.45 457.03 526.95 450.36 519.29 449.64 513.85 443.13 513.69 428.53 509.05 419.75 511.54 408.27 514.96 401.47 528.98 395.04 535.71 404.76 Z" fill="#18213c" stroke="#52607a" stroke-width="1" id="Rhône" data-shapename="Rhône"/>
<path d="M 574.66 317.93 570.26 307.17 573.53 298.38 567.03 294.48 572.78 288.2 583.78 288.2 583.83 277.46 589.32 275.48 594 269.22 596.75 265.06 607.01 261.5 612.65 268.7 619.35 266.35 625.33 272.43 632.04 267.77 643.56 278.1 640.09 283.25 642.69 297.72 617.78 302.16 613.59 308.55 604.34 313.99 584.18 320.98 574.66 317.93 Z" fill="#18213c" stroke="#52607a" stroke-width="1" id="Haute-Saône" data-shapename="Haute-Saône"/>
<path d="M 563.7 384.12 555.04 379.52 543.76 379.14 535.71 404.76 528.98 395.04 514.96 401.47 511.19 405.23 490.19 402.78 489.21 397.2 493.67 393.93 494.26 382.56 480.89 377.05 480.42 372.02 474.95 360.87 483.68 364.14 497.83 357.84 499.85 352.42 496.19 342.71 500.66 331.99 504.12 329.87 505.58 329.49 515.6 335.09 525.63 344.96 532.95 347.77 549.9 342.96 560.78 343.1 563.79 348.51 570.76 352.99 564.87 357.32 570.6 369.52 563.7 384.12 Z" fill="#18213c" stroke="#52607a" stroke-width="1" id="Saône-et-Loire" data-shapename="Saône-et-Loire"/>
<path d="M 325.49 248.01 327.77 255.27 324.27 276.02 315.84 287.46 307.87 291.26 303.36 297.31 295.51 294.17 291.37 296.26 283.13 291.1 273 291 263.23 282.23 259.73 276.6 262.42 269.25 268.46 266.71 271.19 258.73 270.75 250.36 275.63 247.19 275.07 236.4 280.48 233.15 284.49 233.3 291.43 227.15 302.01 226.97 303.57 236.97 312.25 243.59 319.43 243.23 325.49 248.01 Z" fill="#18213c" stroke="#52607a" stroke-width="1" id="Sarthe" data-shapename="Sarthe"/>
<path d="M 580.22 447.51 588.5 437.73 591.07 422.91 593.83 431.35 602.35 438 617.44 441.47 626.98 425.11 631.42 433.82 637.66 439.22 642.44 435.01 642.76 439.06 652.93 445.5 652.87 455.69 662.61 463.02 659.02 468.92 660.12 474.38 651.07 477.96 644.84 484.02 640.62 481.59 633.33 485.36 620.99 488.97 613.84 484.05 608.21 480.93 607.05 471.96 609.94 469.59 606.53 460.63 600.53 459.54 593.65 462.99 588.59 460.39 580.22 447.51 Z" fill="#18213c" stroke="#52607a" stroke-width="1" id="Savoie" data-shapename="Savoie"/>
<path d="M 591.07 422.91 589.95 413.28 597.76 408.15 607.29 407.45 612.44 402.51 614.7 391.54 620.77 392.21 628.86 388.12 638.31 387.11 645.74 396.88 642.25 407.9 653.42 418.42 652.73 427.91 643.27 430.67 642.44 435.01 637.66 439.22 631.42 433.82 626.98 425.11 617.44 441.47 602.35 438 593.83 431.35 591.07 422.91 Z" fill="#18213c" stroke="#52607a" stroke-width="1" id="Haute-Savoie" data-shapename="Haute-Savoie"/>
<path d="M 406.47 198.43 405.83 191.74 410.92 195.85 406.47 198.43 Z" fill="#18213c" stroke="#52607a" stroke-width="1" id="Paris" data-shapename="Paris"/>
<path d="M 373.85 150.67 357.32 146.81 352.49 149.11 350.53 155.78 344.78 156.07 336.43 163.52 331.83 152.61 323.87 149.8 318.46 151.29 310.98 144.99 301.24 147.74 289.74 146.28 286.84 142.28 293.6 126.42 314.01 114.61 337.31 109.36 346.36 105.14 356.27 97.06 363.42 101.47 373.79 111.7 377.53 122.26 373.18 135.26 375.64 140.16 373.85 150.67 Z" fill="#18213c" stroke="#52607a" stroke-width="1" id="Seine-Maritime" data-shapename="Seine-Maritime"/>
<path d="M 445.53 174.25 450.45 175.7 450.63 182.37 461.86 194.06 467.33 195.64 466.86 212.83 471.05 214.18 462.24 225.58 463.62 232.51 444.17 235.07 444.13 241.99 438.39 250.49 430.11 250.16 426.19 253.68 413.49 253.19 416.55 248 410.22 238.03 415.36 228.52 415.31 220.35 419.13 208.44 420.18 199.22 420.76 189.42 418.16 182.92 420.11 177.3 430.81 176.45 440.42 177.77 445.53 174.25 Z" fill="#18213c" stroke="#52607a" stroke-width="1" id="Seine-et-Marne" data-shapename="Seine-et-Marne"/>
<path d="M 362.63 188.48 359.72 180.01 368.29 177.48 374.32 180.14 379.9 177.6 385.66 181.98 393.43 182.57 399.53 191.08 396.95 198.44 400.91 201.71 395.26 204.42 385.6 218.83 384.83 227.13 377.62 224.55 377.73 219.48 370.74 213.99 366.59 207.6 367.73 196.68 362.63 188.48 Z" fill="#18213c" stroke="#52607a" stroke-width="1" id="Yvelines" data-shapename="Yvelines"/>
<path d="M 293.8 410.97 281.69 413.97 277.94 420.53 268.62 412.23 256.67 410.11 246.99 404.37 243.77 395.03 251.54 390.66 250.97 370.72 245.61 360.69 245.74 356.59 239.72 350.62 236.29 343.39 248.02 341.47 257.36 335.08 268.45 333.52 277.99 336.49 282.91 348.66 281.01 355.25 284.56 371.26 282.96 388.56 287.51 394.97 293.8 410.97 Z" fill="#18213c" stroke="#52607a" stroke-width="1" id="Deux-Sèvres" data-shapename="Deux-Sèvres"/>
<path d="M 450.84 101.48 445.97 113.52 447.98 126.53 437.18 126.67 418.92 134.9 405.68 128.03 390.13 126.09 383.37 127.08 377.53 122.26 373.79 111.7 363.42 101.47 356.27 97.06 365.7 85.12 365.25 73.11 370.28 73.75 378.65 72.82 395.33 85.1 408.53 85.25 410.24 88.89 425.41 94.81 427.58 92.15 435.36 99.96 446.5 98.04 450.84 101.48 Z" fill="#18213c" stroke="#52607a" stroke-width="1" id="Somme" data-shapename="Somme"/>
<path d="M 418.81 609.7 409.89 610.14 401.91 607.83 392.82 611.71 390.48 608.68 380.51 598.42 374.58 596.12 373.05 587.56 367.32 581.13 365.5 573.53 376.51 559.61 388.43 556.56 396.82 552.79 413.23 563.77 418.33 573.53 418.72 579.15 427.85 587.34 432.41 584.96 438.32 589.9 421.45 599.22 424.21 606.26 418.81 609.7 Z" fill="#18213c" stroke="#52607a" stroke-width="1" id="Tarn" data-shapename="Tarn"/>
<path d="M 382.72 542.51 383.82 553.36 388.43 556.56 376.51 559.61 365.5 573.53 348.12 584.11 344.49 580.85 333.72 583.11 327.06 567.79 322.54 562.75 325.38 556.84 330.58 557.4 333.57 547.31 330.18 540.64 339.55 539.67 341.88 543.47 355.11 552.24 361.13 546.63 367.15 549.24 373.24 544.39 382.72 542.51 Z" fill="#18213c" stroke="#52607a" stroke-width="1" id="Tarn-et-Garonne" data-shapename="Tarn-et-Garonne"/>
<path d="M 587.28 587.35 594.87 587.12 601.92 589.92 611.39 582.25 620.32 586.98 621.95 582.79 633.67 583 640.07 587.08 642.49 594.84 648.22 596.91 649.36 605.51 645.05 610.54 640.5 609.6 635.15 622.87 626.12 629.38 609.69 632.49 606.73 634.68 590.23 632.62 582.77 627.34 584.2 605.13 583.88 594.62 587.07 587.7 587.28 587.35 Z" fill="#18213c" stroke="#52607a" stroke-width="1" id="Var" data-shapename="Var"/>
<path d="M 573.63 559.02 575.99 565.64 574.09 570.66 579.38 573.75 587.28 587.35 587.07 587.7 579.35 592.51 570.48 590.88 564.01 586.86 557.21 586.94 549.74 582.85 546 577.3 533.54 573.1 537.37 570.32 536.07 562.7 531.79 559.62 532.65 553.77 528.8 547.66 528.86 543.27 536.98 545.19 538.16 550.74 550.5 544.87 556.54 551.31 567.6 552.76 573.63 559.02 Z" fill="#18213c" stroke="#52607a" stroke-width="1" id="Vaucluse" data-shapename="Vaucluse"/>
<path d="M 243.77 395.03 235.26 394.38 229.89 391.11 225.08 394.22 218.42 397.11 212.56 392.26 205.93 392.09 190.65 381.96 180.59 364.84 170.38 355.62 169.54 350.37 179.1 339.3 183.63 344.86 201.13 352.19 210.96 345.22 211.6 338.47 216.32 334.95 222.76 339.26 236.29 343.39 239.72 350.62 245.74 356.59 245.61 360.69 250.97 370.72 251.54 390.66 243.77 395.03 Z" fill="#18213c" stroke="#52607a" stroke-width="1" id="Vendée" data-shapename="Vendée"/>
<path d="M 326.83 408.44 303.93 413.08 293.8 410.97 287.51 394.97 282.96 388.56 284.56 371.26 281.01 355.25 282.91 348.66 277.99 336.49 286.22 328.85 287.41 331.94 299.5 337.46 299.81 346.33 319.95 343.54 320.58 349.05 329.16 360.98 332.35 365 331.32 372.02 340.79 377.12 347.04 386.01 345.53 388.95 338.79 391.01 325.25 402.03 326.83 408.44 Z" fill="#18213c" stroke="#52607a" stroke-width="1" id="Vienne" data-shapename="Vienne"/>
<path d="M 316.59 439.84 323.6 433.87 327.48 424.09 332.28 417.53 326.35 414.27 326.83 408.44 325.25 402.03 338.79 391.01 345.53 388.95 358.1 391.78 355.98 401.66 362.81 408.28 364.34 417.96 369.39 423.41 367.96 429.04 382.65 433.56 383.61 441.07 372.5 446.27 365.46 452.32 357.66 454.01 349.53 460.24 342.36 457.45 337.39 447.75 326.19 450.32 324.35 443.38 316.59 439.84 Z" fill="#18213c" stroke="#52607a" stroke-width="1" id="Haute-Vienne" data-shapename="Haute-Vienne"/>
<path d="M 594 269.22 588.21 260.94 580.95 255.69 585.21 246.45 578.34 241.37 572.11 230.06 579.79 228.51 587.69 224.04 594.74 224.28 597.93 235.66 616.31 230.8 634.59 229.47 640.58 231.79 659.37 222.68 657.01 235.61 663.34 238.85 649.9 263.44 644.73 277.35 643.56 278.1 632.04 267.77 625.33 272.43 619.35 266.35 612.65 268.7 607.01 261.5 596.75 265.06 594 269.22 Z" fill="#18213c" stroke="#52607a" stroke-width="1" id="Vosges" data-shapename="Vosges"/>
<path d="M 463.62 232.51 468 234.14 480.81 249.99 486.44 263.82 490.62 268.54 509.97 269.24 508.26 273.2 512.07 282.55 500.45 302.38 498.4 309.28 500.11 315.2 479.56 310.22 472.38 302.83 462.32 301.95 460.51 304.31 450.45 301.29 447.1 295.76 440.49 297.22 434.88 281.9 442.97 280.22 442.1 272.55 448.43 265.92 443.28 252.87 438.39 250.49 444.13 241.99 444.17 235.07 463.62 232.51 Z" fill="#18213c" stroke="#52607a" stroke-width="1" id="Yonne" data-shapename="Yonne"/>
<path d="M 649.72 307.86 647.69 298.75 642.69 297.72 640.09 283.25 643.56 278.1 644.73 277.35 653.55 283.75 659.74 302.42 652.13 303.18 649.72 307.86 Z" fill="#18213c" stroke="#52607a" stroke-width="1" id="Territoire de Belfort" data-shapename="Territoire de Belfort"/>
<path d="M 388.62 240.72 384.83 227.13 385.6 218.83 395.26 204.42 400.91 201.71 405.88 203.9 415.66 204.93 419.13 208.44 415.31 220.35 415.36 228.52 410.22 238.03 388.62 240.72 Z" fill="#18213c" stroke="#52607a" stroke-width="1" id="Essonne" data-shapename="Essonne"/>
<path d="M 405.83 191.74 406.47 198.43 405.88 203.9 400.91 201.71 396.95 198.44 399.53 191.08 404.31 187.68 405.83 191.74 Z" fill="#18213c" stroke="#52607a" stroke-width="1" id="Hauts-de-Seine" data-shapename="Hauts-de-Seine"/>
<path d="M 410.92 195.85 405.83 191.74 404.31 187.68 413.2 187.35 418.16 182.92 420.76 189.42 420.18 199.22 410.92 195.85 Z" fill="#18213c" stroke="#52607a" stroke-width="1" id="Seine-Saint-Denis" data-shapename="Seine-Saint-Denis"/>
<path d="M 406.47 198.43 410.92 195.85 420.18 199.22 419.13 208.44 415.66 204.93 405.88 203.9 406.47 198.43 Z" fill="#18213c" stroke="#52607a" stroke-width="1" id="Val-de-Marne" data-shapename="Val-de-Marne"/>
<path d="M 368.29 177.48 373.34 164.99 376.01 169.67 382.77 170.64 393.75 166.92 400.73 171.48 405.87 169.13 420.11 177.3 418.16 182.92 413.2 187.35 404.31 187.68 399.53 191.08 393.43 182.57 385.66 181.98 379.9 177.6 374.32 180.14 368.29 177.48 Z" fill="#18213c" stroke="#52607a" stroke-width="1" id="Val-d&apos;Oise" data-shapename="Val-d&apos;Oise"/>
</g>
</svg>