<?xml version="1.0"?>
<svg xmlns="http://www.w3.org/2000/svg" version="1.2" baseProfile="tiny" width="800" height="901" viewBox="0 0 800 901" stroke-linecap="round" stroke-linejoin="round">
<g id="IND-ADM1">
<path d="M 321.82 755.57 320.27 753.24 322.69 752.33 321.82 755.57 Z" fill="#18213c" stroke="#52607a" stroke-width="1" id="IN-PY" data-shapename="Puducherry"/>
<path d="M 334.15 566.21 330.21 567.37 325.9 562.18 325.08 551.41 325.46 545.26 319.9 541.46 313.62 544.25 307.65 541.63 305.81 544.58 300.36 543.28 296.18 537.2 288.54 535.29 285.12 535.47 281.23 539 281.97 545.64 279.01 547.03 278.55 551.78 275.38 551.8 272.45 548.84 268.61 557.01 269.66 563.92 266.75 567.78 266.97 570.86 263.31 571.68 261.33 576 262.01 578.26 259.26 578.87 256.77 573.91 253.81 574.89 251.11 580.61 246.13 581.15 245.3 588.03 241.44 589.81 239.2 595.15 234.96 593.13 230.56 599.9 231.05 605.47 224.05 603.91 219.14 605.24 211.16 600.95 210.39 605.72 212.32 612.38 201.8 615.4 199.21 618.53 196.03 615.81 192.35 615.87 192.25 620.49 188.34 621.1 186.1 624.77 182.95 626.54 180.84 624.43 175.88 627.23 177.17 634.24 181.22 635.62 179.3 643.03 176.04 648.77 173.22 648.49 171.01 651.43 167.63 652.54 166.25 648.93 159.27 649.36 156.97 644.33 154.89 643.44 149.69 626.8 150.68 624.92 148.8 617.02 149.22 614.63 147.28 604.35 145.15 599.07 144.66 593.29 140.61 582.73 140.42 578.58 138.59 573.47 137.88 564.06 136.35 561.41 136.79 555.87 135.43 552.12 132.46 532.2 134.41 526.52 137.94 523.89 140.35 524.44 142.85 527.53 146.95 526.93 152.71 522.42 151.96 519.47 153.77 516.3 153.26 510.76 159.12 514.41 163.59 512.79 166.35 509.34 165.02 502.62 160.07 498.95 166.34 493.53 166.6 490.79 172.54 485.85 163.99 487.89 164.56 478.03 171.77 474.89 175.33 475.46 178.22 472.92 181.38 475.81 181.27 481.36 183.31 483.11 195.75 485.91 197.24 488.88 204.09 490.76 223.43 491.48 225.97 499.57 230.69 499.97 233.94 496.53 237.41 496.77 237.36 492.59 244.68 485.07 250.83 481.47 260.72 480.8 262.82 486.28 259.45 486.28 260.38 491.3 271.44 491.29 276.08 489.38 279.83 486.31 284.69 484.71 285.56 487.74 297.74 487.8 298.2 485.22 302.44 484.8 306.26 482.31 313.56 482.85 315.82 486.63 320.08 484.87 323.29 486.93 334.08 484.51 338.11 489.5 344.41 492.53 343.22 495.57 339.22 497.06 338.2 501.86 341.09 503.89 343.5 513.99 343.51 520.84 337.47 523.44 337.22 525.67 341.55 527 341.2 531.69 339.35 535.21 344.85 538.8 345.86 541.13 350.65 543.85 349.53 548.24 345.76 550.55 341.83 547.25 339.71 548.96 334.16 558.65 336.18 562.71 334.15 566.21 Z" fill="#18213c" stroke="#52607a" stroke-width="1" id="IN-MH" data-shapename="Mahārāshtra"/>
<path d="M 730.72 337.26 726.15 344.15 728.02 346.29 727.64 354.46 729.44 355.28 724.75 361.37 725.6 365.04 722.81 367.26 719.36 372.4 715.92 373.76 712.69 372.08 712.76 369.5 703.88 372.43 699.29 369.94 695.06 370.25 688.4 379.09 683.54 377.3 683.57 374.08 680.91 371.43 686.73 364.62 690.11 361.82 692.38 362.87 696.79 358.35 699.27 350.08 702.56 347.46 702.56 344.74 708.49 341.67 708.69 339.39 713.84 335.71 719.21 333.77 720.96 330.54 724.96 330.17 729.68 326.89 730.72 337.26 Z" fill="#18213c" stroke="#52607a" stroke-width="1" id="IN-NL" data-shapename="Nāgāland"/>
<path d="M 142.66 851.69 142.44 851.53 142.85 851.27 142.66 851.69 Z" fill="#18213c" stroke="#52607a" stroke-width="1" id="IN-LD" data-shapename="Lakshadweep"/>
<path d="M 262.67 225.14 272.42 229.99 268.59 234.65 266.57 241.76 269.4 247.46 277.36 247.94 282.8 243.54 287.6 245.9 290.28 250.82 298.43 254.6 294.99 257.91 298.47 264.2 301.75 263.02 311.69 271.82 319.14 272.59 322.83 271.6 325.7 276.17 328.64 272.72 336.93 279.01 341.22 277.16 345.85 280.83 356.69 286.65 363.11 293.7 377.28 302.34 381.79 300.24 391.84 307.54 398.73 306.41 399.41 312.84 410.74 314.19 415.4 317.89 416.73 313.53 422.74 313.84 429.33 317.57 432.6 321.94 434.33 330.61 437.76 332.77 441.7 337.21 437.15 338.63 430.58 344.16 437.6 346.42 434.43 354.49 441.21 359.1 449.51 363.58 446.73 367.02 442.61 365.05 430.86 370.63 427.85 374.83 415.82 381.28 415.54 387.89 416.82 392.95 420.23 396.23 419.78 400.67 415.18 412.99 410.19 419.28 405.06 419.67 401.41 417.02 399.36 413.66 400.42 407.01 398.84 404.89 400.31 398.39 397.72 395.66 394.22 397.1 390.7 396.12 377.37 389.77 377.49 387.39 369.89 384.18 368.76 381.23 365.04 382.99 362.29 381.86 357.88 388.12 349.12 388.91 347.23 385.27 343.45 384.21 337.32 384.95 338.36 381.61 335.28 375.42 332.11 375.04 327.05 378.99 322.97 380.17 323.37 382.69 316.32 383.07 313.44 384.48 310.59 382.63 312.26 379.65 307.58 377.74 308.72 382.83 304.63 383.66 297.24 375.51 296.21 371.79 290.01 374.66 288.03 378 291.2 385.33 290.65 387.94 294.84 392.34 293.84 398.49 297.16 397.26 300.24 403.66 297.44 409.35 294.83 410.8 287.21 404.6 281.05 402.95 281.24 396.66 278.5 390.35 282.76 386.96 285.22 382.53 282.07 375.65 286.98 369.85 291.35 370.4 295.42 368.61 294.14 365.7 300.73 354.99 300.26 353.13 303.67 347.2 300.08 339.91 293.03 333.88 289.07 335.22 284.38 333.26 279.81 332.86 276.45 330.98 266.55 331.56 262.86 330.08 261.35 325.5 265.45 322.04 259 314.22 256.41 312.12 256.44 306.84 254.92 303.91 261.84 299.34 260.68 296.18 261.15 290.65 260.06 285.34 256.55 282.5 256.02 276.59 252.96 272.08 253.57 270.24 250.94 261 250.93 253.1 249.95 252 251.28 244.3 254.95 236.02 258.13 234.6 262.95 227.67 262.92 225.68 262.67 225.14 Z" fill="#18213c" stroke="#52607a" stroke-width="1" id="IN-UP" data-shapename="Uttar Pradesh"/>
<path d="M 321.8 755.64 321.5 756.95 320.48 763.12 323.12 773.56 323.06 778.64 322.71 782.83 323.42 797.43 320.78 797.82 310.51 796.62 307.49 798.98 306.89 804.41 299.89 813.49 297.83 819.57 302.17 824.02 284.69 829.07 278.46 835.16 277.7 845.38 268.44 854.48 262.84 855.14 262.11 856.77 256.18 855.41 249.99 850.99 254.68 844.42 252.09 839.4 254.4 836.26 252 832.25 254.5 827.9 254.9 824.18 257.98 818.69 252.65 815.52 252.81 802.76 255.04 798.89 252.06 795.49 246.96 799.17 242.89 796.98 243.12 789.08 244.84 784.61 242.91 781.68 238.44 780.08 240.69 774.6 239.63 771.75 235.04 773.17 235.41 768.49 227.91 765.18 227.08 762.84 232.32 760.17 235.92 761.46 242.7 761.75 244.96 756.68 250.33 757.27 255.19 756.31 258.74 757.45 260.46 752.72 265.13 752.51 267.91 747.87 266.69 746.21 259.91 745.5 263.65 741.34 263.27 733.03 267.01 732.87 269.56 727.51 275.93 728.34 280.03 730.49 283.96 734.18 286.41 733.99 289.61 729.89 290.36 724.22 297.65 721.4 304.73 723.43 309.97 720.62 311.85 714.82 319.89 716.47 325.27 714.31 327.67 709.31 332.9 710.78 334.03 708.61 336.11 715.45 333.83 725.51 333.67 729.95 330.57 740 323.57 749.98 323.13 750.95 322.69 752.33 320.27 753.24 321.82 755.57 321.8 755.64 Z" fill="#18213c" stroke="#52607a" stroke-width="1" id="IN-TN" data-shapename="Tamil Nādu"/>
<path d="M 334.15 566.21 336.18 562.71 334.16 558.65 339.71 548.96 341.83 547.25 345.76 550.55 349.53 548.24 350.65 543.85 345.86 541.13 344.85 538.8 339.35 535.21 341.2 531.69 341.55 527 337.22 525.67 337.47 523.44 343.51 520.84 343.5 513.99 341.09 503.89 338.2 501.86 339.22 497.06 343.22 495.57 344.41 492.53 346.4 488.95 345.9 482.83 348.23 480.83 350.98 470.4 356.57 465.2 356.37 461.01 360.88 459.13 364.76 459.8 372.74 454.15 378.62 445.34 377.99 443.19 383.27 441.85 385.22 435.81 379.68 432.78 377.9 429.48 369.6 428.83 370.86 418.37 373.92 421.27 380.13 419.95 382.1 421.27 392.63 421.57 396.77 420.65 401.41 417.02 405.06 419.67 410.19 419.28 415.18 412.99 417.95 413.5 421.11 418.9 425.99 422.88 426.91 427.21 431.29 428.43 432.13 434.27 434.93 435.24 433.8 440.22 436.84 445.12 443.07 445.76 439.26 453.71 433.59 456.58 433.19 458.47 433.1 462.84 429.35 463.71 426.53 466.66 423.07 467.71 420.85 471.91 422.49 475.99 415.4 487.75 411.69 497.9 409.92 499.02 403.22 497.53 396.91 497.63 394.78 503.54 388.93 506.37 389.91 512.45 388.85 514.68 391.54 518.06 390.56 528.79 398.97 530.64 398.59 535.06 391.01 533.03 380.4 528.94 376.35 529.57 376 532.49 381.53 536.07 381.17 543.45 384.87 546.47 384.35 554.63 386.45 560.71 384.1 564.46 379.16 566.89 378.62 570.49 367.67 578.89 366.23 587.04 363.92 591.41 357.89 590.42 355.69 592.02 353.64 592.02 352.25 582.71 347.9 579.4 346.32 575.21 342.82 570.96 338.97 568.8 336.08 569.77 334.15 566.21 Z" fill="#18213c" stroke="#52607a" stroke-width="1" id="IN-CT" data-shapename="Chhattīsgarh"/>
<path d="M 140.35 524.44 137.94 523.89 134.41 526.52 136.63 519.94 137.54 517.12 138.66 513.85 137.2 508.35 130.78 493.79 132.69 489.91 131.09 485.38 131.41 476.98 128.36 475.13 129.89 468.33 134.41 465.66 124.76 464.5 119.56 479.15 123.07 483.85 120.45 490.06 117.06 495.07 108.56 501.42 101.91 503.6 100.61 505.39 92.3 508.89 88.56 509.48 86.24 509.32 83.14 510.52 77.38 508.2 68.67 502.78 61.9 496.22 54.06 486.76 42.82 476.52 34.12 466.53 35.54 460.93 40.15 462.69 39.49 467.96 44.99 464.47 53.76 460.87 58.16 460.3 66.48 456.54 71.82 447.49 74.04 449.15 80.88 439.4 75.24 439.76 69.75 438.8 64.71 445.49 54.24 450.44 47.75 450.66 40.54 449.51 26.35 440.57 17.49 430.54 17.06 428.15 12 427.07 14.36 419.57 17.98 416.74 28.8 416.78 29.23 408.26 31.56 409.72 37.86 407.98 51.09 407.44 54.73 410.98 62.52 410.98 64.77 407.38 77.04 403.68 76.99 408.64 83.22 409.54 87.98 405.33 87.99 398.63 90.92 395.89 95.98 398.03 101.02 396.17 107.12 396.7 116.49 395.23 119.23 397.88 124.24 399.55 126.98 403.89 129.21 400.86 134.24 405.36 139 406.15 141.41 402.3 145.78 407.25 143.16 410.29 147.81 415.88 149.99 413.7 152.32 417.71 150.75 420.21 156.44 426 158.75 426.92 158.16 431.29 163.38 432.56 165.72 435.18 171.56 437.18 176.48 443.08 180.2 450.13 178.06 455.02 175.23 455.03 169.84 459.86 173.58 460.9 171.12 467.46 170.51 473.56 171.77 474.89 164.56 478.03 163.99 487.89 172.54 485.85 166.6 490.79 166.34 493.53 160.07 498.95 165.02 502.62 166.35 509.34 163.59 512.79 159.12 514.41 153.26 510.76 153.77 516.3 151.96 519.47 152.71 522.42 146.95 526.93 143.97 523.9 140.35 524.44 Z" fill="#18213c" stroke="#52607a" stroke-width="1" id="IN-GJ" data-shapename="Gujarāt"/>
<path d="M 252.96 272.08 256.02 276.59 256.55 282.5 252.02 285.77 250.6 283.01 243.22 281.2 246.54 276.87 245.97 273.9 249.01 271.69 252.96 272.08 Z" fill="#18213c" stroke="#52607a" stroke-width="1" id="IN-DL" data-shapename="Delhi"/>
<path d="M 539.36 321.52 540.78 317.84 540.16 313.57 544.34 302.85 542.13 300.44 549.86 298.45 553.98 295.23 559.01 295.66 562.38 301.22 561.91 305.66 559.56 313.85 563.24 317.97 558.73 323.6 554.58 322.19 550.39 325.46 547.36 324.09 543.04 324.56 539.36 321.52 Z" fill="#18213c" stroke="#52607a" stroke-width="1" id="IN-SK" data-shapename="Sikkim"/>
<path d="M 650.61 401.28 652.75 408.67 653.79 411.53 653.58 418.7 652.03 423.91 648.12 423.76 646.83 426.24 643.33 424.95 644.36 430.51 638.75 435.91 640.17 441.91 637.38 445.31 633.73 445.75 630.38 437.36 627.07 438 625.25 430.81 622.75 427.69 622.93 423.18 625.92 416.46 629.48 412.8 632.8 413.82 640.27 409.82 642.94 406.11 647.17 405.05 650.61 401.28 Z" fill="#18213c" stroke="#52607a" stroke-width="1" id="IN-TR" data-shapename="Tripura"/>
<path d="M 539.36 321.52 543.04 324.56 547.36 324.09 550.39 325.46 554.58 322.19 558.73 323.6 561.93 324.58 564.83 330.42 568.89 333.58 575.28 332.07 588.06 336.82 588.51 344.04 584.56 349.85 584.55 352.55 582.2 355.59 578.21 357.56 574.52 356.99 569.59 353.35 567.04 349.94 557.49 347.66 548.99 339.79 547.75 342.9 552.52 345.97 548.74 348.45 547.45 351.44 543.67 353.08 543.65 356.81 541.44 359.5 542.98 364.05 548.91 365.93 553.31 371.83 556.1 372.81 560.18 371.45 561.24 376.17 565.07 377.88 563.37 381.97 557.84 380.74 550.68 381 550.84 385.6 543.3 391.18 539.62 395.92 542.26 400.91 553.79 406.99 558.62 408.57 557.89 412.38 559.35 416.45 554.47 419.72 554.7 427.05 558.93 431.06 558.83 435.58 564.97 439.32 561.78 442.62 563.15 451.79 565.37 460.03 565.07 464.2 567.3 467.99 567.23 475.21 561.74 475.77 557.67 473.81 552.74 477.64 550.76 475.9 544.59 479.74 542.88 474.64 540.56 473.03 538.48 477.44 533.84 481.85 525.35 484.68 524.24 480.16 519.76 478.77 518.72 474.77 512.51 476 513.21 472.46 508.54 470.6 505.23 467.34 508.37 462.09 506.26 457.05 499.29 452.98 497.15 450.29 499.13 445.06 491.87 445 486.59 440.68 483.15 440.37 481.18 437.11 482.67 430.98 489.89 431.42 494.18 432.97 495.72 429.24 498.96 426.44 507.14 424.96 509.51 420.48 515.71 421.85 520.17 419.03 518.68 415 524.11 416.47 530.61 408.79 533.75 403.99 533.74 399.6 536.55 398.91 535.11 393.77 537.85 387.66 533.56 384.26 531.32 379.27 532.74 375.57 539.54 369.34 540.29 366.22 534.48 361.25 535.18 356.72 546.56 347.65 544.95 343.26 541.77 341.15 543.93 334.62 542.18 329.3 538.75 324.6 539.36 321.52 Z" fill="#18213c" stroke="#52607a" stroke-width="1" id="IN-WB" data-shapename="West Bengal"/>
<path d="M 363.92 591.41 366.23 587.04 367.67 578.89 378.62 570.49 379.16 566.89 384.1 564.46 386.45 560.71 384.35 554.63 384.87 546.47 381.17 543.45 381.53 536.07 376 532.49 376.35 529.57 380.4 528.94 391.01 533.03 398.59 535.06 398.97 530.64 390.56 528.79 391.54 518.06 388.85 514.68 389.91 512.45 388.93 506.37 394.78 503.54 396.91 497.63 403.22 497.53 409.92 499.02 411.69 497.9 415.4 487.75 422.49 475.99 420.85 471.91 423.07 467.71 426.53 466.66 429.35 463.71 433.1 462.84 433.19 458.47 436.73 460.03 438.16 462.72 443.56 463.62 445.53 461.86 453.06 460.75 457.05 461.44 460.96 459.62 462.09 465.14 460.24 468.89 465.13 472.13 469.29 468.93 473.9 470.97 479.52 471.3 483.63 473.84 486.79 468.1 485.25 459.05 493.1 460.88 495.71 463.7 498.9 463.66 505.23 467.34 508.54 470.6 513.21 472.46 512.51 476 518.72 474.77 519.76 478.77 524.24 480.16 525.35 484.68 522.95 486.68 516.38 487.56 511.01 492 508.54 499.28 513.94 510.11 506.51 515.59 506.75 520.92 499.55 525.85 495.37 531.79 477.45 537.51 467.6 542.68 459.02 549.53 453.22 556.28 448.98 554.8 444.31 559.29 441.4 564.39 434.96 565.01 429.01 562.39 427.45 557.92 422.57 555.73 419.1 558.18 414.62 558.55 417.1 562.83 412.17 565.55 410.07 564.43 406.41 569.41 407.65 571.21 405.52 576.36 401.5 573.8 400.33 576.96 396.4 576.36 392.64 571.29 390.01 574.31 389 584.76 380.08 584.81 369.78 591.33 363.92 591.41 Z" fill="#18213c" stroke="#52607a" stroke-width="1" id="IN-OR" data-shapename="Odisha"/>
<path d="M 419.78 400.67 420.23 396.23 416.82 392.95 415.54 387.89 415.82 381.28 427.85 374.83 430.86 370.63 442.61 365.05 446.73 367.02 449.51 363.58 441.21 359.1 434.43 354.49 437.6 346.42 430.58 344.16 437.15 338.63 441.7 337.21 437.76 332.77 434.33 330.61 432.6 321.94 429.33 317.57 428.5 314.98 434.18 314.54 436.36 312.56 440.47 316.06 449.38 317.72 451.23 321.23 450 326.44 458.54 329.08 464.5 331.69 464.68 334.67 468.31 335.5 475.99 331.58 478.92 333.89 478.63 337.51 482.21 340.62 486.68 337.74 491.73 340.04 494.11 339.1 500.33 341.53 505.75 344.78 512.9 341.73 516.76 345.49 521.48 347.17 524.76 344.44 527.95 345.83 532.79 345.3 536.32 343.33 540.79 345.18 541.77 341.15 544.95 343.26 546.56 347.65 535.18 356.72 534.48 361.25 540.29 366.22 539.54 369.34 532.74 375.57 531.32 379.27 526.85 378.2 520.9 381.1 516.33 386.25 516.62 390.29 514.55 393.31 513.82 398.24 506.82 398.01 499.65 400.38 498.34 404.87 493.28 402.4 493.51 398.84 489.26 398.16 487.42 393.25 483.83 394.27 478.98 392.05 477.37 398.01 467.98 400.83 461.81 405.12 457.24 405.1 452.8 401.52 447.13 405.38 442.01 404.52 439.81 400.41 435.82 402.06 432.89 397.38 431.17 400.03 425.49 401.31 419.78 400.67 Z" fill="#18213c" stroke="#52607a" stroke-width="1" id="IN-BR" data-shapename="Bihār"/>
<path d="M 171.42 76.61 165.66 73.23 161.96 72.2 159.9 69.63 162.43 65.18 158.39 61.63 152.03 61.72 145.04 56.75 145.44 52.73 138.74 51.42 133.26 53.01 128.99 50.25 128.92 45.1 130.67 38.88 135.48 37.38 141.14 32.5 146.49 23.83 152.91 23.04 159.92 25.01 165.38 23.47 160.52 20.01 160.2 17.47 166.21 18.76 169.24 20.99 174.78 18.34 179.25 14.91 181.96 15.01 186.64 12 189.95 13.75 192 17.48 196.9 16.47 201.38 12.85 205.71 16.22 206.93 20.85 210.7 22.48 214.19 28.2 218.83 31.04 222.91 31.96 227.61 36.13 230.2 35.73 233.63 40.61 239.34 43.09 242.11 45.98 240.02 49.07 242.38 52.63 245.65 54.61 250.53 54.21 253.32 56.87 256.86 56.78 258.97 59.28 256.61 64.08 271.38 64.88 272.99 61.54 277.89 61.33 281.11 56.64 287.68 55.27 291.31 52.33 299.32 51.06 304.22 52.72 306.78 47.98 310.57 47.73 311.56 50.93 323.46 54.64 327.14 53.07 330.17 58.2 334.6 60.38 335.58 64.77 331.74 74.7 331.4 80.46 328.81 85.65 328.76 89.16 323.18 90.15 320.94 92.13 321.42 96.71 315.75 96.56 315.72 104.93 310.94 111.4 304.39 110.09 300.96 110.64 297.86 113.16 302.81 122.49 298.17 124.31 298.61 130.34 300.11 133.51 302.95 134.72 312.23 135.67 310.39 141.55 310.54 144.93 316.99 152.33 312.25 158.79 308.87 156.89 303.42 163.44 300.21 164.67 295.79 161.73 294.08 154.93 291.42 154.96 284.47 158.99 284.18 151.71 279.72 154.62 274.32 156.03 272.15 151.59 268.39 148.6 266.3 144.59 259.83 148.51 255.95 148.74 251.37 144.73 246.65 144.03 241.33 136.14 234.33 127.87 228.9 126.05 227.86 120.27 221.6 113.19 217.96 113.26 213.94 110.44 212.67 106.05 205.1 103.12 204.02 94.99 201.12 92.91 200.87 86.88 197.11 83.43 193.27 86.88 187.21 85.38 183.92 82.84 181.54 77.02 174.59 78.88 171.42 76.61 Z" fill="#18213c" stroke="#52607a" stroke-width="1" id="IN-LA" data-shapename="Ladākh"/>
<path d="M 254.92 303.91 256.44 306.84 256.41 312.12 259 314.22 265.45 322.04 261.35 325.5 262.86 330.08 266.55 331.56 276.45 330.98 279.81 332.86 276.44 337.3 273.92 336.89 269.46 340.85 261.27 345.41 259 345.53 252.8 350.65 244.78 354.7 241.86 359.12 237.91 360.16 234.94 363 234.58 371.35 237.42 375.78 241.51 377.58 252.94 377.85 256.19 374.3 258.38 380.36 257.36 383.75 252.03 383.54 249.57 385.11 244.12 385.6 242.95 391.55 249.12 397.22 246.81 402.54 243.33 401.8 243.2 406.57 245.07 409.03 242.15 412.56 237.23 408.46 234.27 410.05 229.9 408.86 224 410.31 224.26 413.39 219.92 415.4 220.56 417.66 209.85 421.89 206.56 418.25 208.2 415.23 212.99 416.91 216.57 414.29 214.32 411.65 216.07 409.01 214 404.99 218.48 402.72 218.63 399.3 214.45 393.78 211.51 396.01 200.44 395.06 200.1 392.59 203.28 388.46 199.49 385.83 195.66 391.2 190.7 392.7 194.18 395.77 188.73 398.91 187.61 402.32 192.78 414.38 191.8 419.62 192.7 426.71 190.14 428.98 183.12 432.64 181.53 435.74 185.09 439.8 180.18 442.49 176.48 443.08 171.56 437.18 165.72 435.18 163.38 432.56 158.16 431.29 158.75 426.92 156.44 426 150.75 420.21 152.32 417.71 149.99 413.7 147.81 415.88 143.16 410.29 145.78 407.25 141.41 402.3 139 406.15 134.24 405.36 129.21 400.86 126.98 403.89 124.24 399.55 119.23 397.88 116.49 395.23 107.12 396.7 101.02 396.17 95.98 398.03 90.92 395.89 86.7 388.6 85.39 382.47 79.46 375.18 79.71 366.99 77.98 365.84 72.1 367.05 68.96 365.88 64.49 359.26 64.06 354.98 66.49 350.02 66.46 341.15 63.34 339.69 58.83 340.33 48.86 335.45 48.94 327.53 50.9 322.36 58.22 315.84 62.53 311.04 65.11 304.31 71.71 297.59 75.25 296.83 79.8 300.29 81.97 306.3 85.86 306.65 93.79 302.88 98.5 301.77 106.01 301.61 112.17 299.1 112.95 294.29 120.33 286.09 122.8 277.78 125.56 274.34 134.28 269.37 139.92 266.94 148.86 250.4 151.89 238.98 162.74 235.25 167.15 231.25 165.09 238.13 181.85 239.08 184.21 244.9 183.14 250.76 183.98 256.97 192.75 256.79 196.39 260.81 203.41 259.25 205.3 260.41 204.75 265.88 208.18 267.67 207.56 272.11 209.27 279.48 216 285.62 219.02 287.14 222.76 292.98 219.26 300.52 220.13 302.38 225.35 300.84 225.61 296.57 230.34 295.92 233.5 293.48 236.93 297.82 239.86 294.1 244.08 291.4 246.62 293.78 244.7 307.61 250.27 304.35 254.92 303.91 Z" fill="#18213c" stroke="#52607a" stroke-width="1" id="IN-RJ" data-shapename="Rājasthān"/>
<path d="M 262.01 578.26 261.33 576 263.31 571.68 266.97 570.86 266.75 567.78 269.66 563.92 268.61 557.01 272.45 548.84 275.38 551.8 278.55 551.78 279.01 547.03 281.97 545.64 281.23 539 285.12 535.47 288.54 535.29 296.18 537.2 300.36 543.28 305.81 544.58 307.65 541.63 313.62 544.25 319.9 541.46 325.46 545.26 325.08 551.41 325.9 562.18 330.21 567.37 334.15 566.21 336.08 569.77 338.97 568.8 342.82 570.96 346.32 575.21 347.9 579.4 352.25 582.71 353.64 592.02 355.69 592.02 350.39 593.76 353.82 599.7 356.67 599.6 360.69 605.39 357.65 607.79 353.38 608.91 350.14 612.12 345.46 611.87 342.29 609.95 336.76 614.86 342.87 616.45 339.23 619.86 335.95 618.08 334.41 613.98 328.39 614.98 327.02 618.02 328.37 621.26 325.94 624.06 321.42 621.79 311.51 625.81 307.1 626.39 306.31 635.16 300.66 635.21 295.99 638.05 293.4 641.61 291.14 639.66 284.72 639.77 276.52 646.36 270.94 644.43 268.7 645.31 261.01 643.86 260.38 631.21 258.45 627.55 260.71 613.93 257.42 610.31 261 602.24 264.95 599.68 259.14 597.98 259.39 594.9 263.81 589.07 264.6 586.43 262.01 578.26 Z" fill="#18213c" stroke="#52607a" stroke-width="1" id="IN-TG" data-shapename="Telangāna"/>
<path d="M 334.03 708.61 332.9 710.78 327.67 709.31 325.27 714.31 319.89 716.47 311.85 714.82 309.97 720.62 304.73 723.43 297.65 721.4 290.36 724.22 289.61 729.89 286.41 733.99 283.96 734.18 280.03 730.49 280.59 727.78 286.29 724.66 288.92 718.76 288.58 716.27 283.69 713.82 284.11 707.86 278.95 707.91 276.93 706.08 276.95 700.47 271.96 699.31 260.44 705.19 257 700.7 251.87 700.42 249.11 703.72 246.77 701.71 251.14 696.62 256.21 695.89 260.74 692.43 260.75 689.51 257.81 687.54 250.99 687.51 245.81 690.04 246.01 685.43 241.17 680.25 243.46 674.59 244.16 668.37 250.39 668.41 251.43 661.77 248.58 659.58 248.21 651.91 249.28 644.35 252.31 643.03 261.01 643.86 268.7 645.31 270.94 644.43 276.52 646.36 284.72 639.77 291.14 639.66 293.4 641.61 295.99 638.05 300.66 635.21 306.31 635.16 307.1 626.39 311.51 625.81 321.42 621.79 325.94 624.06 328.37 621.26 327.02 618.02 328.39 614.98 334.41 613.98 335.95 618.08 339.23 619.86 342.87 616.45 336.76 614.86 342.29 609.95 345.46 611.87 350.14 612.12 353.38 608.91 357.65 607.79 360.69 605.39 356.67 599.6 353.82 599.7 350.39 593.76 355.69 592.02 357.89 590.42 363.92 591.41 369.78 591.33 380.08 584.81 389 584.76 390.01 574.31 392.64 571.29 396.4 576.36 400.33 576.96 401.5 573.8 405.52 576.36 407.65 571.21 406.41 569.41 410.07 564.43 412.17 565.55 417.1 562.83 414.62 558.55 419.1 558.18 422.57 555.73 427.45 557.92 429.01 562.39 434.96 565.01 441.4 564.39 444.31 559.29 448.98 554.8 453.22 556.28 442.35 570.91 434.84 578.69 426.31 582.81 421.51 586.12 415.63 594.02 410.73 598.64 399.18 604.34 391.12 609.87 387.56 613.83 389.16 618.22 388.2 626.33 372.53 633.37 366.98 632.04 362.48 632.94 359.09 636.11 357.35 642.55 353.45 646.46 353.65 648.6 349.28 649.91 347.64 645.61 343.89 645.21 336.08 648.68 330.18 659.23 328.16 667.13 329.86 676.37 332.11 680.68 330.39 690.47 330.7 695.23 333.67 702.83 334.03 708.61 Z" fill="#18213c" stroke="#52607a" stroke-width="1" id="IN-AP" data-shapename="Andhra Pradesh"/>
<path d="M 652.03 423.91 653.58 418.7 653.79 411.53 652.75 408.67 656.2 408.54 658.89 410.96 663.28 405.67 671.74 403.98 672.57 406.03 671.27 412.59 675.94 414.45 680.15 414.54 681.98 418.15 682.87 425 681.17 436.03 681.49 441.02 679.98 444.02 674.86 443.58 675.47 447.49 674 450.42 676.41 461.29 676.78 466.22 672.63 467.83 671.36 472.64 669.26 474.12 664.27 469.27 660.84 473.27 660.46 464.98 658.46 452.42 654.97 446.89 655.61 438.03 652.03 423.91 Z" fill="#18213c" stroke="#52607a" stroke-width="1" id="IN-MZ" data-shapename="Mizoram"/>
<path d="M 730.72 337.26 729.68 326.89 736.53 323.97 736.64 321.61 749.61 318.77 751.5 316.82 745.6 310 745.09 305.33 750.26 299.06 740.56 299.3 738.3 301.5 732.7 301.9 720.6 306.11 710.25 311.26 703.67 309.92 703.03 313.14 692.87 323.39 689 328.81 684.47 329.72 680.06 329.01 672.08 330.4 668.5 327.83 662.95 326.88 660.46 329.03 656.86 329.05 647.97 331.04 645.75 325.51 646.88 319.58 645.48 314.18 635.85 313.43 633.44 310.4 636.3 302.24 640.5 303.72 641.83 306.29 646.52 305.17 649.19 302.84 653.19 304.57 659.9 303.33 664.64 298.28 662.62 296.07 665.8 292.43 672.13 288.94 676.69 288.4 680.37 278.87 684.7 277.35 687.65 278.2 693.93 276.65 696.32 277.57 697.93 272.6 702.18 269.16 703.77 265.24 709.51 260.9 712.86 260.84 714.73 257.2 720.5 262.25 731.2 264.49 735.42 266.8 739.04 263.93 740.08 261.21 745.17 257 749.92 256.21 753.2 253.76 757.25 260.47 755.02 266.26 757.07 270.02 760.22 266.9 764.83 268.95 767.13 274.03 766.53 276.35 761.61 281.16 760.81 286.24 768.59 284.1 771.49 286.87 774.79 286.53 777.37 288.64 779.92 287.03 787.38 291.4 786.21 293.29 788 297.18 787.46 300.67 784.23 300.91 778.13 305.68 774.61 309.75 774.97 314.33 781.85 323.57 778.71 324.6 774.5 321.07 772.14 317.52 767.08 316.93 764.9 319.3 759.17 319.06 751.62 322.47 749.59 326.3 745.62 327.88 744.26 330.91 738.92 332.72 735.93 336.74 730.72 337.26 Z" fill="#18213c" stroke="#52607a" stroke-width="1" id="IN-AR" data-shapename="Arunāchal Pradesh"/>
<path d="M 656.27 385.95 647.16 381.43 634.47 381.73 631.56 382.87 625.51 380.76 615.03 382.14 605.51 381.88 594.96 380.25 587.05 375.98 588.13 373.12 592.06 369.65 589.18 365.25 592.65 360.52 604.6 357.16 608.73 359.81 610.74 358.86 617.35 359.36 618.53 362.6 627.03 362.7 631.71 360.51 633.62 356.69 640.23 354.01 643.25 357.14 650.51 355.36 649 362.85 650.74 366.14 656.77 365.7 660.2 372.44 664.18 375.71 665.57 380.97 658.91 382.85 656.27 385.95 Z" fill="#18213c" stroke="#52607a" stroke-width="1" id="IN-ML" data-shapename="Meghālaya"/>
<path d="M 415.18 412.99 419.78 400.67 425.49 401.31 431.17 400.03 432.89 397.38 435.82 402.06 439.81 400.41 442.01 404.52 447.13 405.38 452.8 401.52 457.24 405.1 461.81 405.12 467.98 400.83 477.37 398.01 478.98 392.05 483.83 394.27 487.42 393.25 489.26 398.16 493.51 398.84 493.28 402.4 498.34 404.87 499.65 400.38 506.82 398.01 513.82 398.24 514.55 393.31 516.62 390.29 516.33 386.25 520.9 381.1 526.85 378.2 531.32 379.27 533.56 384.26 537.85 387.66 535.11 393.77 536.55 398.91 533.74 399.6 533.75 403.99 530.61 408.79 524.11 416.47 518.68 415 520.17 419.03 515.71 421.85 509.51 420.48 507.14 424.96 498.96 426.44 495.72 429.24 494.18 432.97 489.89 431.42 482.67 430.98 481.18 437.11 483.15 440.37 486.59 440.68 491.87 445 499.13 445.06 497.15 450.29 499.29 452.98 506.26 457.05 508.37 462.09 505.23 467.34 498.9 463.66 495.71 463.7 493.1 460.88 485.25 459.05 486.79 468.1 483.63 473.84 479.52 471.3 473.9 470.97 469.29 468.93 465.13 472.13 460.24 468.89 462.09 465.14 460.96 459.62 457.05 461.44 453.06 460.75 445.53 461.86 443.56 463.62 438.16 462.72 436.73 460.03 433.19 458.47 433.59 456.58 439.26 453.71 443.07 445.76 436.84 445.12 433.8 440.22 434.93 435.24 432.13 434.27 431.29 428.43 426.91 427.21 425.99 422.88 421.11 418.9 417.95 413.5 415.18 412.99 Z" fill="#18213c" stroke="#52607a" stroke-width="1" id="IN-JH" data-shapename="Jhārkhand"/>
<path d="M 729.68 326.89 724.96 330.17 720.96 330.54 719.21 333.77 713.84 335.71 708.69 339.39 708.49 341.67 702.56 344.74 702.56 347.46 699.27 350.08 696.79 358.35 692.38 362.87 690.11 361.82 686.73 364.62 680.91 371.43 683.57 374.08 683.54 377.3 678.06 386.28 678.1 389.3 674.45 392.64 673.87 399.27 671.74 403.98 663.28 405.67 658.89 410.96 656.2 408.54 652.75 408.67 650.61 401.28 652.84 394.51 658.16 389.67 656.27 385.95 658.91 382.85 665.57 380.97 664.18 375.71 660.2 372.44 656.77 365.7 650.74 366.14 649 362.85 650.51 355.36 643.25 357.14 640.23 354.01 633.62 356.69 631.71 360.51 627.03 362.7 618.53 362.6 617.35 359.36 610.74 358.86 608.73 359.81 604.6 357.16 592.65 360.52 589.18 365.25 592.06 369.65 588.13 373.12 588.87 368.71 587.61 365.81 587.97 359.13 584.55 352.55 584.56 349.85 588.51 344.04 588.06 336.82 597.14 334.55 603.07 330.67 610.36 334.64 621.08 333.11 627.43 334.35 637.6 333.42 642.16 330.24 646.49 332.38 647.97 331.04 656.86 329.05 660.46 329.03 662.95 326.88 668.5 327.83 672.08 330.4 680.06 329.01 684.47 329.72 689 328.81 692.87 323.39 703.03 313.14 703.67 309.92 710.25 311.26 720.6 306.11 732.7 301.9 738.3 301.5 740.56 299.3 750.26 299.06 745.09 305.33 745.6 310 751.5 316.82 749.61 318.77 736.64 321.61 736.53 323.97 729.68 326.89 Z" fill="#18213c" stroke="#52607a" stroke-width="1" id="IN-AS" data-shapename="Assam"/>
<path d="M 683.54 377.3 688.4 379.09 695.06 370.25 699.29 369.94 703.88 372.43 712.76 369.5 712.69 372.08 715.92 373.76 713.7 381.19 717.53 382.86 716.93 388.71 714.67 393.94 710.06 399.48 704.89 411.14 702.16 420.35 698.45 418.06 693.23 418.16 691.5 415.78 684 416.97 680.15 414.54 675.94 414.45 671.27 412.59 672.57 406.03 671.74 403.98 673.87 399.27 674.45 392.64 678.1 389.3 678.06 386.28 683.54 377.3 Z" fill="#18213c" stroke="#52607a" stroke-width="1" id="IN-MN" data-shapename="Manipur"/>
<path d="M 171.01 651.43 173.22 648.49 176.04 648.77 179.3 643.03 181.22 635.62 177.17 634.24 175.88 627.23 180.84 624.43 182.95 626.54 186.1 624.77 188.34 621.1 192.25 620.49 192.35 615.87 196.03 615.81 199.21 618.53 201.8 615.4 212.32 612.38 210.39 605.72 211.16 600.95 219.14 605.24 224.05 603.91 231.05 605.47 230.56 599.9 234.96 593.13 239.2 595.15 241.44 589.81 245.3 588.03 246.13 581.15 251.11 580.61 253.81 574.89 256.77 573.91 259.26 578.87 262.01 578.26 264.6 586.43 263.81 589.07 259.39 594.9 259.14 597.98 264.95 599.68 261 602.24 257.42 610.31 260.71 613.93 258.45 627.55 260.38 631.21 261.01 643.86 252.31 643.03 249.28 644.35 248.21 651.91 248.58 659.58 251.43 661.77 250.39 668.41 244.16 668.37 243.46 674.59 241.17 680.25 246.01 685.43 245.81 690.04 250.99 687.51 257.81 687.54 260.75 689.51 260.74 692.43 256.21 695.89 251.14 696.62 246.77 701.71 249.11 703.72 251.87 700.42 257 700.7 260.44 705.19 271.96 699.31 276.95 700.47 276.93 706.08 278.95 707.91 284.11 707.86 283.69 713.82 288.58 716.27 288.92 718.76 286.29 724.66 280.59 727.78 280.03 730.49 275.93 728.34 269.56 727.51 267.01 732.87 263.27 733.03 263.65 741.34 259.91 745.5 266.69 746.21 267.91 747.87 265.13 752.51 260.46 752.72 258.74 757.45 255.19 756.31 250.33 757.27 244.96 756.68 242.7 761.75 235.92 761.46 232.32 760.17 225.84 754.6 223.87 751.71 217.7 752.52 215.62 750.13 209.68 746.88 205.94 743.15 204.25 738.2 200.22 735.72 198.65 732.88 190.93 730.49 189.74 728.12 186.37 714.53 185.94 708.93 184.03 700.55 181.53 697.08 180.32 691.58 175.37 678.25 171.01 675.22 170.15 672.07 174.57 670.48 176.29 664.3 174.88 652.43 171.01 651.43 Z" fill="#18213c" stroke="#52607a" stroke-width="1" id="IN-KA" data-shapename="Karnātaka"/>
<path d="M 328.64 272.72 325.7 276.17 322.83 271.6 319.14 272.59 311.69 271.82 301.75 263.02 298.47 264.2 294.99 257.91 298.43 254.6 290.28 250.82 287.6 245.9 282.8 243.54 277.36 247.94 269.4 247.46 266.57 241.76 268.59 234.65 272.42 229.99 262.67 225.14 269.09 221.73 268.27 217.19 266.05 213.81 267.39 207.66 271.48 201.79 274.69 201.48 283.72 197.69 286.73 200.4 295.02 200.48 297.51 203.56 300.04 201.18 297.28 197.68 302.96 192.56 308.85 202.35 316.34 208.44 323.09 207.29 325.12 210.27 333.52 214.46 332.47 219.26 341.26 223.57 343.01 222.85 348.22 227.41 354.28 229.76 342.87 238.64 341.59 241.93 337.71 243.62 337.77 249.62 333.41 254.18 335.34 258.28 333.77 262.08 330.75 264.67 328.64 272.72 Z" fill="#18213c" stroke="#52607a" stroke-width="1" id="IN-UT" data-shapename="Uttarākhand"/>
<path d="M 146.95 526.93 142.85 527.53 140.35 524.44 143.97 523.9 146.95 526.93 Z" fill="#18213c" stroke="#52607a" stroke-width="1" id="IN-DH" data-shapename="Dādra and Nagar Haveli and Damān and Diu"/>
<path d="M 344.41 492.53 338.11 489.5 334.08 484.51 323.29 486.93 320.08 484.87 315.82 486.63 313.56 482.85 306.26 482.31 302.44 484.8 298.2 485.22 297.74 487.8 285.56 487.74 284.69 484.71 279.83 486.31 276.08 489.38 271.44 491.29 260.38 491.3 259.45 486.28 262.82 486.28 260.72 480.8 250.83 481.47 244.68 485.07 237.36 492.59 237.41 496.77 233.94 496.53 230.69 499.97 225.97 499.57 223.43 491.48 204.09 490.76 197.24 488.88 195.75 485.91 183.31 483.11 181.27 481.36 181.38 475.81 178.22 472.92 175.33 475.46 171.77 474.89 170.51 473.56 171.12 467.46 173.58 460.9 169.84 459.86 175.23 455.03 178.06 455.02 180.2 450.13 176.48 443.08 180.18 442.49 185.09 439.8 181.53 435.74 183.12 432.64 190.14 428.98 192.7 426.71 191.8 419.62 192.78 414.38 187.61 402.32 188.73 398.91 194.18 395.77 190.7 392.7 195.66 391.2 199.49 385.83 203.28 388.46 200.1 392.59 200.44 395.06 211.51 396.01 214.45 393.78 218.63 399.3 218.48 402.72 214 404.99 216.07 409.01 214.32 411.65 216.57 414.29 212.99 416.91 208.2 415.23 206.56 418.25 209.85 421.89 220.56 417.66 219.92 415.4 224.26 413.39 224 410.31 229.9 408.86 234.27 410.05 237.23 408.46 242.15 412.56 245.07 409.03 243.2 406.57 243.33 401.8 246.81 402.54 249.12 397.22 242.95 391.55 244.12 385.6 249.57 385.11 252.03 383.54 257.36 383.75 258.38 380.36 256.19 374.3 252.94 377.85 241.51 377.58 237.42 375.78 234.58 371.35 234.94 363 237.91 360.16 241.86 359.12 244.78 354.7 252.8 350.65 259 345.53 261.27 345.41 269.46 340.85 273.92 336.89 276.44 337.3 279.81 332.86 284.38 333.26 289.07 335.22 293.03 333.88 300.08 339.91 303.67 347.2 300.26 353.13 300.73 354.99 294.14 365.7 295.42 368.61 291.35 370.4 286.98 369.85 282.07 375.65 285.22 382.53 282.76 386.96 278.5 390.35 281.24 396.66 281.05 402.95 287.21 404.6 294.83 410.8 297.44 409.35 300.24 403.66 297.16 397.26 293.84 398.49 294.84 392.34 290.65 387.94 291.2 385.33 288.03 378 290.01 374.66 296.21 371.79 297.24 375.51 304.63 383.66 308.72 382.83 307.58 377.74 312.26 379.65 310.59 382.63 313.44 384.48 316.32 383.07 323.37 382.69 322.97 380.17 327.05 378.99 332.11 375.04 335.28 375.42 338.36 381.61 337.32 384.95 343.45 384.21 347.23 385.27 349.12 388.91 357.88 388.12 362.29 381.86 365.04 382.99 368.76 381.23 369.89 384.18 377.49 387.39 377.37 389.77 390.7 396.12 394.22 397.1 397.72 395.66 400.31 398.39 398.84 404.89 400.42 407.01 399.36 413.66 401.41 417.02 396.77 420.65 392.63 421.57 382.1 421.27 380.13 419.95 373.92 421.27 370.86 418.37 369.6 428.83 377.9 429.48 379.68 432.78 385.22 435.81 383.27 441.85 377.99 443.19 378.62 445.34 372.74 454.15 364.76 459.8 360.88 459.13 356.37 461.01 356.57 465.2 350.98 470.4 348.23 480.83 345.9 482.83 346.4 488.95 344.41 492.53 Z" fill="#18213c" stroke="#52607a" stroke-width="1" id="IN-MP" data-shapename="Madhya Pradesh"/>
<path d="M 159.27 649.36 166.25 648.93 167.63 652.54 171.01 651.43 174.88 652.43 176.29 664.3 174.57 670.48 170.15 672.07 167.39 667.89 163.88 656.92 161.72 655.59 159.27 649.36 Z" fill="#18213c" stroke="#52607a" stroke-width="1" id="IN-GA" data-shapename="Goa"/>
<path d="M 208.61 759.43 208.45 759.15 201.02 750.87 199.74 750.87 190.93 730.49 198.65 732.88 200.22 735.72 204.25 738.2 205.94 743.15 209.68 746.88 215.62 750.13 217.7 752.52 223.87 751.71 225.84 754.6 232.32 760.17 227.08 762.84 227.91 765.18 235.41 768.49 235.04 773.17 239.63 771.75 240.69 774.6 238.44 780.08 242.91 781.68 244.84 784.61 243.12 789.08 242.89 796.98 246.96 799.17 252.06 795.49 255.04 798.89 252.81 802.76 252.65 815.52 257.98 818.69 254.9 824.18 254.5 827.9 252 832.25 254.4 836.26 252.09 839.4 254.68 844.42 249.99 850.99 247.5 848.94 235.41 834.63 229.91 821.02 227.81 808.33 223.98 796.15 218.51 783.76 216.39 775.03 212.43 766 208.61 759.43 Z" fill="#18213c" stroke="#52607a" stroke-width="1" id="IN-KL" data-shapename="Kerala"/>
<path d="M 243.1 214.14 242.87 216.41 241.48 216.74 239.75 213.92 243.1 214.14 Z" fill="#18213c" stroke="#52607a" stroke-width="1" id="IN-CH" data-shapename="Chandīgarh"/>
<path d="M 695.1 888.15 691.79 889.16 688.91 884.29 689.06 880.82 693.24 879.22 696.2 885.22 695.1 888.15 Z M 657.31 790.71 655.16 787.06 657.23 781.93 659.81 781.88 660.84 786.16 657.31 790.71 Z M 665.03 750.53 665.83 753.15 664.91 761.72 662.12 764.08 659.61 758.72 661.41 748.8 665.03 750.53 Z M 667.25 740.19 663.53 742.24 664.14 728.72 669.5 727.14 670.81 736.45 667.25 740.19 Z M 669.45 709.4 672.61 710.22 671.42 715.41 672.97 717.64 672.39 721.76 669.37 722.39 666.03 726.32 666.88 715.04 669.45 709.4 Z" fill-rule="evenodd" fill="#18213c" stroke="#52607a" stroke-width="1" id="IN-AN" data-shapename="Andaman and Nicobar Islands"/>
<path d="M 262.67 225.14 262.92 225.68 252.9 222.77 251.67 216.1 247.94 214.59 245.14 209.91 241.48 209.52 237.45 206.6 236.36 198.01 232.33 196.43 226.56 197.29 221.02 185.61 218.04 176.66 210.31 172.56 211.31 167.58 214.87 166.38 218.79 162.03 216.5 159.43 218.66 156.25 219.67 148.04 227.45 143.36 231.76 138.14 235.93 137.39 240.69 138.37 241.33 136.14 246.65 144.03 251.37 144.73 255.95 148.74 259.83 148.51 266.3 144.59 268.39 148.6 272.15 151.59 274.32 156.03 279.72 154.62 284.18 151.71 284.47 158.99 288.08 162.49 286.63 166.91 290.03 168.77 290.15 171.79 294.61 175.68 292.66 182.59 296.35 187.7 293 190.83 295.05 192.82 294.89 197.13 297.28 197.68 300.04 201.18 297.51 203.56 295.02 200.48 286.73 200.4 283.72 197.69 274.69 201.48 271.48 201.79 267.39 207.66 266.05 213.81 268.27 217.19 269.09 221.73 262.67 225.14 Z" fill="#18213c" stroke="#52607a" stroke-width="1" id="IN-HP" data-shapename="Himāchal Pradesh"/>
<path d="M 171.42 76.61 174.59 78.88 181.54 77.02 183.92 82.84 187.21 85.38 193.27 86.88 197.11 83.43 200.87 86.88 201.12 92.91 204.02 94.99 205.1 103.12 212.67 106.05 213.94 110.44 217.96 113.26 221.6 113.19 227.86 120.27 228.9 126.05 234.33 127.87 241.33 136.14 240.69 138.37 235.93 137.39 231.76 138.14 227.45 143.36 219.67 148.04 218.66 156.25 216.5 159.43 212.59 163.24 207.16 165.44 203.18 165.24 194.9 160.8 193.11 161.49 186.12 160.24 184.36 151.63 177.25 151.52 172.58 147.75 167.66 146.15 157.93 140.52 158.78 137.47 156.16 132.39 157.81 125.85 156.28 122.61 156.99 115.96 155.04 112.25 154.42 105.22 152.2 99.87 153.09 94.13 157.74 93.47 160.74 87.49 166.91 85.22 169.82 82.05 171.42 76.61 Z" fill="#18213c" stroke="#52607a" stroke-width="1" id="IN-JK" data-shapename="Jammu and Kashmīr"/>
<path d="M 181.85 239.08 165.09 238.13 167.15 231.25 164.8 226.07 166.91 222.45 173.69 216.02 177.7 209.8 182.4 205.56 181.4 202.48 182.56 195.2 184.75 191.53 182.06 185.53 184.2 178.93 189.59 176.76 191.19 173.79 194.71 174.35 200.88 172.35 204.2 167.39 203.18 165.24 207.16 165.44 212.59 163.24 216.5 159.43 218.79 162.03 214.87 166.38 211.31 167.58 210.31 172.56 218.04 176.66 221.02 185.61 226.56 197.29 232.33 196.43 236.36 198.01 237.45 206.6 241.48 209.52 243.1 214.14 239.75 213.92 241.48 216.74 242.87 216.41 245.44 218.59 244.39 224.14 241.27 224.11 237.34 229.2 237.82 232.67 235.15 235.04 227.61 233.6 225.81 240.61 222.04 245.19 217.45 244.99 213.49 243.03 211.2 244.81 206.47 243.92 203.55 246.61 202.59 250.74 199.24 248.68 199.46 242.18 194.14 241.37 189.24 237.57 183.69 240.01 181.85 239.08 Z" fill="#18213c" stroke="#52607a" stroke-width="1" id="IN-PB" data-shapename="Punjab"/>
<path d="M 256.55 282.5 260.06 285.34 261.15 290.65 260.68 296.18 261.84 299.34 254.92 303.91 250.27 304.35 244.7 307.61 246.62 293.78 244.08 291.4 239.86 294.1 236.93 297.82 233.5 293.48 230.34 295.92 225.61 296.57 225.35 300.84 220.13 302.38 219.26 300.52 222.76 292.98 219.02 287.14 216 285.62 209.27 279.48 207.56 272.11 208.18 267.67 204.75 265.88 205.3 260.41 203.41 259.25 196.39 260.81 192.75 256.79 183.98 256.97 183.14 250.76 184.21 244.9 181.85 239.08 183.69 240.01 189.24 237.57 194.14 241.37 199.46 242.18 199.24 248.68 202.59 250.74 203.55 246.61 206.47 243.92 211.2 244.81 213.49 243.03 217.45 244.99 222.04 245.19 225.81 240.61 227.61 233.6 235.15 235.04 237.82 232.67 237.34 229.2 241.27 224.11 244.39 224.14 245.44 218.59 242.87 216.41 243.1 214.14 241.48 209.52 245.14 209.91 247.94 214.59 251.67 216.1 252.9 222.77 262.92 225.68 262.95 227.67 258.13 234.6 254.95 236.02 251.28 244.3 249.95 252 250.93 253.1 250.94 261 253.57 270.24 252.96 272.08 249.01 271.69 245.97 273.9 246.54 276.87 243.22 281.2 250.6 283.01 252.02 285.77 256.55 282.5 Z" fill="#18213c" stroke="#52607a" stroke-width="1" id="IN-HR" data-shapename="Haryāna"/>
</g>
</svg>