<?xml version="1.0"?>
<svg xmlns="http://www.w3.org/2000/svg" version="1.2" baseProfile="tiny" width="800" height="685" viewBox="0 0 800 685" stroke-linecap="round" stroke-linejoin="round">
<g id="JPN-ADM1">
<path d="M 323.59 367.13 324.87 365.95 323.81 363.46 324.43 361.25 322.04 358.91 322.69 356.52 322.95 357.59 327.68 358.83 330.3 360.98 332.06 363.89 331.62 364.67 329.74 369.98 330.53 373.56 329.69 376.66 325.54 377.28 323.08 378.3 319.63 378.74 318.02 379.82 315.73 378.81 319.04 377.69 322.43 374.28 324.61 369.02 323.59 367.13 Z" fill="#18213c" stroke="#52607a" stroke-width="1" id="JP-27" data-shapename="Osaka Prefecture"/>
<path d="M 218.09 399.72 224 401.08 225.91 398.13 228.06 397.49 229.96 398.16 231.93 401.43 231.9 404.28 229.51 407.01 225.79 408.08 226.23 410.23 228.02 410.85 230.43 409.89 233.57 411 235.03 412.3 233.66 414.07 235.1 415.95 235.65 418.48 237.41 419.84 238.03 422.31 235.56 425.78 234.89 423.55 231.81 423.25 231.19 424.99 227.62 425.54 225.03 423.25 222.53 424.07 221.65 423.19 219.75 421.26 218.82 416.6 216.34 412.89 214.39 412.43 212.87 414.02 214.02 415.61 213.19 417.51 209.41 415.12 210.6 412.65 209.04 410.65 210.79 404.89 212.85 403.06 217.49 403.02 218.09 399.72 Z" fill="#18213c" stroke="#52607a" stroke-width="1" id="JP-44" data-shapename="Oita"/>
<path d="M 304.94 379.86 306.63 378.19 308.87 374.05 312.8 370.15 314.05 370.8 310.78 375.64 310.8 377.62 312.22 380.17 308.4 382.22 306.64 382.52 304.94 379.86 Z M 322.69 356.52 322.04 358.91 324.43 361.25 323.81 363.46 324.87 365.95 323.59 367.13 321.81 366.26 318.25 367.57 317.92 368.4 314.7 369.34 312.72 368.75 307.03 364.94 304.93 364.49 302.66 365.28 299.82 364.5 298.68 366.22 296.45 366.38 296.34 363.94 294.73 362.42 295.78 360.83 294.77 359.55 296.38 355.36 297.17 355.13 298.48 350.54 301.29 349.43 301.26 347.1 299.41 344.35 299.05 341.32 297.66 339.08 301.9 337.36 303.87 338.32 304.81 337.52 310.1 337.74 309.75 339.86 312.5 342.15 314.16 341.36 314.64 345.43 311.48 345.94 311.53 348.38 314.8 349.98 317.35 349.93 318.56 353 323.19 354.04 322.69 356.52 Z" fill-rule="evenodd" fill="#18213c" stroke="#52607a" stroke-width="1" id="JP-28" data-shapename="Hyogo Prefecture"/>
<path d="M 325.57 340.82 326.27 342.73 329.06 343.17 331.84 342.79 334.25 341.5 334.8 339.52 337.86 338.68 337.61 335.36 340.91 334.04 338.33 330.69 337.37 327.94 339.34 323.95 342.66 319.4 344.51 318.06 345.94 319.21 347.36 322.09 349.42 322.95 352.4 322.46 355.26 325.12 357.26 324.53 356.57 327.32 358.13 328.78 359.21 331.54 358.14 333.39 355.06 333.83 353.39 333.42 350.82 334.43 347.82 333.52 345.43 337.72 342.18 336.51 342.84 339.69 341.36 340.22 338.52 342.88 336.52 342.92 335.67 345.57 333.75 345.26 332.63 347.02 330.93 347.4 326.83 346.38 324.87 343.57 325.57 340.82 Z" fill="#18213c" stroke="#52607a" stroke-width="1" id="JP-18" data-shapename="Fukui Prefecture"/>
<path d="M 332.63 347.02 333.75 345.26 335.67 345.57 336.52 342.92 338.52 342.88 341.36 340.22 342.84 339.69 342.18 336.51 345.43 337.72 346.84 341.06 348.55 342.19 349.52 345.99 348.18 349.04 348.79 351.25 349.71 352.83 348.94 357.9 347.56 360.81 344.67 362.24 342.55 361.32 340.67 363.63 338.96 364.26 336.9 361.3 335.07 361.2 335.26 359.28 334.32 357.87 334.83 353.21 334.6 349.75 332.63 347.02 Z" fill="#18213c" stroke="#52607a" stroke-width="1" id="JP-25" data-shapename="Shiga"/>
<path d="M 329.69 376.66 330.53 373.56 329.74 369.98 331.62 364.67 332.33 366.18 334.68 366.87 336.31 365.41 338.89 366.78 339.79 365.87 340.57 367.79 339.71 370.73 342.96 372.61 343.56 374.67 341.65 374.77 340.14 376.32 341.7 380.63 340.71 386.78 338.5 387.94 336.57 388.8 336.13 390.7 335.43 390.97 335.28 392.41 334.86 392.06 332.31 391.7 328.84 390.13 329.38 388.69 326.9 385.97 329.61 381.63 330.23 379.74 329.69 376.66 Z" fill="#18213c" stroke="#52607a" stroke-width="1" id="JP-29" data-shapename="Nara Prefecture"/>
<path d="M 345.43 337.72 347.82 333.52 350.82 334.43 353.39 333.42 355.06 333.83 358.14 333.39 359.21 331.54 358.13 328.78 356.57 327.32 357.26 324.53 359.68 319.41 358.21 317.94 361.09 316.02 363.47 318.32 365.06 315.57 367.52 313.12 370.37 312.79 371.37 314.05 376.19 314.07 378.09 315.12 379.72 317.23 378.31 319.68 378.18 322.13 377.18 323.8 378.65 324.79 378.17 326.99 376.99 327.73 375.32 330.47 372.93 330.52 371.8 333.39 374.9 334.56 377.04 337.96 376.25 339.28 379.13 342.38 378.23 344.23 378.43 347.79 377.45 349.06 374.29 351.04 371.16 349.09 368.07 350.17 365.96 348.68 364.11 346.4 362.43 345.7 359.26 347.02 357.73 346.61 355.36 350.5 355.23 353.79 353.8 353.33 351.18 350.61 348.79 351.25 348.18 349.04 349.52 345.99 348.55 342.19 346.84 341.06 345.43 337.72 Z" fill="#18213c" stroke="#52607a" stroke-width="1" id="JP-21" data-shapename="Gifu Prefecture"/>
<path d="M 338.96 364.26 340.67 363.63 342.55 361.32 344.67 362.24 347.56 360.81 348.94 357.9 349.71 352.83 348.79 351.25 351.18 350.61 353.8 353.33 355.23 353.79 357.16 355.46 357.67 357.25 356.9 356.91 354.54 359.25 354.58 360.83 352.1 364.62 351.47 367.45 352 369.41 354.59 370.43 361.51 375.65 358.21 379.53 355.16 378.92 349.79 380.91 345.48 383.31 344.33 385.55 345.21 389.07 340.36 392.47 338.7 396.56 337.48 396.53 334.81 393.68 334.86 392.06 335.28 392.41 335.43 390.97 336.13 390.7 338.71 389.24 338.5 387.94 340.71 386.78 341.7 380.63 340.14 376.32 341.65 374.77 343.56 374.67 342.96 372.61 339.71 370.73 340.57 367.79 339.79 365.87 338.96 364.26 Z" fill="#18213c" stroke="#52607a" stroke-width="1" id="JP-24" data-shapename="Mie Prefecture"/>
<path d="M 315.73 378.81 318.02 379.82 319.63 378.74 323.08 378.3 325.54 377.28 329.69 376.66 330.23 379.74 329.61 381.63 326.9 385.97 329.38 388.69 328.84 390.13 332.31 391.7 334.86 392.06 334.81 393.68 337.48 396.53 338.7 396.56 335.74 402.09 332.65 403.91 326.37 402.63 323.52 400.91 323.25 396.82 318.32 393.86 317.28 392.03 315.49 390.95 315.6 386.06 317.1 382.72 315.57 380.35 315.73 378.81 Z M 336.13 390.7 336.57 388.8 338.5 387.94 338.71 389.24 336.13 390.7 Z" fill-rule="evenodd" fill="#18213c" stroke="#52607a" stroke-width="1" id="JP-30" data-shapename="Wakayama Prefecture"/>
<path d="M 423.26 367.44 422.12 365.05 424.3 364.91 423.26 367.44 Z M 435.74 333.88 436.38 336.48 435.21 338.38 432.4 339.05 433.3 341.88 430.96 341.46 430.13 340 426.54 338.22 424.86 341.74 422.49 339.56 419.71 339.48 418.45 337.9 416.69 337.31 414.02 335.84 412 331.68 414 330.37 418.21 332.13 420.93 332.29 421.53 333.51 427.08 334.81 429.43 333.44 432.92 333.15 435.74 333.88 Z" fill-rule="evenodd" fill="#18213c" stroke="#52607a" stroke-width="1" id="JP-13" data-shapename="Tokyo"/>
<path d="M 218.09 399.72 217.49 403.02 212.85 403.06 210.79 404.89 209.04 410.65 210.6 412.65 209.41 415.12 206.78 413.64 204.82 414.98 202.84 414.79 198.77 418.15 199.05 416.65 197.31 414.03 196.91 412.12 199.48 410.34 201.97 406.9 201.23 404.79 199.47 405.8 197.87 405.52 195.29 403.88 189.41 404.18 191.58 402.97 191.55 401.08 193.58 398.88 195.74 400.87 198.32 399.97 198.46 397.61 199.73 396.37 199.55 394.43 201.64 391.62 204.21 391.74 205.61 390.22 211.81 390.86 213.25 392.73 213.89 396.29 215.93 399.73 218.09 399.72 Z" fill="#18213c" stroke="#52607a" stroke-width="1" id="JP-40" data-shapename="Fukuoka Prefecture"/>
<path d="M 435.74 333.88 432.92 333.15 429.43 333.44 427.08 334.81 421.53 333.51 420.93 332.29 418.21 332.13 414 330.37 412 331.68 410.71 332.14 406.63 330 406.22 327.65 407.63 326 411.69 324.48 414.91 322.49 414.81 321.57 416.64 318.43 419.28 319.54 422.82 319.63 424.77 321.28 430 320.78 430.6 321.02 431.61 324.41 432.81 324.39 433.76 327.28 435.91 331.39 435.74 333.88 Z" fill="#18213c" stroke="#52607a" stroke-width="1" id="JP-11" data-shapename="Saitama"/>
<path d="M 430.42 269.44 433.73 270.8 436.65 270.21 438.06 272.18 441.59 273.01 444.29 272.64 445.4 265.33 447.11 266.17 449.94 266.09 450.62 267.78 452.78 267.3 455.47 268.41 455.78 270.78 459.69 271.07 459.8 268.05 461.67 267.88 462.5 271.28 463.68 272.83 464.43 280.98 464.32 284.7 463.46 289.83 462.97 296.24 461.76 297.67 458.81 298.97 458.23 300.5 455.4 299.43 451.85 300.51 450 302.62 447.83 301.16 447.53 299.72 445.01 298.19 443.23 294.06 439.54 291.82 435.76 291.3 433.9 293.37 430.02 294.85 424.83 297.53 423.23 298.89 419.2 297.96 419.79 296.45 419.07 289.73 417.52 288.66 419.24 285.32 418.59 282.64 422.47 281.34 423.76 280.08 426.98 280.02 427.66 279.17 427.13 275.7 428.53 274.9 431.44 270.63 430.42 269.44 Z" fill="#18213c" stroke="#52607a" stroke-width="1" id="JP-07" data-shapename="Fukushima"/>
<path d="M 430.6 321.02 430 320.78 429.21 318.81 425.43 318.8 422.43 315.31 424.31 312.76 423.85 311.86 425.49 309.15 421.64 307.73 422.17 303.49 423.57 301.51 422.29 300.52 423.23 298.89 424.83 297.53 430.02 294.85 433.9 293.37 435.76 291.3 439.54 291.82 443.23 294.06 445.01 298.19 444.96 303.97 443.91 305.87 444.59 310.63 442.92 314.89 440.06 314.69 434.6 317.58 433.95 319.78 430.6 321.02 Z" fill="#18213c" stroke="#52607a" stroke-width="1" id="JP-09" data-shapename="Tochigi"/>
<path d="M 480.47 185.5 477.93 187.21 476.83 188.88 474.25 188.02 472.17 189.42 471.3 188.06 466.15 191.71 463.54 193.13 462.28 192.15 462.39 189.6 463.28 188.69 462.7 186.14 460.19 185.98 460.36 183.51 454.94 187.01 453.38 186.07 451.53 186.72 447.99 184.36 443.9 186.13 436.81 186.23 437.15 183.99 436.36 181.05 436.52 179.2 438.25 176.14 439.75 175 441.44 175.9 445.11 173.05 446.31 167.84 446.65 159.75 447.77 159.16 450 161.33 451.57 160.03 453.5 160.26 454.52 161.67 454.19 164.13 455.43 171.48 458.3 172.78 460.12 170.36 459.9 168.31 461.89 167.53 462.69 169.53 465.02 170.24 465.93 171.58 467.93 170.42 469.06 167.9 469.45 164.64 470.38 162.12 468.35 158.34 464.79 161.32 462.91 160.77 457.63 162.71 457.5 160.92 459.28 153.56 460.86 151.52 461.11 149.34 463.45 151.22 465.06 151.34 468.35 154.63 471.24 155.69 473.09 154.89 474.44 155.58 473.12 162.44 473.03 166.94 473.34 172.38 474 176.98 475.49 181.85 477.65 182.46 480.47 185.5 Z" fill="#18213c" stroke="#52607a" stroke-width="1" id="JP-02" data-shapename="Aomori"/>
<path d="M 189.41 404.18 195.29 403.88 197.87 405.52 199.47 405.8 201.23 404.79 201.97 406.9 199.48 410.34 196.91 412.12 197.31 414.03 193.98 413.29 191.98 415.84 193.51 419.5 190.99 418.97 186.91 416.05 186.96 413.52 183.85 412.71 183.8 411.08 182.39 409.53 183.19 408.05 185.08 406.11 183 404.73 184.19 402.68 187.09 402.43 187.61 404.59 189.41 404.18 Z" fill="#18213c" stroke="#52607a" stroke-width="1" id="JP-41" data-shapename="Saga Prefecture"/>
<path d="M 154.66 427.28 154.85 424.75 156.94 425.66 158.24 424.61 159.6 427.25 157.72 430.89 154.81 429.74 154.66 427.28 Z M 181.58 392.76 182.39 394.9 181.29 397.04 179.57 395.72 180.21 393.12 181.58 392.76 Z M 171.36 379.87 170.55 383.87 169.16 385.38 167.69 384.88 168.32 378.8 171.36 379.87 Z M 172.79 378.83 171.74 377.01 170.28 376.9 170.27 374.06 171.55 371.56 171.41 368.65 172.88 368.79 175.03 367.19 175.68 368.8 175.21 371.26 172.76 374.68 172.79 378.83 Z M 165.45 416.82 168 419.02 164.5 421.41 165.45 416.82 Z M 183.19 408.05 182.39 409.53 183.8 411.08 183.85 412.71 186.96 413.52 186.91 416.05 190.99 418.97 193.51 419.5 191.52 421.66 192.49 422.87 194.5 421.93 196.95 422.54 197.88 424.81 197.14 427.89 193.9 429.95 191.66 428.9 193.58 426.33 192.89 424.34 190.52 424.32 187.33 425.89 185.72 428.33 183.14 429.76 183.86 426.95 183.19 424.58 180.92 423.17 179.08 419.48 180.46 415.26 183.98 418.76 183.39 422.21 185.84 421.79 187.04 417.74 185.28 416.27 183.46 416.18 183.27 414.09 181.15 414.68 179.81 412.47 177.38 411.76 177.86 407.38 183.19 408.05 Z M 174.31 408.94 175.95 410.48 174.27 412.52 172.93 411.53 174.31 408.94 Z" fill-rule="evenodd" fill="#18213c" stroke="#52607a" stroke-width="1" id="JP-42" data-shapename="Nagasaki Prefecture"/>
<path d="M 221.65 423.19 222.53 424.07 225.03 423.25 227.62 425.54 231.19 424.99 231.81 423.25 234.89 423.55 235.56 425.78 232.48 428.38 230.46 431.84 231.52 433.41 229.73 434.55 225.16 449.76 224.78 453.28 225.63 454.19 224.71 457.23 224.97 458.65 223.44 460.15 222.73 464.42 219.76 466.05 217.42 463.68 218.55 460.21 217.63 458.53 214.19 457.78 213.79 455.25 210.34 453.29 210.84 451.17 208.82 449.59 207.85 447.39 206 446.14 206.43 444.89 209.85 444.92 212.78 444.3 213.47 442.86 215.93 441.91 214.46 440.25 216.21 438.12 214.51 435.8 213.59 433.37 214.71 430.48 219.2 425.84 219.86 423.63 221.65 423.19 Z" fill="#18213c" stroke="#52607a" stroke-width="1" id="JP-45" data-shapename="Miyazaki Prefecture"/>
<path d="M 188.45 438.84 187.79 437.35 189.57 432.71 191.45 431.7 193.32 432.03 193.37 434.33 193.9 436.26 190.44 441.41 188.74 442.27 187.6 440.67 188.45 438.84 Z M 194.77 436.2 193.53 434.52 196.32 432.56 199.8 432.42 197.96 436.43 194.77 436.2 Z M 209.41 415.12 213.19 417.51 214.02 415.61 212.87 414.02 214.39 412.43 216.34 412.89 218.82 416.6 219.75 421.26 221.65 423.19 219.86 423.63 219.2 425.84 214.71 430.48 213.59 433.37 214.51 435.8 216.21 438.12 214.46 440.25 215.93 441.91 213.47 442.86 212.78 444.3 209.85 444.92 206.43 444.89 203.98 443.26 198.48 444.31 197.44 442.9 200.22 438.96 200.64 437.04 202.78 434.88 202.02 431.95 204.27 430.02 202.34 429.37 203.45 426.77 203.45 423.85 199.5 420.37 198.77 418.15 202.84 414.79 204.82 414.98 206.78 413.64 209.41 415.12 Z" fill-rule="evenodd" fill="#18213c" stroke="#52607a" stroke-width="1" id="JP-43" data-shapename="Kumamoto"/>
<path d="M 154.75 579.68 154.34 581.27 152.58 582.34 151.42 580.99 154.75 579.68 Z M 160.83 569.77 160.66 566.68 162.7 566.4 162.58 568.35 164.37 569.9 163.09 572.69 161.82 572.94 160.83 569.77 Z M 168.76 554.83 176.12 552.03 178.3 549.89 179.17 551.81 176.86 554.67 174.98 554.93 173.45 558.93 171.46 559.51 170.68 558.01 167.03 556.05 168.76 554.83 Z M 199.79 499.42 197.83 495.33 201.26 493.01 205.21 495.32 204.78 497.51 202.97 499.29 199.79 499.42 Z M 206.43 444.89 206 446.14 207.85 447.39 208.82 449.59 210.84 451.17 210.34 453.29 213.79 455.25 214.19 457.78 217.63 458.53 218.55 460.21 217.42 463.68 215.08 464.02 213.85 466.75 215.89 467.47 215.05 470.54 213.84 470.52 212.9 472.75 210.26 474.41 206.4 475.84 208.49 467.35 207.31 464.75 205.88 463.68 205.88 460.93 204.32 461.09 204.03 459.04 206.14 459.28 207.29 460.83 208.99 457.9 208.29 456.63 204.92 455.85 201.26 462.83 202.53 467.75 204.9 469.26 204.41 471.65 201.67 472.41 199.91 469.84 193.85 469.55 193.66 467.03 196.41 462.42 196.33 457.94 192.58 453.9 194.03 450.51 193.45 445.65 194.72 444.09 197.44 442.9 198.48 444.31 203.98 443.26 206.43 444.89 Z M 191.47 441.59 193.25 441.98 192.5 445.19 191.25 444.11 191.47 441.59 Z M 212.34 495.42 210.2 496.21 210.28 492.64 212.25 489.03 211.96 487.42 213.49 483.45 215.5 483.51 214.79 488.68 212.49 492.3 212.34 495.42 Z" fill-rule="evenodd" fill="#18213c" stroke="#52607a" stroke-width="1" id="JP-46" data-shapename="Kagoshima Prefecture"/>
<path d="M 430 320.78 424.77 321.28 422.82 319.63 419.28 319.54 416.64 318.43 414.81 321.57 414.91 322.49 411.69 324.48 407.63 326 406.22 327.65 404.2 326.36 404.27 320.84 403.46 319.49 404.52 318.12 404.6 314.52 403.21 314.05 400.63 314.78 398.43 313.74 398.51 311.02 399.86 307.54 401.51 307.02 401.99 305.35 405.8 304.27 408.85 303.55 409.13 302.5 411.63 301.33 412.89 299.49 412.67 296.68 414.17 296.61 415.83 294.26 419.2 297.96 423.23 298.89 422.29 300.52 423.57 301.51 422.17 303.49 421.64 307.73 425.49 309.15 423.85 311.86 424.31 312.76 422.43 315.31 425.43 318.8 429.21 318.81 430 320.78 Z" fill="#18213c" stroke="#52607a" stroke-width="1" id="JP-10" data-shapename="Gunma"/>
<path d="M 331.62 364.67 332.06 363.89 330.3 360.98 327.68 358.83 322.95 357.59 322.69 356.52 323.19 354.04 318.56 353 317.35 349.93 314.8 349.98 311.53 348.38 311.48 345.94 314.64 345.43 314.16 341.36 312.5 342.15 309.75 339.86 310.1 337.74 311 338.59 315.55 335.23 319.19 334.2 321.07 336.48 318.6 340.67 320.64 342.11 324.7 340.52 325.57 340.82 324.87 343.57 326.83 346.38 330.93 347.4 332.63 347.02 334.6 349.75 334.83 353.21 334.32 357.87 335.26 359.28 335.07 361.2 336.9 361.3 338.96 364.26 339.79 365.87 338.89 366.78 336.31 365.41 334.68 366.87 332.33 366.18 331.62 364.67 Z" fill="#18213c" stroke="#52607a" stroke-width="1" id="JP-26" data-shapename="Kyoto Prefecture"/>
<path d="M 435.21 338.38 436.38 336.48 435.74 333.88 435.91 331.39 433.76 327.28 432.81 324.39 436.72 328.14 436.85 329.02 442.32 332.05 449.86 329.47 451.18 328.47 456.06 332.25 457.01 333.89 459.7 335.08 459.04 336.03 454.47 336.99 450.81 340.22 449.17 342.64 448.22 345.66 448.78 348.56 447.83 352.38 444.21 354.4 441.79 354.19 440.23 356.11 437.98 357.5 437.53 359.65 434.53 360.88 433.64 359.6 434.84 357.53 433.93 355.7 434.15 351.7 435.08 351.18 433.74 348.55 435.83 344.93 438.68 343.09 441.3 340.47 438.04 337.04 435.21 338.38 Z" fill="#18213c" stroke="#52607a" stroke-width="1" id="JP-12" data-shapename="Chiba"/>
<path d="M 432.81 324.39 431.61 324.41 430.6 321.02 433.95 319.78 434.6 317.58 440.06 314.69 442.92 314.89 444.59 310.63 443.91 305.87 444.96 303.97 445.01 298.19 447.53 299.72 447.83 301.16 450 302.62 451.85 300.51 455.4 299.43 458.23 300.5 456.65 304.14 456.31 306.67 454.72 309.43 453.68 312.45 453.91 316.04 452.48 317.97 453.24 323.43 455.16 328.03 459 334.55 459.7 335.08 457.01 333.89 456.06 332.25 451.18 328.47 449.86 329.47 442.32 332.05 436.85 329.02 436.72 328.14 432.81 324.39 Z" fill="#18213c" stroke="#52607a" stroke-width="1" id="JP-08" data-shapename="Ibaraki"/>
<path d="M 416.69 337.31 418.45 337.9 419.71 339.48 422.49 339.56 424.86 341.74 426.54 338.22 430.13 340 430.96 341.46 433.3 341.88 429.31 345.97 429.48 348.78 431.88 349.89 429.82 352.25 426.54 348.68 421.7 348.35 418.56 349.46 417.12 350.6 416.2 353.59 414.13 353.32 412.79 349.84 413.52 349.04 413.44 345.68 411.31 345.65 412.37 343.76 415.55 342.23 416.65 340.56 416.69 337.31 Z" fill="#18213c" stroke="#52607a" stroke-width="1" id="JP-14" data-shapename="Kanagawa"/>
<path d="M 249.54 383.65 248.02 381.41 250.41 381.24 249.54 383.65 Z M 266.82 355.64 270.14 356.15 271.46 357.72 270.76 360.86 271.97 363.08 273.03 369.57 274.77 372.16 274.58 373.72 274.19 375.42 272.58 377.1 270.23 375.91 266.6 376.68 263.8 378.31 258.45 378.87 257.23 381.03 254.44 382.16 252.01 382.4 250.82 377.72 248.36 377.29 246.74 377.85 244.37 380.35 244.55 381.88 242.34 381.32 240.55 377.43 240.13 374.1 239.72 372.2 241.26 371.22 242 366.55 247.77 363.97 251.86 364.15 253.79 362.74 255.54 359.41 257.5 358.12 259.94 354.99 262.17 355.6 263.42 354.94 266.82 355.64 Z" fill-rule="evenodd" fill="#18213c" stroke="#52607a" stroke-width="1" id="JP-34" data-shapename="Hiroshima"/>
<path d="M 297.66 339.08 299.05 341.32 299.41 344.35 301.26 347.1 301.29 349.43 298.48 350.54 296.44 351.74 293.25 352.13 291.77 349.25 286.67 347.77 283.86 350.18 282.13 348.21 278.33 347.35 277.61 350.06 273.71 354.21 270.14 356.15 266.82 355.64 267.23 351.21 271.18 349.72 271.52 346.47 271.13 344.72 268.97 343.21 269.53 341.09 271.48 343.64 273.46 344.05 274.59 342.76 278.17 341.62 282.9 342.58 292.23 341.66 295.27 340.69 297.66 339.08 Z" fill="#18213c" stroke="#52607a" stroke-width="1" id="JP-31" data-shapename="Tottori Prefecture"/>
<path d="M 266.82 355.64 263.42 354.94 262.17 355.6 259.94 354.99 257.5 358.12 255.54 359.41 253.79 362.74 251.86 364.15 247.77 363.97 242 366.55 241.26 371.22 239.72 372.2 240.13 374.1 238.16 375.74 237.77 377.93 234.2 379.1 232.78 378.04 231.24 375.29 230.8 372.4 231.41 370.6 230.68 367.62 232.09 367.78 234.66 366.69 235.14 365.55 238.18 363.11 241.03 359.58 244.2 356.99 246.16 356.17 248.81 352.29 254.56 348.58 255.25 345.76 254.58 344.49 259.19 342.45 262.79 341.98 265.13 340.01 269.53 341.09 268.97 343.21 271.13 344.72 271.52 346.47 271.18 349.72 267.23 351.21 266.82 355.64 Z M 269.47 322.02 268.05 320.56 268.11 318.44 269.22 317.03 271.79 317.51 272.89 318.65 271.89 321.85 269.47 322.02 Z" fill-rule="evenodd" fill="#18213c" stroke="#52607a" stroke-width="1" id="JP-32" data-shapename="Shimane"/>
<path d="M 430.42 269.44 431.44 270.63 428.53 274.9 427.13 275.7 427.66 279.17 426.98 280.02 423.76 280.08 422.47 281.34 418.59 282.64 419.24 285.32 417.52 288.66 419.07 289.73 419.79 296.45 419.2 297.96 415.83 294.26 414.17 296.61 412.67 296.68 412.89 299.49 411.63 301.33 409.13 302.5 408.85 303.55 405.8 304.27 405.14 303.17 405.73 300.64 402.98 298.33 402.55 295.43 399.78 295.49 398.31 296.21 395.81 300.61 393.73 300.22 391.21 300.81 390.09 302.24 388.49 301.53 389.18 299.5 385.27 298.73 385.35 300.06 383.9 302.41 382.47 303.41 381.71 300.06 379.28 296.73 386.25 294.18 389.59 292.12 390.95 290.64 394.24 290.61 399.31 286.02 402.33 284.13 405.16 279.32 407.11 277.05 408.79 271.33 410.38 269.48 415.2 266.16 418.46 265.13 422.63 261.41 424.66 257.01 424.83 251.94 427.1 246.98 428.4 247.97 431.45 248.79 431.04 251.63 433.81 253.27 435.87 255.28 434.85 257.29 433.06 258.48 430.46 259.13 430.72 262.78 429.38 265.05 429.36 268.39 430.42 269.44 Z M 396.9 258.27 399.12 256.51 400.98 256.94 399.28 260.93 400.44 262.62 402.7 262.63 400.88 266.96 397.39 269.96 395.13 269.41 396.26 264.54 394.18 265.34 394.23 262.63 396.9 258.27 Z" fill-rule="evenodd" fill="#18213c" stroke="#52607a" stroke-width="1" id="JP-15" data-shapename="Niigata"/>
<path d="M 377.45 349.06 378.43 347.79 378.23 344.23 379.13 342.38 376.25 339.28 377.04 337.96 374.9 334.56 371.8 333.39 372.93 330.52 375.32 330.47 376.99 327.73 378.17 326.99 378.65 324.79 377.18 323.8 378.18 322.13 378.31 319.68 379.72 317.23 378.09 315.12 379.32 313.92 380.6 309.77 382.03 308.28 382.47 303.41 383.9 302.41 385.35 300.06 385.27 298.73 389.18 299.5 388.49 301.53 390.09 302.24 391.21 300.81 393.73 300.22 395.81 300.61 398.31 296.21 399.78 295.49 402.55 295.43 402.98 298.33 405.73 300.64 405.14 303.17 405.8 304.27 401.99 305.35 401.51 307.02 399.86 307.54 398.51 311.02 398.43 313.74 400.63 314.78 403.21 314.05 404.6 314.52 404.52 318.12 403.46 319.49 404.27 320.84 404.2 326.36 406.22 327.65 406.63 330 404.84 331.03 397.67 328.08 395.49 331.54 394.21 331.04 393.03 333.65 392.91 336.01 393.87 338.16 391.86 341.92 391.39 344.26 391.94 346.6 389.79 347.39 384.36 351.41 381.01 350.76 377.87 351.84 377.45 349.06 Z" fill="#18213c" stroke="#52607a" stroke-width="1" id="JP-20" data-shapename="Nagano"/>
<path d="M 355.23 353.79 355.36 350.5 357.73 346.61 359.26 347.02 362.43 345.7 364.11 346.4 365.96 348.68 368.07 350.17 371.16 349.09 374.29 351.04 377.45 349.06 377.87 351.84 381.01 350.76 384.36 351.41 383.43 354.67 381.03 357.46 379.24 361.4 375.97 362.98 375.32 364.77 375.53 367.84 371.23 368.84 367.32 370.28 363.94 370.69 364.88 368.49 366.39 369.05 371.41 366.05 371.16 363.84 364.07 364.68 361.67 362.62 361.27 364.86 358.96 361.45 359.41 358.2 357.67 357.25 357.16 355.46 355.23 353.79 Z" fill="#18213c" stroke="#52607a" stroke-width="1" id="JP-23" data-shapename="Aichi Prefecture"/>
<path d="M 412 331.68 414.02 335.84 416.69 337.31 416.65 340.56 415.55 342.23 412.37 343.76 411.31 345.65 410.24 346.23 405.42 346.97 401.7 345.38 401.21 348.31 401.71 351.08 400.69 352.76 398.37 351.79 397.59 348.44 394.85 348.22 394.89 340.98 393.87 338.16 392.91 336.01 393.03 333.65 394.21 331.04 395.49 331.54 397.67 328.08 404.84 331.03 406.63 330 410.71 332.14 412 331.68 Z" fill="#18213c" stroke="#52607a" stroke-width="1" id="JP-19" data-shapename="Yamanashi"/>
<path d="M 461.67 267.88 459.8 268.05 459.69 271.07 455.78 270.78 455.47 268.41 452.78 267.3 450.62 267.78 449.94 266.09 447.11 266.17 445.4 265.33 445.63 262.71 447.74 262.78 450.4 258.82 450.22 255.95 452.49 252.59 453.5 249.24 452.29 247.72 454.27 240.32 452.08 236.21 454.52 236.23 457.74 233.99 459.01 233.8 462.26 235.54 463 236.63 466.89 236.58 466.86 239.37 469.84 240.3 472.22 238.67 474.21 239.34 475.62 235.63 475.66 232.71 479.2 233.59 479.23 235.98 478.15 238.37 474.4 243.98 475 246.07 476.88 248.59 474.88 250.77 476.32 252.02 475.03 253.75 473.6 251.75 470.72 251.43 467.01 253.13 465.26 252.57 464.14 255.83 462.7 258.34 461.54 262.11 461.27 265.34 461.67 267.88 Z" fill="#18213c" stroke="#52607a" stroke-width="1" id="JP-04" data-shapename="Miyagi"/>
<path d="M 445.4 265.33 444.29 272.64 441.59 273.01 438.06 272.18 436.65 270.21 433.73 270.8 430.42 269.44 429.36 268.39 429.38 265.05 430.72 262.78 430.46 259.13 433.06 258.48 434.85 257.29 435.87 255.28 433.81 253.27 431.04 251.63 431.45 248.79 428.4 247.97 427.1 246.98 428.65 243.26 432.07 239.87 432.86 237.97 435.38 229.54 435.14 228.84 439.96 228.35 440.3 229.87 442.2 231.09 444.91 231.51 449.2 232.91 449.95 235.24 452.08 236.21 454.27 240.32 452.29 247.72 453.5 249.24 452.49 252.59 450.22 255.95 450.4 258.82 447.74 262.78 445.63 262.71 445.4 265.33 Z" fill="#18213c" stroke="#52607a" stroke-width="1" id="JP-06" data-shapename="Yamagata"/>
<path d="M 436.81 186.23 443.9 186.13 447.99 184.36 451.53 186.72 453.38 186.07 454.94 187.01 460.36 183.51 460.19 185.98 462.7 186.14 463.28 188.69 462.39 189.6 462.28 192.15 459.88 194.65 459.6 201.61 460.35 204.34 457.96 204.56 459.44 206.61 458.34 208.68 458.96 211.02 457.26 214.21 454.73 220.03 455.98 221.57 456.34 223.86 458.12 224.96 457.22 229.87 458.66 230.8 457.74 233.99 454.52 236.23 452.08 236.21 449.95 235.24 449.2 232.91 444.91 231.51 442.2 231.09 440.3 229.87 439.96 228.35 435.14 228.84 436.63 223.35 437.52 223.16 439.01 219.26 439.95 212.6 439.63 207.61 437.49 204.08 434.97 203.59 433.91 204.87 431.97 204.55 431.49 200.85 433.44 201.66 435.63 200.14 437.13 197.67 438.17 194.65 439.01 189.94 438.67 187.99 436.81 186.23 Z" fill="#18213c" stroke="#52607a" stroke-width="1" id="JP-05" data-shapename="Akita"/>
<path d="M 462.28 192.15 463.54 193.13 466.15 191.71 471.3 188.06 472.17 189.42 474.25 188.02 476.83 188.88 477.93 187.21 480.47 185.5 482.26 188.19 484.92 194.9 484.23 197.81 487.3 200.78 488.29 207.47 487.63 210.43 488.72 211.6 490.21 214.99 487.24 217.59 487.89 218.48 486.07 222.67 487.03 224.92 485.73 226.22 485.91 228.78 485.1 230.7 479.2 233.59 475.66 232.71 475.62 235.63 474.21 239.34 472.22 238.67 469.84 240.3 466.86 239.37 466.89 236.58 463 236.63 462.26 235.54 459.01 233.8 457.74 233.99 458.66 230.8 457.22 229.87 458.12 224.96 456.34 223.86 455.98 221.57 454.73 220.03 457.26 214.21 458.96 211.02 458.34 208.68 459.44 206.61 457.96 204.56 460.35 204.34 459.6 201.61 459.88 194.65 462.28 192.15 Z" fill="#18213c" stroke="#52607a" stroke-width="1" id="JP-03" data-shapename="Iwate"/>
<path d="M 378.09 315.12 376.19 314.07 371.37 314.05 370.37 312.79 367.52 313.12 365.06 315.57 363.47 318.32 361.09 316.02 358.21 317.94 358.08 313.58 358.84 310.07 358.03 307.7 358.37 305.16 359.72 303.28 360.38 299.03 363.08 297.12 364.7 297.38 363.16 300.61 365.53 302.86 367.97 303.69 371.71 303.54 373.16 302.22 374.27 298.28 379.28 296.73 381.71 300.06 382.47 303.41 382.03 308.28 380.6 309.77 379.32 313.92 378.09 315.12 Z" fill="#18213c" stroke="#52607a" stroke-width="1" id="JP-16" data-shapename="Toyama"/>
<path d="M 411.31 345.65 413.44 345.68 413.52 349.04 412.79 349.84 414.13 353.32 416.2 353.59 415.27 355.05 415.48 357.88 417.12 359.85 414.87 364.47 413.34 365.76 412.34 368.11 408.76 369.61 406.88 366.87 407.75 364.95 407.31 361.4 407.99 357.14 410.71 356.93 409.52 355 406.25 353.74 402.75 354.54 400.91 357 400.93 358.71 397.29 360.54 396.85 363.11 394.08 366.21 393.21 370.08 389.93 368.64 386.4 368.03 383.31 368.72 380.57 367.99 375.53 367.84 375.32 364.77 375.97 362.98 379.24 361.4 381.03 357.46 383.43 354.67 384.36 351.41 389.79 347.39 391.94 346.6 391.39 344.26 391.86 341.92 393.87 338.16 394.89 340.98 394.85 348.22 397.59 348.44 398.37 351.79 400.69 352.76 401.71 351.08 401.21 348.31 401.7 345.38 405.42 346.97 410.24 346.23 411.31 345.65 Z" fill="#18213c" stroke="#52607a" stroke-width="1" id="JP-22" data-shapename="Shizuoka"/>
<path d="M 357.26 324.53 355.26 325.12 352.4 322.46 349.42 322.95 347.36 322.09 345.94 319.21 344.51 318.06 345.89 316.29 348.5 314.54 351.56 310.64 355.24 305.28 357 301.49 357.59 299.09 357.56 296.01 356.48 294.42 356.59 291.86 355.4 289.61 356.75 287.34 357.32 284.65 360.21 283.31 361.5 283.71 366.17 280.82 370.29 279.34 372.18 280.33 372.03 282.23 370.13 282.36 369.23 286.79 365.87 287.36 363.68 290.36 361.99 289.07 360.12 292.57 362.72 294.63 364.67 292.74 364.7 297.38 363.08 297.12 360.38 299.03 359.72 303.28 358.37 305.16 358.03 307.7 358.84 310.07 358.08 313.58 358.21 317.94 359.68 319.41 357.26 324.53 Z" fill="#18213c" stroke="#52607a" stroke-width="1" id="JP-17" data-shapename="Ishikawa Prefecture"/>
<path d="M 298.48 350.54 297.17 355.13 296.38 355.36 294.77 359.55 295.78 360.83 294.73 362.42 296.34 363.94 296.45 366.38 294.5 366.58 292.88 369.17 287.63 372.2 286.73 374.6 280.68 372.74 278.46 373.27 276.51 374.6 274.58 373.72 274.77 372.16 273.03 369.57 271.97 363.08 270.76 360.86 271.46 357.72 270.14 356.15 273.71 354.21 277.61 350.06 278.33 347.35 282.13 348.21 283.86 350.18 286.67 347.77 291.77 349.25 293.25 352.13 296.44 351.74 298.48 350.54 Z" fill="#18213c" stroke="#52607a" stroke-width="1" id="JP-33" data-shapename="Okayama Prefecture"/>
<path d="M 279.93 391.8 280.61 390.76 280.4 387.86 282.87 385.84 284.78 385.1 288.26 386.05 292.07 383.25 297.59 382.82 299.42 381.96 302.37 381.56 304.02 382.79 303.15 386.72 305.74 389.7 305.93 393.17 302.67 395.48 301.99 396.7 298.52 398.47 296.05 401.81 293.35 401.44 292.19 399.34 292.78 397.74 290.09 397.61 289.86 394.83 283.86 393.14 280.34 392.5 279.93 391.8 Z" fill="#18213c" stroke="#52607a" stroke-width="1" id="JP-36" data-shapename="Tokushima Prefecture"/>
<path d="M 279.93 391.8 280.34 392.5 283.86 393.14 289.86 394.83 290.09 397.61 292.78 397.74 292.19 399.34 293.35 401.44 296.05 401.81 293.73 406.17 293.07 409.44 291.18 409.44 287.37 405 286.78 403.66 281.64 402.11 278.24 402.75 274.3 405.14 273.6 406.15 269.96 407.19 269.4 409.29 269.82 411.49 267.68 413.73 265.74 417.2 263.63 417.9 262.14 422.49 262.55 424.21 260.59 424.45 258.2 425.73 256.38 424.24 254.86 424.71 254.8 420.45 255.59 418.75 255.01 414.99 257.8 412.07 258.1 410.21 260.81 408.9 259.04 405.58 258.93 404.09 263.79 403.85 265.02 402 264.61 400.79 266.33 398.46 267.36 395.76 269.81 394.49 270.47 393.3 275.71 393.29 277.16 391.79 279.93 391.8 Z" fill="#18213c" stroke="#52607a" stroke-width="1" id="JP-39" data-shapename="Kochi Prefecture"/>
<path d="M 280.4 387.86 280.61 390.76 279.93 391.8 277.16 391.79 275.71 393.29 270.47 393.3 269.81 394.49 267.36 395.76 266.33 398.46 264.61 400.79 265.02 402 263.79 403.85 258.93 404.09 259.04 405.58 260.81 408.9 258.1 410.21 257.8 412.07 255.01 414.99 255.59 418.75 254.8 420.45 250.81 419.9 251.07 418.08 249.97 416.35 250.25 414.17 251.69 411.83 250.63 408.56 247.64 408.52 248.14 405.56 247.53 403.88 251.11 399.36 254.9 397.16 256.18 391.1 257.29 390.91 257.73 388.25 261.4 386.22 262.88 384.85 265.9 390 266.93 390.5 270.43 388.56 276.21 389.1 278.38 386.93 280.4 387.86 Z" fill="#18213c" stroke="#52607a" stroke-width="1" id="JP-38" data-shapename="Ehime Prefecture"/>
<path d="M 299.42 381.96 297.59 382.82 292.07 383.25 288.26 386.05 284.78 385.1 282.87 385.84 280.4 387.86 278.38 386.93 279.11 386.63 279.64 382.4 286.6 376.46 288.5 377.38 292.28 378.01 294.83 377.77 294.99 379.7 298.17 380.54 299.42 381.96 Z M 295.83 374.63 292.52 372.89 297.03 371.16 297.13 374.33 295.83 374.63 Z" fill-rule="evenodd" fill="#18213c" stroke="#52607a" stroke-width="1" id="JP-37" data-shapename="Kagawa Prefecture"/>
<path d="M 32.18 663.92 33.01 662.65 36.92 664.64 35.45 667.62 30.43 666.9 32.18 663.92 Z M 46.22 657.93 46.79 658.98 44.74 661.84 44.67 664.83 42.59 665.6 41.32 664.39 43.99 662.18 45.79 659.78 46.22 657.93 Z M 69.9 653.1 70.84 651.44 74.78 654.46 71.06 655.09 69.9 653.1 Z M 107.6 608.61 109.02 609.83 108.45 611.33 106.17 609.22 107.6 608.61 Z M 131.81 609.25 135.14 605.26 137.81 603.9 135.79 602.35 135.27 600.38 137.39 599.75 140.41 601.5 144.02 597.44 146.07 595.9 146.38 598.98 144.38 601.85 142.06 602.13 141.91 603.97 136.52 607.25 134.7 606.96 135.04 609.9 133.83 610.98 131.78 616.72 129.34 613.95 132.42 610.85 131.81 609.25 Z" fill-rule="evenodd" fill="#18213c" stroke="#52607a" stroke-width="1" id="JP-47" data-shapename="Okinawa Prefecture"/>
<path d="M 423.56 128.42 424.29 126.72 427.44 125.82 426.33 128.05 425.8 131.19 423.92 131.44 423.56 128.42 Z M 467.21 25.21 466.71 23.01 468.24 21.39 470.12 22.22 471.66 25.26 469.34 27.14 467.21 25.21 Z M 465.01 15.43 464.83 19.27 463.46 18.94 463.36 15.14 465.01 15.43 Z M 447.06 93.3 446.58 92.62 447.41 89.26 449.14 88.79 450.56 87.23 454.47 91.02 457.82 92.38 458.17 93.41 461.35 92.82 462.86 91.9 464.16 93.85 467.44 95.16 470.99 92.93 473.99 88.84 474.1 85.71 472.34 82.31 473.05 79.85 471.62 75.16 472.93 72.51 477.42 70.52 479.23 67.89 479.95 64.81 479.61 54.67 480.37 54.03 482.41 49.14 483.18 42.31 481.81 34.55 480.35 30.34 478.08 25.13 477.73 22.13 479.82 17.45 484.83 15.17 485.7 12.44 486.81 12 489.82 16.48 492.61 18.52 495.24 22.23 501.68 29.66 503.1 33.42 504.21 34.53 506.84 39.01 509.97 42.03 513.15 46.06 522.27 52.91 522.75 54.1 525.56 55.91 533.12 59.35 537.13 60.66 543.51 62.07 545.87 66.24 547.88 67.32 552.64 68.41 558.27 68.01 566.56 59.86 568.19 58.82 569.08 56.97 572.02 53.84 572.1 57.86 569.99 60.81 569.52 63.25 567.27 66.22 565.74 69.43 565.12 74.36 566.78 77.1 568.45 78.65 569.96 85.12 571.35 88.15 573.31 90.12 575.72 90.95 576.45 89.57 579.35 87.28 582.32 86.39 583.41 87.67 577.59 90.39 576.72 93.63 570.64 94.21 568.44 95.43 566.45 95.55 565.59 98.41 562.41 100.77 559.75 100.04 559.02 98.09 557.02 99.29 556.47 100.94 554.14 101.75 550.53 102.16 545.29 99.96 542.7 100.59 539.39 102.22 535.77 104.87 529.19 111.34 524.5 117.46 521.51 123.6 521.09 125.75 521.79 127.2 521.1 132.44 518.78 135.63 516.75 133.06 512.51 130.01 508.76 129.22 505.16 127.54 503 125.78 500.49 124.9 495.35 121.28 492.57 118.48 490.29 118.12 485.65 114.31 483.04 113.18 480.06 112.68 476.49 113.32 472.1 115.69 465.84 120.49 463.27 123.84 462.05 123.23 460.24 118.53 457.97 116.97 455.97 114.23 452.97 114.86 450.25 114.1 447.38 117.53 445.63 121.75 445.52 125.36 447.99 126.47 451.24 129.62 452.87 130.35 456.1 129.32 457.38 130.06 458.91 132.81 460.67 134.07 462.38 136.8 465.27 137.78 468.03 140.19 465.27 142.66 462.57 143.72 461.47 142.72 453.95 140.55 453.43 142.66 449.29 145.24 449.33 149.14 448.63 150.05 444.85 151.41 443.8 153.75 440.73 153.33 439.08 152 438.04 148.93 438.62 144.33 441.46 139.93 441.93 136.83 441.45 134.01 438.99 130.14 436.46 129.54 435.34 126.89 433.29 126.22 432.58 123.79 434.29 120.33 434.72 118.27 433.95 113.37 436.53 110.72 439.55 110.52 442.01 108.46 442.85 106.38 444.56 108 446.01 107.68 446.17 105.77 448.83 102.05 451.6 99.99 448.91 95.07 447.06 93.3 Z" fill-rule="evenodd" fill="#18213c" stroke="#52607a" stroke-width="1" id="JP-01" data-shapename="Hokkaido"/>
<path d="M 242.75 390.48 243.69 389.45 245.62 390.04 244.84 391.91 242.75 390.48 Z M 240.13 374.1 240.55 377.43 242.34 381.32 244.55 381.88 244.61 384.21 243.15 389.28 239.74 390.78 234.17 387.99 233.24 386.6 228.15 387.29 223.28 387.45 220.13 390.56 217.36 389.65 217.44 388.66 214.6 386.97 211.87 389.77 211.21 386.45 209.95 385.09 211.75 382.54 210.46 379.33 210.68 377.76 214.27 376.6 215.19 375.42 221.08 376.67 222.85 375.8 227.28 370.69 228.51 368.2 230.68 367.62 231.41 370.6 230.8 372.4 231.24 375.29 232.78 378.04 234.2 379.1 237.77 377.93 238.16 375.74 240.13 374.1 Z" fill-rule="evenodd" fill="#18213c" stroke="#52607a" stroke-width="1" id="JP-35" data-shapename="Yamaguchi"/>
</g>
</svg>