<?xml version="1.0"?>
<svg xmlns="http://www.w3.org/2000/svg" version="1.2" baseProfile="tiny" width="800" height="498" viewBox="0 0 800 498" stroke-linecap="round" stroke-linejoin="round">
<g id="SGP-ADM2">
<path d="M 417.93 140.15 415.92 197.42 369.98 178.18 354.74 134.96 408.72 130.54 417.93 140.15 Z" fill="#18213c" stroke="#52607a" stroke-width="1" id="ANG MO KIO" data-shapename="ANG MO KIO"/>
<path d="M 516.67 283.52 496.08 265.29 479.14 225.92 481.98 221.8 525.45 208.57 587.63 263.53 516.67 283.52 Z" fill="#18213c" stroke="#52607a" stroke-width="1" id="BEDOK" data-shapename="BEDOK"/>
<path d="M 369.98 178.18 415.92 197.42 421.67 216.9 383.2 219.16 369.98 178.18 Z" fill="#18213c" stroke="#52607a" stroke-width="1" id="BISHAN" data-shapename="BISHAN"/>
<path d="M 133.99 271.93 158.04 242.06 195.17 248.78 179.46 274.19 133.99 271.93 Z" fill="#18213c" stroke="#52607a" stroke-width="1" id="BOON LAY" data-shapename="BOON LAY"/>
<path d="M 276.84 207.87 267.55 233.93 243.12 220.34 223.58 212.72 241.63 175.64 262.14 158.56 276.84 207.87 Z" fill="#18213c" stroke="#52607a" stroke-width="1" id="BUKIT BATOK" data-shapename="BUKIT BATOK"/>
<path d="M 361.78 353.25 323.2 337.87 350.16 296.2 375.62 299.34 380.76 307.2 391.01 328.3 407.4 336.16 363.09 353.91 361.78 353.25 Z" fill="#18213c" stroke="#52607a" stroke-width="1" id="BUKIT MERAH" data-shapename="BUKIT MERAH"/>
<path d="M 276.84 207.87 262.14 158.56 252.31 143.77 283.38 141.48 285.84 158.31 311.05 207.46 276.84 207.87 Z" fill="#18213c" stroke="#52607a" stroke-width="1" id="BUKIT PANJANG" data-shapename="BUKIT PANJANG"/>
<path d="M 267.55 233.93 276.84 207.87 311.05 207.46 354.41 229.15 345.95 249.25 328.14 275.07 278.16 256.59 267.55 233.93 Z" fill="#18213c" stroke="#52607a" stroke-width="1" id="BUKIT TIMAH" data-shapename="BUKIT TIMAH"/>
<path d="M 354.74 134.96 369.98 178.18 383.2 219.16 382.35 219.67 354.41 229.15 311.05 207.46 285.84 158.31 278.93 109.78 333.76 102.76 354.74 134.96 Z" fill="#18213c" stroke="#52607a" stroke-width="1" id="CENTRAL WATER CATCHMENT" data-shapename="CENTRAL WATER CATCHMENT"/>
<path d="M 620.09 259.89 588.68 201.95 602.53 145.62 644.71 143.66 700.22 189.56 697.89 195.13 670.63 261.44 620.09 259.89 Z" fill="#18213c" stroke="#52607a" stroke-width="1" id="CHANGI" data-shapename="CHANGI"/>
<path d="M 670.63 261.44 697.89 195.13 679.49 245.44 670.63 261.44 Z" fill="#18213c" stroke="#52607a" stroke-width="1" id="CHANGI BAY" data-shapename="CHANGI BAY"/>
<path d="M 262.14 158.56 241.63 175.64 216.19 159.74 237.66 117.03 252.31 143.77 262.14 158.56 Z" fill="#18213c" stroke="#52607a" stroke-width="1" id="CHOA CHU KANG" data-shapename="CHOA CHU KANG"/>
<path d="M 243.12 220.34 267.55 233.93 278.16 256.59 258 287.98 255.77 289.34 243.12 220.34 Z" fill="#18213c" stroke="#52607a" stroke-width="1" id="CLEMENTI" data-shapename="CLEMENTI"/>
<path d="M 407.4 336.16 391.01 328.3 400.35 310.15 402.09 302.67 408.59 292.54 420.04 287.07 428.12 296.35 428.57 304.66 418.43 322.04 407.4 336.16 Z" fill="#18213c" stroke="#52607a" stroke-width="1" id="DOWNTOWN CORE" data-shapename="DOWNTOWN CORE"/>
<path d="M 479.14 225.92 496.08 265.29 459.16 279.34 435.02 241.97 467.39 232.73 479.14 225.92 Z" fill="#18213c" stroke="#52607a" stroke-width="1" id="GEYLANG" data-shapename="GEYLANG"/>
<path d="M 481.98 221.8 479.14 225.92 467.39 232.73 461.27 220.99 442.05 146.23 501.45 164.7 481.98 221.8 Z" fill="#18213c" stroke="#52607a" stroke-width="1" id="HOUGANG" data-shapename="HOUGANG"/>
<path d="M 179.46 274.19 195.17 248.78 208.91 200.48 221.55 211.2 223.58 212.72 243.12 220.34 255.77 289.34 182.71 290.97 181.88 290.96 179.46 274.19 Z" fill="#18213c" stroke="#52607a" stroke-width="1" id="JURONG EAST" data-shapename="JURONG EAST"/>
<path d="M 195.17 248.78 158.04 242.06 123.34 236.77 173.7 183.21 208.91 200.48 195.17 248.78 Z" fill="#18213c" stroke="#52607a" stroke-width="1" id="JURONG WEST" data-shapename="JURONG WEST"/>
<path d="M 428.12 296.35 420.04 287.07 400.12 273.62 395.75 269.74 424.75 237.76 435.02 241.97 459.16 279.34 449.38 293.92 428.12 296.35 Z" fill="#18213c" stroke="#52607a" stroke-width="1" id="KALLANG" data-shapename="KALLANG"/>
<path d="M 226.9 90.01 172.65 106.26 152.42 71.69 223.15 63.57 223.38 65.55 225.54 64.22 226.9 90.01 Z" fill="#18213c" stroke="#52607a" stroke-width="1" id="LIM CHU KANG" data-shapename="LIM CHU KANG"/>
<path d="M 333.76 102.76 278.93 109.78 278.26 91.26 316.38 89.55 343.29 54.63 366.1 68.97 333.76 102.76 Z" fill="#18213c" stroke="#52607a" stroke-width="1" id="MANDAI" data-shapename="MANDAI"/>
<path d="M 428.57 304.66 428.12 296.35 449.38 293.92 445.85 300.75 441.09 316.83 428.57 304.66 Z" fill="#18213c" stroke="#52607a" stroke-width="1" id="MARINA EAST" data-shapename="MARINA EAST"/>
<path d="M 418.43 322.04 428.57 304.66 441.09 316.83 431.3 330.41 418.43 322.04 Z" fill="#18213c" stroke="#52607a" stroke-width="1" id="MARINA SOUTH" data-shapename="MARINA SOUTH"/>
<path d="M 496.08 265.29 516.67 283.52 445.85 300.75 449.38 293.92 459.16 279.34 496.08 265.29 Z" fill="#18213c" stroke="#52607a" stroke-width="1" id="MARINE PARADE" data-shapename="MARINE PARADE"/>
<path d="M 408.59 292.54 402.09 302.67 392.24 296.16 390.98 288.21 393.6 286.7 397.52 284.53 408.59 292.54 Z" fill="#18213c" stroke="#52607a" stroke-width="1" id="MUSEUM" data-shapename="MUSEUM"/>
<path d="M 395.75 269.74 400.12 273.62 397.52 284.53 393.6 286.7 369.11 274.74 381.3 258.78 395.75 269.74 Z" fill="#18213c" stroke="#52607a" stroke-width="1" id="NEWTON" data-shapename="NEWTON"/>
<path d="M 733.08 73.89 788 119.54 766.09 185.25 680.82 143.99 661.04 95.8 685.5 66.13 733.08 73.89 Z" fill="#18213c" stroke="#52607a" stroke-width="1" id="NORTH-EASTERN ISLANDS" data-shapename="NORTH-EASTERN ISLANDS"/>
<path d="M 345.95 249.25 354.41 229.15 382.35 219.67 424.75 237.76 395.75 269.74 381.3 258.78 345.95 249.25 Z" fill="#18213c" stroke="#52607a" stroke-width="1" id="NOVENA" data-shapename="NOVENA"/>
<path d="M 393.6 286.7 390.98 288.21 362.12 282.41 369.11 274.74 393.6 286.7 Z" fill="#18213c" stroke="#52607a" stroke-width="1" id="ORCHARD" data-shapename="ORCHARD"/>
<path d="M 391.01 328.3 380.76 307.2 400.35 310.15 391.01 328.3 Z" fill="#18213c" stroke="#52607a" stroke-width="1" id="OUTRAM" data-shapename="OUTRAM"/>
<path d="M 602.53 145.62 588.68 201.95 536.57 164.81 513.43 154.23 508.33 148.5 533.82 124.9 564.48 153.22 602.53 145.62 Z" fill="#18213c" stroke="#52607a" stroke-width="1" id="PASIR RIS" data-shapename="PASIR RIS"/>
<path d="M 525.45 208.57 481.98 221.8 501.45 164.7 513.43 154.23 536.57 164.81 525.45 208.57 Z" fill="#18213c" stroke="#52607a" stroke-width="1" id="PAYA LEBAR" data-shapename="PAYA LEBAR"/>
<path d="M 158.04 242.06 133.99 271.93 94.64 268.81 111.74 241.7 123.34 236.77 158.04 242.06 Z" fill="#18213c" stroke="#52607a" stroke-width="1" id="PIONEER" data-shapename="PIONEER"/>
<path d="M 533.82 124.9 508.33 148.5 464.07 123.91 481.13 101.88 533.82 124.9 Z" fill="#18213c" stroke="#52607a" stroke-width="1" id="PUNGGOL" data-shapename="PUNGGOL"/>
<path d="M 350.16 296.2 323.2 337.87 258 287.98 278.16 256.59 328.14 275.07 350.16 296.2 Z" fill="#18213c" stroke="#52607a" stroke-width="1" id="QUEENSTOWN" data-shapename="QUEENSTOWN"/>
<path d="M 390.98 288.21 392.24 296.16 373.26 293.78 362.12 282.41 390.98 288.21 Z" fill="#18213c" stroke="#52607a" stroke-width="1" id="RIVER VALLEY" data-shapename="RIVER VALLEY"/>
<path d="M 420.04 287.07 408.59 292.54 397.52 284.53 400.12 273.62 420.04 287.07 Z" fill="#18213c" stroke="#52607a" stroke-width="1" id="ROCHOR" data-shapename="ROCHOR"/>
<path d="M 481.13 101.88 464.07 123.91 413.94 123.87 432.61 85.51 481.13 101.88 Z" fill="#18213c" stroke="#52607a" stroke-width="1" id="SELETAR" data-shapename="SELETAR"/>
<path d="M 366.1 68.97 343.29 54.63 311.27 26.04 352.29 12 401.37 28.49 383.48 52.47 366.1 68.97 Z" fill="#18213c" stroke="#52607a" stroke-width="1" id="SEMBAWANG" data-shapename="SEMBAWANG"/>
<path d="M 417.93 140.15 408.72 130.54 413.94 123.87 464.07 123.91 508.33 148.5 513.43 154.23 501.45 164.7 442.05 146.23 417.93 140.15 Z" fill="#18213c" stroke="#52607a" stroke-width="1" id="SENGKANG" data-shapename="SENGKANG"/>
<path d="M 415.92 197.42 417.93 140.15 442.05 146.23 461.27 220.99 421.67 216.9 415.92 197.42 Z" fill="#18213c" stroke="#52607a" stroke-width="1" id="SERANGOON" data-shapename="SERANGOON"/>
<path d="M 383.48 52.47 401.37 28.49 424.39 86.23 383.48 52.47 Z" fill="#18213c" stroke="#52607a" stroke-width="1" id="SIMPANG" data-shapename="SIMPANG"/>
<path d="M 380.76 307.2 375.62 299.34 373.26 293.78 392.24 296.16 402.09 302.67 400.35 310.15 380.76 307.2 Z" fill="#18213c" stroke="#52607a" stroke-width="1" id="SINGAPORE RIVER" data-shapename="SINGAPORE RIVER"/>
<path d="M 361.78 353.25 363.09 353.91 399.19 361.98 376.87 386.67 361.78 353.25 Z" fill="#18213c" stroke="#52607a" stroke-width="1" id="SOUTHERN ISLANDS" data-shapename="SOUTHERN ISLANDS"/>
<path d="M 407.4 336.16 418.43 322.04 431.3 330.41 407.4 336.16 Z" fill="#18213c" stroke="#52607a" stroke-width="1" id="STRAITS VIEW" data-shapename="STRAITS VIEW"/>
<path d="M 283.38 141.48 252.31 143.77 237.66 117.03 226.9 90.01 225.54 64.22 223.38 65.55 223.15 63.57 267.21 55.96 278.26 91.26 278.93 109.78 283.38 141.48 Z" fill="#18213c" stroke="#52607a" stroke-width="1" id="SUNGEI KADUT" data-shapename="SUNGEI KADUT"/>
<path d="M 587.63 263.53 525.45 208.57 536.57 164.81 588.68 201.95 620.09 259.89 587.63 263.53 Z" fill="#18213c" stroke="#52607a" stroke-width="1" id="TAMPINES" data-shapename="TAMPINES"/>
<path d="M 375.62 299.34 350.16 296.2 328.14 275.07 345.95 249.25 381.3 258.78 369.11 274.74 362.12 282.41 373.26 293.78 375.62 299.34 Z" fill="#18213c" stroke="#52607a" stroke-width="1" id="TANGLIN" data-shapename="TANGLIN"/>
<path d="M 241.63 175.64 223.58 212.72 221.55 211.2 208.91 200.48 173.7 183.21 216.19 159.74 241.63 175.64 Z" fill="#18213c" stroke="#52607a" stroke-width="1" id="TENGAH" data-shapename="TENGAH"/>
<path d="M 383.2 219.16 421.67 216.9 461.27 220.99 467.39 232.73 435.02 241.97 424.75 237.76 382.35 219.67 383.2 219.16 Z" fill="#18213c" stroke="#52607a" stroke-width="1" id="TOA PAYOH" data-shapename="TOA PAYOH"/>
<path d="M 111.74 241.7 94.64 268.81 67.86 320.37 82.98 400.61 30.73 400.61 12 377.32 21.18 323.74 65.22 201.3 111.74 241.7 Z" fill="#18213c" stroke="#52607a" stroke-width="1" id="TUAS" data-shapename="TUAS"/>
<path d="M 181.88 290.96 182.71 290.97 228.1 330.15 154.2 366.74 125.41 401.41 89.23 338.17 181.88 290.96 Z" fill="#18213c" stroke="#52607a" stroke-width="1" id="WESTERN ISLANDS" data-shapename="WESTERN ISLANDS"/>
<path d="M 237.66 117.03 216.19 159.74 173.7 183.21 123.34 236.77 111.74 241.7 65.22 201.3 128.37 79.01 152.42 71.69 172.65 106.26 226.9 90.01 237.66 117.03 Z" fill="#18213c" stroke="#52607a" stroke-width="1" id="WESTERN WATER CATCHMENT" data-shapename="WESTERN WATER CATCHMENT"/>
<path d="M 343.29 54.63 316.38 89.55 278.26 91.26 267.21 55.96 311.27 26.04 343.29 54.63 Z" fill="#18213c" stroke="#52607a" stroke-width="1" id="WOODLANDS" data-shapename="WOODLANDS"/>
<path d="M 408.72 130.54 354.74 134.96 333.76 102.76 366.1 68.97 383.48 52.47 424.39 86.23 432.61 85.51 413.94 123.87 408.72 130.54 Z" fill="#18213c" stroke="#52607a" stroke-width="1" id="YISHUN" data-shapename="YISHUN"/>
</g>
</svg>