<?xml version="1.0"?>
<svg xmlns="http://www.w3.org/2000/svg" version="1.2" baseProfile="tiny" width="800" height="444" viewBox="0 0 800 444" stroke-linecap="round" stroke-linejoin="round">
<g id="SLV-ADM1">
<path d="M 321.55 133.05 355.08 142.59 382.59 174.05 369.96 198.06 409.35 230.54 398.28 264.15 351.7 263.53 349.15 231.55 317.4 198.37 321.55 133.05 Z" fill="#18213c" stroke="#52607a" stroke-width="1" id="Departamento de Cuscatlán" data-shapename="Departamento de Cuscatlán"/>
<path d="M 528.36 251.93 566.21 272.26 562.52 360.03 619.78 393.21 648.62 430.1 558.48 432.35 426.65 402.07 452.81 363.2 483.59 292.56 528.36 251.93 Z" fill="#18213c" stroke="#52607a" stroke-width="1" id="Departamento de Usulután" data-shapename="Departamento de Usulután"/>
<path d="M 162.99 314.19 198.55 272.44 216.53 227.87 220.65 182.05 242.75 145.38 280.71 140.47 289.77 173.96 283.91 255.72 299.85 323.08 314.63 322.69 310.56 344.8 268.14 324.73 162.99 314.19 Z" fill="#18213c" stroke="#52607a" stroke-width="1" id="La Libertad" data-shapename="La Libertad"/>
<path d="M 129.73 143.11 132.65 186.12 117.5 196.2 102.44 258.16 56.48 266 12 239.88 18.39 195.27 79.16 140.14 129.73 143.11 Z" fill="#18213c" stroke="#52607a" stroke-width="1" id="Departamento de Ahuachapán" data-shapename="Departamento de Ahuachapán"/>
<path d="M 216.53 227.87 198.55 272.44 162.99 314.19 105.79 313.84 56.48 266 102.44 258.16 117.5 196.2 132.65 186.12 169.43 216.88 216.53 227.87 Z" fill="#18213c" stroke="#52607a" stroke-width="1" id="Departamento de Sonsonate" data-shapename="Departamento de Sonsonate"/>
<path d="M 398.28 264.15 409.35 230.54 448.74 221.08 518.2 237.69 528.36 251.93 483.59 292.56 452.81 363.2 426.65 402.07 412.42 395.81 432.56 376.71 426.21 309.19 398.28 264.15 Z" fill="#18213c" stroke="#52607a" stroke-width="1" id="San Vicente" data-shapename="San Vicente"/>
<path d="M 648.62 430.1 619.78 393.21 562.52 360.03 566.21 272.26 528.36 251.93 518.2 237.69 529.3 201.09 603.23 181.38 614.93 276.76 680.02 298.21 675.67 402.9 658.23 428.17 648.62 430.1 Z" fill="#18213c" stroke="#52607a" stroke-width="1" id="Departamento de San Miguel" data-shapename="Departamento de San Miguel"/>
<path d="M 658.23 428.17 675.67 402.9 680.02 298.21 706.11 265.44 707.91 189.93 753.35 191.5 781.28 224.32 759.38 313.64 740.35 350.11 756.82 392.3 717.45 423.56 658.23 428.17 Z" fill="#18213c" stroke="#52607a" stroke-width="1" id="Departamento de La Unión" data-shapename="Departamento de La Unión"/>
<path d="M 680.02 298.21 614.93 276.76 603.23 181.38 613.71 154.55 664.33 157.08 707.91 189.93 706.11 265.44 680.02 298.21 Z" fill="#18213c" stroke="#52607a" stroke-width="1" id="Departamento de Morazán" data-shapename="Departamento de Morazán"/>
<path d="M 351.7 263.53 398.28 264.15 426.21 309.19 432.56 376.71 412.42 395.81 310.56 344.8 314.63 322.69 328.04 282.31 351.7 263.53 Z" fill="#18213c" stroke="#52607a" stroke-width="1" id="Departamento de La Paz" data-shapename="Departamento de La Paz"/>
<path d="M 242.75 145.38 220.65 182.05 216.53 227.87 169.43 216.88 132.65 186.12 129.73 143.11 136.48 108.78 214.74 12 252.01 14.96 286.13 47.41 263.76 94.8 232.67 113.41 242.75 145.38 Z" fill="#18213c" stroke="#52607a" stroke-width="1" id="Departamento de Santa Ana" data-shapename="Departamento de Santa Ana"/>
<path d="M 382.59 174.05 355.08 142.59 321.55 133.05 280.71 140.47 242.75 145.38 232.67 113.41 263.76 94.8 286.13 47.41 252.01 14.96 311.9 33.09 331.03 19.02 375.74 79.84 450.52 111.01 467.89 151.16 401.63 176.85 382.59 174.05 Z" fill="#18213c" stroke="#52607a" stroke-width="1" id="Departamento de Chalatenango" data-shapename="Departamento de Chalatenango"/>
<path d="M 321.55 133.05 317.4 198.37 349.15 231.55 351.7 263.53 328.04 282.31 314.63 322.69 299.85 323.08 283.91 255.72 289.77 173.96 280.71 140.47 321.55 133.05 Z" fill="#18213c" stroke="#52607a" stroke-width="1" id="Departamento de San Salvador" data-shapename="Departamento de San Salvador"/>
<path d="M 409.35 230.54 369.96 198.06 382.59 174.05 401.63 176.85 467.89 151.16 527.09 165.75 529.3 201.09 518.2 237.69 448.74 221.08 409.35 230.54 Z" fill="#18213c" stroke="#52607a" stroke-width="1" id="Departamento de Cabañas" data-shapename="Departamento de Cabañas"/>
</g>
</svg>