<?xml version="1.0"?>
<svg xmlns="http://www.w3.org/2000/svg" version="1.2" baseProfile="tiny" width="800" height="509" viewBox="0 0 800 509" stroke-linecap="round" stroke-linejoin="round">
<g id="USA-ADM1">
<path d="M 485.79 355.99 486.84 353.4 485.31 347.63 484.36 345.53 485.76 344.74 486.77 341.46 486.06 337.81 489.05 336.64 488.1 335.2 491.03 331.35 490.83 330.21 493.37 329.27 493.73 326.39 494.63 324.53 494.8 321.46 497.84 319.7 496.84 318.11 514.25 316.99 528.68 315.84 530.39 317.64 529.87 338.25 529.15 373.9 532.64 402.07 531.76 402.88 525.96 402.12 522.96 402.48 516.4 405.42 514.81 406.9 512.7 404.99 511.92 402.05 510.66 401.14 509.04 398.18 510.32 391.89 500.17 392.59 480.2 393.65 479.96 388.66 482.47 386.16 484.06 377.75 485.27 377.5 486.43 375.43 488.14 374.3 488.7 372.7 486.58 371.02 489.38 369.07 488.46 366.51 486.35 362.73 486.4 357.4 485.79 355.99 Z" fill="#18213c" stroke="#52607a" stroke-width="1" id="US-MS" data-shapename="Mississippi"/>
<path d="M 622.24 274.91 642.61 272.5 654.09 270.6 668.69 267.95 691.88 263.38 707.08 260.07 706.98 263.6 707.78 266.41 703.81 269.47 702.07 269.1 700.49 271.55 702.14 272.92 704.84 271.2 707.43 272.04 709.28 270.56 711.43 271.9 712.65 275.28 712.25 277.56 709.79 279.06 708.43 282.4 703.79 283.82 703.05 285.26 701.91 291.04 703.82 290.27 706.57 292.28 705.09 294.57 702.99 295.96 698.87 296.67 694.75 299.26 693.29 301.45 691.07 303.39 688.61 306.46 686.71 311.34 686.14 315.02 681.76 315.48 677.41 317.51 657.24 303.03 640.4 305.57 640.28 303.39 637.49 300.59 635.76 300.07 615.68 302.19 605.27 307.38 597.63 308.67 587.09 309.97 587.02 305.51 590.84 303.71 590.7 301.53 593.97 298.28 598.04 297.73 600.57 295.66 601.47 294.18 603.71 292.69 605.15 292.71 605.82 289.86 609.61 286.65 611.1 288.36 612.86 285.85 614.49 284.63 618.31 284.35 619.65 280.72 621.82 279.73 622.24 274.91 Z" fill="#18213c" stroke="#52607a" stroke-width="1" id="US-NC" data-shapename="North Carolina"/>
<path d="M 307.65 279.36 321.76 280.46 337.9 281.3 357 282.13 378.05 282.82 403.39 283.17 431.14 283.03 431.27 292.39 434.39 313.07 434.09 345.88 431.31 345.46 428.16 343.94 425.19 341.06 422.77 339.95 421.84 341.54 419.35 341.77 416.65 340.64 413.14 342.3 411.67 341.89 408.49 342.33 408.03 343.77 404.27 343.47 400.16 342.06 397.46 341.98 396.59 339.99 392.74 344.09 392.64 341.15 386.37 340.89 385.14 339.24 382.02 341.84 380.56 341.18 380.93 339.18 378.84 338.91 377.56 336.79 374.58 335.92 372.68 337.63 371 335.76 368.45 336.14 366.14 335.22 362.01 334.48 361.78 332.16 356.35 330.46 354.41 331.13 351.51 327.73 349.9 327.54 351.42 291.28 335.34 290.52 324.36 289.88 306.95 288.69 307.65 279.36 Z" fill="#18213c" stroke="#52607a" stroke-width="1" id="US-OK" data-shapename="Oklahoma"/>
<path d="M 704.61 233.46 704.84 232.88 710.14 231.09 709.13 233.95 708.26 234 706.59 238.34 706.53 243.02 705.26 248.15 703.43 249.98 702.02 247.62 702.03 241.74 704.19 236.22 704.61 233.46 Z M 707.08 260.07 691.88 263.38 668.69 267.95 654.09 270.6 642.61 272.5 622.24 274.91 604.47 277.39 592.89 278.81 595.32 277.17 600.45 275.11 601.07 273 603.94 271.63 603.78 270.22 605.44 268.75 605.53 267.28 610.55 263.78 615.36 257.95 615.12 259.14 617.72 262.34 620.5 263.55 622.2 263.19 624.71 260.32 626.99 261.92 630.83 260.15 636.55 255.76 637.29 256.69 639.57 254.69 640.34 252.29 639.06 251.29 640.42 247.58 642.34 245.02 642.91 241.36 644.52 239.4 645.42 236.15 645.49 233.09 647.21 233.57 648.37 235.15 650.86 235.57 652.04 233.82 653.93 226.68 655.99 227.96 656.74 225.46 659.09 223.55 659.28 222.23 661.18 219.29 660.65 217.68 661.46 215.79 660.94 213.65 669.4 218.4 670.25 214.63 672.44 214.49 674.27 215.68 673.57 217.32 674.74 218.43 676.51 218.33 680.08 220.07 681.75 222.46 681.04 225.6 680.09 226.12 678.97 229.67 680.6 231.5 683.56 229.93 684.98 232.85 686.93 233.42 690.2 233.03 693.69 235.79 696.54 236.68 695.81 238.12 696.37 240.51 696.37 244.07 698.36 246.07 696.8 249.69 699.14 251.48 699.24 253.73 702.41 254.23 703.84 253.77 707.08 260.07 Z" fill-rule="evenodd" fill="#18213c" stroke="#52607a" stroke-width="1" id="US-VA" data-shapename="Virginia"/>
<path d="M 670.25 214.63 669.4 218.4 660.94 213.65 661.46 215.79 660.65 217.68 661.18 219.29 659.28 222.23 659.09 223.55 656.74 225.46 655.99 227.96 653.93 226.68 652.04 233.82 650.86 235.57 648.37 235.15 647.21 233.57 645.49 233.09 645.42 236.15 644.52 239.4 642.91 241.36 642.34 245.02 640.42 247.58 639.06 251.29 640.34 252.29 639.57 254.69 637.29 256.69 636.55 255.76 630.83 260.15 626.99 261.92 624.71 260.32 622.2 263.19 620.5 263.55 617.72 262.34 615.12 259.14 615.36 257.95 612.89 257.84 610.1 255.77 607.9 252.47 606.67 251.84 605.51 249.29 604.09 248.2 604.66 245.76 603.98 242.87 607.55 241.99 607.88 239.33 609.3 238.82 608.35 235.16 610.3 230.52 613.28 231.91 613.84 227.11 614.78 225.1 617.72 222.14 619.14 223.11 621.17 221.18 624.14 217.26 625.77 211.28 625.54 208.24 626.74 203.46 626.33 200.53 625.04 198.88 626.89 197.34 629.67 214.29 644.27 211.82 645.8 221.35 649.12 217.77 650.6 215.45 652.48 215.7 654.15 212.08 655.87 213.07 659.13 212.94 660.22 210.45 662.53 208.96 665.18 210.23 667.57 209.71 667.54 211.45 669.41 212.84 670.25 214.63 Z" fill="#18213c" stroke="#52607a" stroke-width="1" id="US-WV" data-shapename="West Virginia"/>
<path d="M 475.02 420.29 477.06 419.1 480.19 420.48 478.1 421.99 475.02 420.29 Z M 485.79 355.99 486.4 357.4 486.35 362.73 488.46 366.51 489.38 369.07 486.58 371.02 488.7 372.7 488.14 374.3 486.43 375.43 485.27 377.5 484.06 377.75 482.47 386.16 479.96 388.66 480.2 393.65 500.17 392.59 510.32 391.89 509.04 398.18 510.66 401.14 511.92 402.05 512.7 404.99 514.81 406.9 513.24 407.44 511.8 409.2 510.26 409.72 510.05 411.59 512.28 412.77 514.03 412.56 514.15 410.49 515.52 409.52 518.46 411.48 516.88 414.94 513.08 417.32 513.15 418.97 516.67 421.26 521.12 422.01 524.29 424.9 523.63 426.54 519.56 427.45 516.7 424.72 511.57 422.96 511.86 421.81 508.52 420.65 506.5 424.46 507.53 425.81 504.83 427.86 503.25 424.55 501.01 423.22 498.7 424.81 497.81 426.7 494.62 428.69 492.75 426.71 491.05 426.84 487.35 425.7 487.9 423.58 486.28 421.38 484.35 421.87 481.42 416.98 478.85 417.11 477.24 415.41 473.54 417.35 474.27 420.21 470.33 421.34 464.83 420.34 458.2 417.79 455.18 417.28 447.3 418.27 445.73 419.14 444.41 416.68 447.47 412.38 447.62 407.98 446.66 406.99 447.64 405.24 447.05 403.5 448.79 400.44 449.54 394.93 450.41 394.16 447.48 388.86 446.46 385 444.91 383.7 445.57 381.76 443.87 378.22 441.56 376.44 441.14 357.3 467.22 356.69 485.79 355.99 Z" fill-rule="evenodd" fill="#18213c" stroke="#52607a" stroke-width="1" id="US-LA" data-shapename="Louisiana"/>
<path d="M 567.56 105.39 570.51 102.61 572.81 104.54 572.41 105.73 567.56 105.39 Z M 537.2 187.88 540.2 184.17 541.15 180.8 542.7 178.05 543.74 173.49 543.87 169.7 543.21 164.82 542.5 162.49 539.63 157.32 537.69 152.96 538.64 148.4 537.19 144.75 538.2 143.5 539.93 138.99 540.11 134.95 539.7 132.36 541.51 131.5 541.49 128.44 543.05 127.18 544.8 127.26 545.41 125.26 547.51 124.76 547.33 130.25 548.88 130.61 550.1 127.52 550.28 123.63 549.84 120.7 553.85 117.18 552.49 114.71 554.48 111.67 557.08 110.19 560.83 112.26 564.06 112.21 566.01 114.59 568.37 114.45 570.35 115.68 574.53 116.56 577.64 121.49 575.38 122.18 577.5 124.61 578.56 127.61 578.25 129.61 578.68 134.6 576.1 137.07 576.13 139.37 572.92 141.98 572.09 143.45 571.87 146.39 573.43 148.33 576.31 148.75 580.51 141.22 584.69 138.88 587.41 140 589.21 142.73 590.3 147.05 591.54 149.9 592.28 153.71 594.4 158.1 593.88 165.18 592.14 166.12 591.29 163.96 589.9 165.08 589.15 170.63 587.35 171.54 586.69 173.11 586.64 177.27 584.82 179.14 583.47 181.66 583.49 183.09 565.05 186.09 564.91 184.9 551.39 186.45 537.2 187.88 Z M 495.62 77.33 496.59 76.06 500.03 74.07 504.18 71.05 502.87 74.18 500.08 75.47 499.53 76.88 496.95 78.09 495.62 77.33 Z M 482.5 102.34 487.38 100.03 489.54 97.64 491.73 96.8 494.89 96.44 497.32 94.94 498.61 93.34 500.72 92.81 501.38 91.16 505.18 88.17 506.88 85.77 509.42 84.05 514.62 83.18 514.58 84.83 509.82 88.48 507.23 93.09 509.06 94.47 511.93 93.67 514.29 93.68 517.82 95.18 521.83 100.55 524.96 100.43 526.28 99.6 528.16 101.19 529.18 100.37 531.33 101.13 532.2 99.71 537.15 95.9 540.44 95.22 545.51 94.86 548.23 93.2 551.03 92.75 551.9 97.88 554.72 98.18 556.8 97.21 557.96 98.3 559.45 96.58 563.39 96.04 563.15 97.67 563.89 101.12 565.3 102.7 565.86 105.91 563.05 105.94 561.56 106.81 560.3 105.7 557.07 105.58 556.71 109.27 553.06 106.59 548.74 105.51 546.4 105.66 544.77 108.23 537.76 109.07 536.22 110.29 536.02 112.43 531.56 115.2 533.69 111.54 530.59 112.62 529.56 114.61 526.9 114.7 525.68 115.88 524.08 120.35 521.68 124.97 521.16 126.89 519.15 125.51 520.03 122.41 517.37 122.49 517.95 117.69 516.4 114.99 513.81 114.72 513.19 112.14 507.72 110.75 505.92 111.46 500.1 109.13 486.59 106.35 485.16 103.37 482.5 102.34 Z" fill-rule="evenodd" fill="#18213c" stroke="#52607a" stroke-width="1" id="US-MI" data-shapename="Michigan"/>
<path d="M 756.01 155.74 756.92 155.38 758.5 152.45 761.21 154.2 756.01 155.74 Z M 717.2 138.73 727.94 136.43 743.42 132.99 744.94 130.18 747.28 128.32 748.83 128.14 750.26 131.26 752.55 132.4 749.75 134.17 748.66 139.21 752.6 139.16 755.02 141.64 754.74 143.68 757.09 144.22 758.87 146.93 761.41 146.75 764.23 145.22 765.45 143.47 766.44 146.43 761.27 148.69 759.62 150.78 757.39 151.77 757.3 149.52 755.94 148.89 753.75 152.45 751.51 154.05 750.56 151.15 749.65 151.1 749.09 150.57 747.37 149.67 745.52 145.55 740.01 147.2 739.92 146.93 723.87 150.7 717.31 152.1 716.87 151.5 717.2 138.73 Z" fill-rule="evenodd" fill="#18213c" stroke="#52607a" stroke-width="1" id="US-MA" data-shapename="Massachusetts"/>
<path d="M 141.65 85.29 141.2 83.58 142.28 82.16 141.84 77.16 148.72 46.51 152.36 30.84 164.26 33.43 160.31 51.85 162.21 56.49 163.26 57.8 162.91 61.68 161.98 62.31 164.17 65.45 166.56 66.76 170.07 74.25 170.02 75.57 173.34 78.48 173.19 79.75 176.91 80.33 174.71 84.81 173.64 88.63 172.52 89.34 173.33 94.09 170.67 95.62 171.15 97.68 170.09 99.09 172.39 101.9 175.41 100.64 177.33 99 179.78 100.61 179.53 104.28 181.13 109.78 182.49 111.41 181.79 114.94 184.34 116.22 186.2 119.28 186.27 123.56 188.34 124.47 190.17 123.3 194.32 125.1 196.03 123.11 198.29 124.4 201.44 124.13 205.15 124.77 207.18 122.26 208.92 122.17 210.93 126.89 211.89 127.45 206.84 159.82 204.67 173.12 166.74 166.74 164.08 166.13 150.72 163.45 132.73 159.66 123.91 157.64 131.32 124.69 134.49 118.67 132.66 116.91 130.93 113.35 131.48 111.94 135.01 107.56 137.98 105.57 138.58 103.13 140.58 101.3 142.02 98.2 145.82 93.68 144.88 90.13 142.66 88.75 141.65 85.29 Z" fill="#18213c" stroke="#52607a" stroke-width="1" id="US-ID" data-shapename="Idaho"/>
<path d="M 653.39 495.82 654.18 494.02 659.01 490.33 660.32 490.77 661.93 492.8 658.39 493.9 655.61 495.56 653.39 495.82 Z M 585.45 385.1 588.25 390.18 630.61 387.27 631.23 390.32 633.81 390.66 633.94 386.88 632.9 383.54 634.09 381.9 637.74 382.81 642.4 382.85 644.69 391.01 648.41 400.14 654.51 410.28 659.79 416.76 662.49 419.53 663.67 421.7 662.83 424.89 664.29 428.85 668.13 434.43 671.18 440.38 675.08 446.75 676.79 450.6 677.31 454.13 677.67 463.62 678.3 469.58 676.62 470.55 675.69 475.49 676.2 478.99 674.8 480.8 672.44 480.81 671.25 481.79 668.18 482.17 664.22 483.91 662.44 482.23 662.81 479.26 659.13 474.12 653.29 471.22 651.99 472.15 649.46 468.1 647.55 463.05 644.82 460.82 642.87 460.47 643.32 455.8 641.87 453.02 640.91 453.94 641.87 456.27 640.2 457 636.17 452.04 634.48 449.16 630.67 444.62 631.74 444.02 635 437.74 634.47 436.64 631.82 438.33 631.31 440.76 629.69 440.93 627.63 438.67 628.03 431.44 628.94 425.54 626.8 420.48 627.4 418.89 624.41 414.64 621.72 414.66 618.67 412.9 617.56 410.62 614.45 409.06 613.97 406.8 611.6 405.66 608.92 402.4 603 399.76 599.64 400.51 597.76 402.18 598.46 403.88 595.26 404.33 590.1 408.24 583.27 409.8 583.24 407.81 581.27 405.43 571.97 400.65 565.89 399.09 560.87 399.03 556.9 399.77 546.8 402.52 548.9 399.54 547.54 397.86 547.92 395.06 545.81 393.98 543.98 391.86 544.34 389.37 561.44 387.83 571.36 386.8 585.45 385.1 Z" fill-rule="evenodd" fill="#18213c" stroke="#52607a" stroke-width="1" id="US-FL" data-shapename="Florida"/>
<path d="M 301.72 166.18 318.76 167.52 334.54 168.63 357.65 169.75 376.89 170.39 377.29 171.36 384.24 174.84 385.7 173.04 387.85 173.55 393.02 173.16 395.38 174.98 397.45 175.23 401.39 177.39 402.53 180.05 404.68 180.32 405.1 183.07 406.33 185.2 408.54 191.34 409.87 193.32 409.14 195.22 409.49 198.22 411.8 199.62 412.39 202.29 412.59 208.04 413.39 210.38 412.35 213.04 414.05 215.98 416.08 220.55 419.26 224.55 419.06 226.2 420.55 226.91 395.92 226.84 372.42 226.36 347.56 225.43 325.2 224.16 326.4 205.48 298.55 203.43 301.72 166.18 Z" fill="#18213c" stroke="#52607a" stroke-width="1" id="US-NE" data-shapename="Nebraska"/>
<path d="M 152.36 30.84 148.72 46.51 141.84 77.16 142.28 82.16 141.2 83.58 141.65 85.29 115.52 79.06 113.47 79.84 107.09 78.75 106.28 79.48 102.4 79.11 98.86 80.08 95.02 79.57 93.61 78.32 90.48 78.92 87.47 78.56 82.23 75.62 78.63 75 74.37 76.19 72.34 76.3 67.35 73.52 66.44 72.5 67.38 66.9 66.9 64.39 64.79 61.81 62.54 61.93 59.83 58.91 58.18 57.54 55.67 58.04 54.69 56.4 55.44 53.53 56.89 53.1 56.65 49.31 55.67 48.23 56.42 46.11 58.06 45.54 58.06 43.47 56.48 43.16 56.89 38.14 56.25 36.62 57.05 29.47 55.6 26.29 55.72 20.73 57.47 18.16 58.8 17.87 60.48 19.97 62.13 20.92 63.93 23.1 67.97 24.52 71.14 26.42 75.59 28.44 78.98 28.24 79.81 29.25 79.39 33.63 76.1 34.59 76.95 36.73 78.47 34.66 80.93 33.23 80.52 36.35 78.91 39.48 78.04 42.7 76.84 44.7 73.78 45.77 74.93 47.06 77.6 44.49 80.64 43.54 80.8 38.05 81.97 35.55 85.19 32.37 83.96 30.11 84.47 26.36 83.44 25.37 85.62 21.4 85.19 17.9 83.28 16.85 82.76 15.12 83.69 13.14 95.66 16.63 116.61 22.21 142.07 28.47 152.36 30.84 Z" fill="#18213c" stroke="#52607a" stroke-width="1" id="US-WA" data-shapename="Washington"/>
<path d="M 307.65 279.36 306.95 288.69 306.37 288.65 302.84 335.77 301.17 353.9 299.79 372.48 276.8 370.6 264.15 369.4 244.15 367.29 243.52 369.2 245.12 371.47 218.82 368.3 217.74 376.61 204.52 374.86 207.34 354.69 219.08 270 230.71 271.56 260.67 275.21 288 277.89 307.65 279.36 Z" fill="#18213c" stroke="#52607a" stroke-width="1" id="US-NM" data-shapename="New Mexico"/>
<path d="M 404.68 180.32 402.53 180.05 401.39 177.39 397.45 175.23 395.38 174.98 393.02 173.16 387.85 173.55 385.7 173.04 384.24 174.84 377.29 171.36 376.89 170.39 357.65 169.75 334.54 168.63 318.76 167.52 301.72 166.18 304.8 129.08 305.04 129.09 306.46 111.54 323.8 112.89 336.52 113.74 356.64 114.82 379.42 115.72 403.45 116.12 403.18 118.26 399.58 122.21 401.86 125.86 404.36 126.87 404.83 127.97 404.67 161.46 402.7 161.44 403.74 163.8 403.05 166.33 404.82 168.67 403.98 171.55 402.06 175.7 403.73 177.7 404.68 180.32 Z" fill="#18213c" stroke="#52607a" stroke-width="1" id="SU-SD" data-shapename="South Dakota"/>
<path d="M 387.38 471.52 387.51 466.81 388.12 462.48 390.21 457.45 390.89 457.67 388.65 462.86 388.02 465.41 387.85 470.73 387.38 471.52 Z M 306.95 288.69 324.36 289.88 335.34 290.52 351.42 291.28 349.9 327.54 351.51 327.73 354.41 331.13 356.35 330.46 361.78 332.16 362.01 334.48 366.14 335.22 368.45 336.14 371 335.76 372.68 337.63 374.58 335.92 377.56 336.79 378.84 338.91 380.93 339.18 380.56 341.18 382.02 341.84 385.14 339.24 386.37 340.89 392.64 341.15 392.74 344.09 396.59 339.99 397.46 341.98 400.16 342.06 404.27 343.47 408.03 343.77 408.49 342.33 411.67 341.89 413.14 342.3 416.65 340.64 419.35 341.77 421.84 341.54 422.77 339.95 425.19 341.06 428.16 343.94 431.31 345.46 434.09 345.88 435.6 347.56 440.93 347.35 441.14 357.3 441.56 376.44 443.87 378.22 445.57 381.76 444.91 383.7 446.46 385 447.48 388.86 450.41 394.16 449.54 394.93 448.79 400.44 447.05 403.5 447.64 405.24 446.66 406.99 447.62 407.98 447.47 412.38 444.41 416.68 445.73 419.14 441.2 419.95 435.24 422.67 434.33 421.56 430.82 422.5 431.7 420.61 431.73 418.22 429.91 418.16 429.01 419.79 426.71 420.54 426.67 421.98 428.74 424.2 428.68 426.59 424.33 430.03 425.04 430.96 420.83 434.71 414.5 438.13 407.4 441.62 396.73 449.61 397.31 447.53 399.21 447.09 400.84 445.39 403.52 444.47 403.33 443.07 399.51 444.97 395.41 448.46 393.8 447.24 390.6 449.26 393.55 450.21 391.55 453.13 385.7 453 388.52 455.76 390 456.28 387.4 463.01 385.85 462.02 384.02 463.75 385.29 464.83 387.09 464.34 386.22 474.7 386.91 477.63 388.93 482.06 389.35 485.92 391.3 486.81 391.38 488.38 388.98 488.31 386.65 490.39 382.19 486.8 379.09 486.14 372.82 485.87 369.31 482.96 365.8 482.67 363.55 480.16 358.95 479.52 357.61 476.91 357.02 473.42 356.1 471.2 353.17 467.06 353.48 463.62 352.58 463.18 352.97 459.2 351.06 456.3 349.39 455.99 346.76 453.31 346.43 451.48 343.51 446.72 341.49 445.77 340.15 443.97 339.57 441.01 337.1 436.85 336.47 433.78 334.88 431.52 334.65 428.62 332.54 425.53 329.54 423.44 328.73 421.66 325.55 420.03 324.02 417.8 323.39 415.57 321.4 414.95 318.51 415.43 316.85 414.42 312.71 414.62 309.14 412.7 307.26 414.67 306.04 414.19 302.66 415.16 300.51 418.71 299.79 421.69 294.15 428.47 290 426.92 287.98 424.56 285.63 423.98 284.35 422.24 281.3 421.42 278.45 419.43 277.01 417.01 275.79 416.78 273.12 414.3 272.74 412.4 270.95 408.88 271.28 404.11 268.88 399.94 268.94 397.99 267.04 394.24 263.9 391.71 261.19 390.44 258.86 387.77 258.29 385.96 255.78 384.15 253.31 380.19 249.53 377.89 247.32 372.67 245.12 371.47 243.52 369.2 244.15 367.29 264.15 369.4 276.8 370.6 299.79 372.48 301.17 353.9 302.84 335.77 306.37 288.65 306.95 288.69 Z" fill-rule="evenodd" fill="#18213c" stroke="#52607a" stroke-width="1" id="US-TX" data-shapename="Texas"/>
<path d="M 43.03 292.08 46.25 292.27 46.44 294.14 44.43 294.5 43.03 292.08 Z M 28.39 132.36 35.67 134.63 52.63 139.3 71.08 144.73 84.14 148.14 74.63 185.09 70.1 202.44 115.56 270.56 130.58 293.01 130.12 295.07 131.95 298.82 132.92 303.97 135.45 307.28 133.67 309.15 130.59 310.06 128.16 312.87 127.89 317.35 126.94 319.91 123.38 322.13 123.57 324.55 122.51 327.69 122.86 328.89 125.08 329.46 125.56 331.9 124.04 334.47 120.95 334.58 83.53 330.14 83.43 327.48 82.23 326.67 83.03 323.44 82.87 318.75 81.08 314.29 77.76 309.53 75.89 307.83 72.98 304.15 70.91 304.76 69.12 303.01 69.96 301.98 69.58 299.64 68.19 297.65 64.47 297.54 59.03 293.39 58.65 290.97 55.11 287.22 50.43 286.19 46.85 283.98 41.86 283.17 41.63 281.66 39.93 280.16 41.19 278.02 41.71 275.49 41.09 274.17 42.47 271.46 41.99 269.21 39.47 267.05 40.63 264.35 38.96 262.79 37.44 258.99 36.22 258.1 35.77 255.67 34.38 253.24 32.27 246.71 30.93 245.42 30.48 240.46 31.31 237.91 33.05 237.94 34.31 235.44 33.17 231.73 31.08 231.73 29.24 229.7 27.55 225.91 28.45 222.98 27.65 219.59 29.02 214.93 30.68 214.8 30.22 218.94 33.28 221.6 33.19 217.87 31.58 215.64 32.39 214.43 31.39 212.05 33.5 211.49 32.58 208.88 31.07 209.06 29.43 214.28 26.97 212.13 25.85 209.8 24.38 208.69 25.13 204.61 23.95 200.39 21.67 197.34 20.94 194.63 18.89 191.17 18.36 188.84 19.43 186.31 19.12 181.4 21.06 177.98 21.4 172.58 19.38 166.69 16.83 162.83 17.23 159.38 19.25 156.61 22.96 152.66 24.41 150.15 24.03 149.12 27.31 142.96 27.71 137.8 26.66 136 28.39 132.36 Z" fill-rule="evenodd" fill="#18213c" stroke="#52607a" stroke-width="1" id="US-CA" data-shapename="California"/>
<path d="M 532.64 402.07 529.15 373.9 529.87 338.25 530.39 317.64 528.68 315.84 528.62 315.62 548.86 314.11 567.8 312.29 577.37 346.51 578.99 351.89 580.32 354.87 582.82 358.37 582.62 360.66 583.98 362.42 582.1 364.33 582.46 366.52 581.44 369.51 582.03 372.49 583.68 375.18 583.16 380.51 583.55 382.23 585.45 385.1 571.36 386.8 561.44 387.83 544.34 389.37 543.98 391.86 545.81 393.98 547.92 395.06 547.54 397.86 548.9 399.54 546.8 402.52 544.63 403.29 540.39 400.68 539.71 396.27 538.36 395.77 537.28 397.95 537.23 401.55 533.5 401.34 532.64 402.07 Z" fill="#18213c" stroke="#52607a" stroke-width="1" id="US-AL" data-shapename="Alabama"/>
<path d="M 587.09 309.97 597.63 308.67 605.27 307.38 604.94 308.86 602.56 311.73 602.6 313.66 608.2 316.95 609.69 316.47 612.6 320.22 613.05 321.82 616.32 325.76 621.53 328.65 622.64 330.79 625.11 331.68 627.08 333.19 627.21 335.14 628.77 335.92 631.57 339.16 635.14 340.69 636.71 343.68 637.68 347 641.18 349.92 642.66 352.16 643.39 355.87 647.32 357.12 647.04 358.97 644.42 363.47 644.3 367.39 642.88 370.38 643.54 372.21 641.78 375.22 642.48 379.19 642.4 382.85 637.74 382.81 634.09 381.9 632.9 383.54 633.94 386.88 633.81 390.66 631.23 390.32 630.61 387.27 588.25 390.18 585.45 385.1 583.55 382.23 583.16 380.51 583.68 375.18 582.03 372.49 581.44 369.51 582.46 366.52 582.1 364.33 583.98 362.42 582.62 360.66 582.82 358.37 580.32 354.87 578.99 351.89 577.37 346.51 567.8 312.29 587.09 309.97 Z" fill="#18213c" stroke="#52607a" stroke-width="1" id="US-GA" data-shapename="Georgia"/>
<path d="M 644.27 211.82 629.67 214.29 626.89 197.34 622.82 172.61 626.96 169.71 632.17 165.5 633.04 170.48 645.05 168.38 660.25 165.5 679.21 161.67 692.44 158.8 694.25 160.87 696.39 160.97 697.56 162.4 699.62 167.14 703.22 167.45 704.03 168.51 702.42 170.42 702.23 172.31 700.84 175.34 699.63 176.54 701.22 178.59 699.94 180.56 700.42 184.25 702.31 184.55 702.95 186.79 707.73 189.61 707.48 191.34 703.81 195.5 703.96 196.8 700.54 199.15 700.4 199.09 698.11 198.98 695.68 201.74 671.39 206.79 644.27 211.82 Z" fill="#18213c" stroke="#52607a" stroke-width="1" id="US-PA" data-shapename="Pennsylvania"/>
<path d="M 431.27 292.39 431.14 283.03 430.94 269.48 430.7 243.33 427.59 241.64 426.13 238.39 423.54 235.63 426.01 230.8 425.51 228.71 423.74 229.47 420.55 226.91 419.06 226.2 419.26 224.55 416.08 220.55 414.05 215.98 429.97 216.11 449.21 215.51 465.52 214.55 470.66 214.1 473.7 217.77 475.21 218.31 474.12 220.97 474.45 224.75 475.62 226.74 475.5 228.38 476.53 230.42 481.15 235.07 486.11 238.88 487.36 244.88 489.1 245.79 490.36 243.96 493.29 244.7 495.34 245.89 494.15 248.16 494.65 249.97 492.47 254.92 492.59 257.98 495.99 260.62 499.55 264.01 501.1 264.11 505.45 267.08 505.56 269.86 507 273.38 505.89 274.63 508.24 279.02 511.93 279.84 512.44 283.68 511.09 287.65 508.97 286.75 508.37 289.16 507.36 289.26 506.56 289.31 506.94 293.89 504.44 294.38 506.22 296.29 504.31 298.79 494.7 299.49 495.83 297.19 499.02 293.46 498.92 291.98 497.48 289.89 478.89 290.93 464.54 291.55 448.94 292.03 431.27 292.39 Z" fill="#18213c" stroke="#52607a" stroke-width="1" id="US-MO" data-shapename="Missouri"/>
<path d="M 321.76 280.46 307.65 279.36 288 277.89 260.67 275.21 230.71 271.56 219.08 270 222.12 248.37 222.14 246.28 224.44 230.5 229.27 195.72 248.07 198.16 275.24 201.33 298.55 203.43 326.4 205.48 325.2 224.16 322.58 267.61 321.76 280.46 Z" fill="#18213c" stroke="#52607a" stroke-width="1" id="US-CO" data-shapename="Colorado"/>
<path d="M 164.08 166.13 166.74 166.74 204.67 173.12 201.71 191.67 212.86 193.45 229.27 195.72 224.44 230.5 222.14 246.28 222.12 248.37 219.08 270 198.33 267 163.99 261.24 146.3 257.96 151.6 230.37 164.08 166.13 Z" fill="#18213c" stroke="#52607a" stroke-width="1" id="US-UT" data-shapename="Utah"/>
<path d="M 528.68 315.84 514.25 316.99 496.84 318.11 498.32 317.44 498.75 315.7 500.36 315.23 498.92 313.1 499.06 310.13 500.27 307.54 501.62 306.45 501.38 303.9 503.29 303.43 504.31 298.79 506.22 296.29 504.44 294.38 506.94 293.89 506.56 289.31 507.36 289.26 508.37 289.16 528.55 287.65 528.01 284.29 531.29 284.86 553.68 282.46 561.11 282.19 570.48 281.09 580.14 280.5 592.71 279.18 592.89 278.81 604.47 277.39 622.24 274.91 621.82 279.73 619.65 280.72 618.31 284.35 614.49 284.63 612.86 285.85 611.1 288.36 609.61 286.65 605.82 289.86 605.15 292.71 603.71 292.69 601.47 294.18 600.57 295.66 598.04 297.73 593.97 298.28 590.7 301.53 590.84 303.71 587.02 305.51 587.09 309.97 567.8 312.29 548.86 314.11 528.62 315.62 528.68 315.84 Z" fill="#18213c" stroke="#52607a" stroke-width="1" id="US-TN" data-shapename="Tennessee"/>
<path d="M 204.67 173.12 206.84 159.82 211.89 127.45 213.4 117.84 217.92 118.72 238.82 121.54 239.07 121.7 265.15 125.09 280.28 126.82 280.49 126.72 304.8 129.08 301.72 166.18 298.55 203.43 275.24 201.33 248.07 198.16 229.27 195.72 212.86 193.45 201.71 191.67 204.67 173.12 Z" fill="#18213c" stroke="#52607a" stroke-width="1" id="US-WY" data-shapename="Wyoming"/>
<path d="M 717.2 138.73 716.87 151.5 717.31 152.1 719.76 166.02 721.05 167.3 718.22 170.14 719.68 172.01 722.53 173.01 723.4 171.69 725.85 172.05 728.03 170.4 733.54 168.68 736.24 165.79 740.8 166.65 742.26 164.73 743.44 164.86 736.37 170.69 727.34 176.98 722.62 179.03 719.79 179.58 717.74 180.99 716 179.82 715.88 178.22 716.26 172.59 704.03 168.51 703.22 167.45 699.62 167.14 697.56 162.4 696.39 160.97 694.25 160.87 692.44 158.8 679.21 161.67 660.25 165.5 645.05 168.38 633.04 170.48 632.17 165.5 635.88 162.17 637.4 160.17 639.61 158.6 640.42 156.04 642.58 154.12 642.43 152.83 639.71 149.06 638.29 145.58 643.69 142.8 650.65 141.15 655.38 140.96 658.28 142.28 661.1 140.92 666.37 140 669.41 137.98 669.99 136.59 672.48 133.98 675.01 132.46 673.63 128.16 674.58 125.72 672.57 124.97 670.79 123.25 671.18 121.37 675.73 117.18 677.05 114.08 681.7 106.95 685.42 103.32 689.06 102.19 695.98 100.75 706.19 97.94 706.48 101.18 707.29 101.92 707.31 105.19 708.9 107.06 709.84 111.17 709.18 112.93 709.21 115.72 711.54 120.39 711.2 122.04 713.98 124.57 716.63 137.19 717.2 138.73 Z" fill="#18213c" stroke="#52607a" stroke-width="1" id="US-NY" data-shapename="New York"/>
<path d="M 431.14 283.03 403.39 283.17 378.05 282.82 357 282.13 337.9 281.3 321.76 280.46 322.58 267.61 325.2 224.16 347.56 225.43 372.42 226.36 395.92 226.84 420.55 226.91 423.74 229.47 425.51 228.71 426.01 230.8 423.54 235.63 426.13 238.39 427.59 241.64 430.7 243.33 430.94 269.48 431.14 283.03 Z" fill="#18213c" stroke="#52607a" stroke-width="1" id="US-KS" data-shapename="Kansas"/>
<path d="M 162.68 479.14 164.52 476.08 167.27 478.41 169.11 481.07 170.7 482.17 171.62 485.18 168.32 486.77 166.79 485.4 165.66 481.3 162.68 479.14 Z M 159.14 473.67 160.74 471.47 164.22 471.81 166.45 473.81 162.57 475.76 161.94 477.93 159.14 473.67 Z M 155.02 463.69 156.13 464.47 158.18 465.06 159.62 466.71 160.41 469.65 158.18 469.95 156.72 467.78 155.98 465.37 155.02 463.69 Z M 153.77 471.06 154.4 469.55 156.67 470.62 158.53 474.59 159.1 477.38 155.23 474.82 155.75 473.89 153.77 471.06 Z M 149.74 467.08 152.09 464.9 155.54 465.93 156.46 468.8 153.83 468.87 151.78 469.94 149.74 467.08 Z M 88.72 469.7 92.9 466 93.61 469.41 90.59 470.48 88.72 469.7 Z M 83.23 474.13 87.41 470.78 92.3 470.83 92.34 474.4 89.53 475.65 85.88 478.59 83.99 476.67 83.23 474.13 Z M 41.32 485.79 43.3 484.37 46.15 483.78 47.5 484.18 47.36 486.76 44.33 486.39 41.44 486.94 41.32 485.79 Z M 43.11 445.78 47.57 445.8 49.06 446.94 48.57 449.57 46.7 449.71 43.81 447.61 43.11 445.78 Z M 27.53 490.85 30.87 490.4 32.07 487.64 33.73 487.74 34.44 490.26 32.57 491.14 28.18 491.5 27.53 490.85 Z M 52.45 409.1 60.57 406.26 64.16 405.73 65.82 406.09 65.01 409.56 69.93 410.99 71.23 409.8 69.42 404.74 67.02 402.75 66.53 398.8 64.33 395.41 62.96 394.17 62.54 392.02 63.75 389.12 68.68 390.03 71.52 388.2 72.9 384.91 76.34 381.94 78.84 382.13 82 379.79 85.68 380.16 88.85 377.45 92.58 378.84 93.45 381.15 96.6 380.82 98.79 381.63 99.3 383.49 101.09 384.86 102.58 384.2 105.73 384.29 110.33 386.55 113.65 386.68 115.57 387.75 119.47 386.18 124.21 389.3 125.16 389.18 132.11 453.67 135.66 454.13 136.5 452.95 138.56 452.56 138.39 454.43 144.71 459.42 145.63 461.61 148.35 459.35 149.1 455.87 151.32 454.34 153.17 455.63 153.79 457.5 155.64 458.18 156.81 459.85 160.53 462.08 164.93 467.69 167.51 470.27 167.51 471.49 172.11 473.64 176.26 474.53 176.74 476.95 178.32 479.98 177.59 482.78 175.54 484.18 174.24 481.73 172.01 481.52 169.42 480.16 169.05 477.71 166.88 477.5 167.52 474.88 167.08 473.58 161.91 469.4 160.67 467.12 158.16 464.24 156.38 464.28 154.76 462 154.83 464.2 152.65 463.77 149.13 465.93 148.2 464.89 145.15 463.72 142.94 461.29 134.93 457.64 132.92 457.52 130.34 456.26 127.05 455.71 122.46 456.73 119.33 454.85 117.84 454.78 116.1 452.9 112.65 450.32 108.05 451.95 108.61 453.99 107.37 455.26 107.78 456.92 105.5 457.57 103.64 457.06 102.37 458.85 98.46 461.31 95.23 462.54 95.04 458.25 96.86 455.04 96.98 451.77 100.45 449.72 100.01 447.92 96.82 449.73 94.05 452.85 92.23 457.09 89.38 458.79 86.44 461.97 89.52 463.98 87.34 465.78 85.33 469.09 82.82 469.67 80.52 471.67 78.24 472.63 76.45 475.76 73.77 476.99 70.55 477.68 68.54 479.19 68.44 481.53 64.09 482.07 62.96 481.62 59.98 483.6 56.83 483.94 55.19 483.26 53.79 484.92 48.09 485.39 49.02 483.58 50.8 482.94 55.43 479.87 57.52 479.66 58.58 480.99 61.47 478.34 67.38 475.49 69.94 473.08 72.82 471.32 74.61 464.98 76.28 462.63 72.07 463.83 70.36 461.79 68.8 464.63 68.03 462.1 66.28 461.72 65.09 460.17 61.39 460.81 59.98 459.12 59.5 456.88 61.05 455.56 60.11 451.36 56.87 452.06 54.35 451.9 50.85 445.4 52.73 443.97 51.94 441.33 50.44 439.98 50.62 436.39 54.6 432.75 56.13 432.3 56.57 430.12 58.62 428.27 61.28 430.41 63.56 429.58 65.13 428.09 68.53 428.7 70.01 427.1 70.07 424.04 68.98 421.66 71.06 421.33 70.26 419.24 65.93 420.81 60.93 419.39 58.71 419.73 55.59 417.82 55.03 414.22 56.17 412.51 53.89 411.34 52.45 409.1 Z M 37.14 419.65 38.1 418.17 40.04 420.1 42.07 419.99 42.34 421.6 45.8 424.11 42.8 424.8 40.49 421.83 37.14 419.65 Z" fill-rule="evenodd" fill="#18213c" stroke="#52607a" stroke-width="1" id="US-AK" data-shapename="Alaska"/>
<path d="M 123.91 157.64 132.73 159.66 150.72 163.45 164.08 166.13 151.6 230.37 146.3 257.96 143.54 272.82 141.61 275.41 140.05 275.56 138.56 272.81 134.76 272.08 132.75 272.78 132.88 276.3 131.7 283.93 132.31 287.19 131.98 290.68 130.58 293.01 115.56 270.56 70.1 202.44 74.63 185.09 84.14 148.14 101.51 152.55 123.91 157.64 Z" fill="#18213c" stroke="#52607a" stroke-width="1" id="US-NV" data-shapename="Nevada"/>
<path d="M 511.93 279.84 508.24 279.02 505.89 274.63 507 273.38 505.56 269.86 505.45 267.08 501.1 264.11 499.55 264.01 495.99 260.62 492.59 257.98 492.47 254.92 494.65 249.97 494.15 248.16 495.34 245.89 493.29 244.7 490.36 243.96 489.1 245.79 487.36 244.88 486.11 238.88 481.15 235.07 476.53 230.42 475.5 228.38 475.62 226.74 474.45 224.75 474.12 220.97 475.21 218.31 475.81 218.02 475.99 213.93 479.12 212.59 479.37 209.79 481.05 207.82 481.14 204.54 478.68 201.95 479.45 198.68 484.8 197.48 488.99 194.89 489.21 192.13 490.97 190.61 491.29 186.85 490.75 184.71 487.62 183.02 487.13 181.12 483.88 177.94 509.19 176.57 522.59 175.47 522.45 179.06 524.9 183.09 526.28 187.3 527.68 189.74 531.51 233.78 531.11 236.25 530.05 237.9 532.44 241.1 532.77 245.87 528.56 254.19 527.46 253.92 527.34 258.23 526.43 258.97 526.88 263.31 525.18 266.12 526.61 269.47 523.72 270.09 520.97 271.55 520.55 273.51 522.09 275.86 520.64 277.58 514.76 275.08 513.12 275.45 511.12 278.86 511.93 279.84 Z" fill="#18213c" stroke="#52607a" stroke-width="1" id="US-IL" data-shapename="Illinois"/>
<path d="M 727.94 136.43 717.2 138.73 716.63 137.19 713.98 124.57 711.2 122.04 711.54 120.39 709.21 115.72 709.18 112.93 709.84 111.17 708.9 107.06 707.31 105.19 707.29 101.92 706.48 101.18 706.19 97.94 712.52 96.27 719.42 94.78 729.68 91.94 730.2 93.9 729.45 97.47 731.11 99.7 730.92 101.76 728.12 105.37 725.91 107.21 727.25 110.5 725.14 120.71 726.13 128.95 726.82 131.24 726.06 134.47 727.94 136.43 Z" fill="#18213c" stroke="#52607a" stroke-width="1" id="US-VT" data-shapename="Vermont"/>
<path d="M 211.89 127.45 210.93 126.89 208.92 122.17 207.18 122.26 205.15 124.77 201.44 124.13 198.29 124.4 196.03 123.11 194.32 125.1 190.17 123.3 188.34 124.47 186.27 123.56 186.2 119.28 184.34 116.22 181.79 114.94 182.49 111.41 181.13 109.78 179.53 104.28 179.78 100.61 177.33 99 175.41 100.64 172.39 101.9 170.09 99.09 171.15 97.68 170.67 95.62 173.33 94.09 172.52 89.34 173.64 88.63 174.71 84.81 176.91 80.33 173.19 79.75 173.34 78.48 170.02 75.57 170.07 74.25 166.56 66.76 164.17 65.45 161.98 62.31 162.91 61.68 163.26 57.8 162.21 56.49 160.31 51.85 164.26 33.43 174.45 35.59 192.86 39.24 219.6 43.97 235.87 46.49 254.21 49.1 269.39 51.03 281.22 52.4 300.98 54.43 311.19 55.32 309.5 76.2 306.46 111.54 305.04 129.09 304.8 129.08 280.49 126.72 280.28 126.82 265.15 125.09 239.07 121.7 238.82 121.54 217.92 118.72 213.4 117.84 211.89 127.45 Z" fill="#18213c" stroke="#52607a" stroke-width="1" id="US-MT" data-shapename="Montana"/>
<path d="M 414.05 215.98 412.35 213.04 413.39 210.38 412.59 208.04 412.39 202.29 411.8 199.62 409.49 198.22 409.14 195.22 409.87 193.32 408.54 191.34 406.33 185.2 405.1 183.07 404.68 180.32 403.73 177.7 402.06 175.7 403.98 171.55 404.82 168.67 403.05 166.33 403.74 163.8 402.7 161.44 404.67 161.46 414.24 161.48 431.06 161.31 447.48 160.96 475.11 159.85 475.46 162.66 477.46 164.24 476.02 166.64 476.67 170.91 478.05 173.95 479.52 174.86 482.68 175.53 483.88 177.94 487.13 181.12 487.62 183.02 490.75 184.71 491.29 186.85 490.97 190.61 489.21 192.13 488.99 194.89 484.8 197.48 479.45 198.68 478.68 201.95 481.14 204.54 481.05 207.82 479.37 209.79 479.12 212.59 475.99 213.93 475.81 218.02 475.21 218.31 473.7 217.77 470.66 214.1 465.52 214.55 449.21 215.51 429.97 216.11 414.05 215.98 Z" fill="#18213c" stroke="#52607a" stroke-width="1" id="US-IA" data-shapename="Iowa"/>
<path d="M 605.27 307.38 615.68 302.19 635.76 300.07 637.49 300.59 640.28 303.39 640.4 305.57 657.24 303.03 677.41 317.51 674.99 318.94 672.14 322.5 670.43 325.77 669.66 328.94 669.95 331.03 668.01 333.66 667.76 335.25 665.08 335.23 662.83 339.96 660.67 341.37 660.77 342.6 659.25 344.36 657.44 344.96 654.54 347.57 652.24 348.27 653.15 350.74 650.04 353 647.32 357.12 643.39 355.87 642.66 352.16 641.18 349.92 637.68 347 636.71 343.68 635.14 340.69 631.57 339.16 628.77 335.92 627.21 335.14 627.08 333.19 625.11 331.68 622.64 330.79 621.53 328.65 616.32 325.76 613.05 321.82 612.6 320.22 609.69 316.47 608.2 316.95 602.6 313.66 602.56 311.73 604.94 308.86 605.27 307.38 Z" fill="#18213c" stroke="#52607a" stroke-width="1" id="US-SC" data-shapename="South Carolina"/>
<path d="M 748.83 128.14 747.28 128.32 744.94 130.18 743.42 132.99 727.94 136.43 726.06 134.47 726.82 131.24 726.13 128.95 725.14 120.71 727.25 110.5 725.91 107.21 728.12 105.37 730.92 101.76 731.11 99.7 729.45 97.47 730.2 93.9 729.68 91.94 730.11 87.59 731.04 86.05 733.58 85.28 737.39 96.78 744.57 120.17 747.04 121.55 747.46 123.58 749.4 124.36 748.83 128.14 Z" fill="#18213c" stroke="#52607a" stroke-width="1" id="US-NH" data-shapename="New Hampshire"/>
<path d="M 219.08 270 207.34 354.69 204.52 374.86 189.6 372.71 172.77 370.13 142.85 352.92 118.69 338.4 119.21 336.17 120.95 334.58 124.04 334.47 125.56 331.9 125.08 329.46 122.86 328.89 122.51 327.69 123.57 324.55 123.38 322.13 126.94 319.91 127.89 317.35 128.16 312.87 130.59 310.06 133.67 309.15 135.45 307.28 132.92 303.97 131.95 298.82 130.12 295.07 130.58 293.01 131.98 290.68 132.31 287.19 131.7 283.93 132.88 276.3 132.75 272.78 134.76 272.08 138.56 272.81 140.05 275.56 141.61 275.41 143.54 272.82 146.3 257.96 163.99 261.24 198.33 267 219.08 270 Z" fill="#18213c" stroke="#52607a" stroke-width="1" id="US-AZ" data-shapename="Arizona"/>
<path d="M 681.75 222.46 680.08 220.07 680.96 218.73 683.2 220.23 681.75 222.46 Z" fill="#18213c" stroke="#52607a" stroke-width="1" id="US-DC" data-shapename="District of Columbia"/>
<path d="M 700.54 199.15 703.96 196.8 703.81 195.5 707.48 191.34 707.73 189.61 702.95 186.79 702.31 184.55 700.42 184.25 699.94 180.56 701.22 178.59 699.63 176.54 700.84 175.34 702.23 172.31 702.42 170.42 704.03 168.51 716.26 172.59 715.88 178.22 714.33 179.83 714.28 179.82 713.68 183.44 717.41 183.6 718.28 185.55 718.47 191.67 718.93 195.62 717.11 202.36 713.96 206.84 712.51 212.02 710.22 213.53 710.5 209.27 706.24 208.77 700.22 205.77 699.37 203.17 699.23 202.74 700.54 199.15 Z" fill="#18213c" stroke="#52607a" stroke-width="1" id="US-NJ" data-shapename="New Jersey"/>
<path d="M 710.14 231.09 704.84 232.88 704.61 233.46 702.66 233.77 701.33 235.13 700.62 229.83 698.71 227.91 696.83 228.83 694.52 228 692.94 226.24 694.34 222.07 691.72 221.19 693.52 219.81 692.7 217.23 693.26 215.98 691.13 213.74 691.72 210.3 688.69 211.31 688.95 217.35 689.47 218.02 688.71 221.93 690.63 226.55 692.56 227.99 693.5 233.22 690.2 231.75 687.94 232.09 685.2 231.27 683.35 228.76 680.96 230.88 679.57 228.82 681.04 225.6 681.75 222.46 683.2 220.23 680.96 218.73 680.08 220.07 676.51 218.33 674.74 218.43 673.57 217.32 674.27 215.68 672.44 214.49 670.25 214.63 669.41 212.84 667.54 211.45 667.57 209.71 665.18 210.23 662.53 208.96 660.22 210.45 659.13 212.94 655.87 213.07 654.15 212.08 652.48 215.7 650.6 215.45 649.12 217.77 645.8 221.35 644.27 211.82 671.39 206.79 695.68 201.74 702.01 224.57 711.14 222.72 710.55 229.67 710.14 231.09 Z" fill="#18213c" stroke="#52607a" stroke-width="1" id="US-MD" data-shapename="Maryland"/>
<path d="M 749.4 124.36 747.46 123.58 747.04 121.55 744.57 120.17 737.39 96.78 733.58 85.28 736.39 82.73 737.66 78.37 739.42 75.98 739.59 74.23 741.07 70.94 739.73 69.86 740.09 67.38 739.19 66.7 739.66 63.52 741.01 61.89 740.35 56.68 745.95 40.38 748.15 40.27 749.41 43.58 751.24 44.13 754.72 41.12 757.15 40.27 758.55 38.68 762.84 40.45 765.51 42.12 771.72 62.01 772.88 66.81 775.7 67.33 778.05 67.04 777.76 69.19 779.15 70.47 779.17 72.71 781.5 74.81 783.79 73.49 788 79.06 785.74 83.09 782.14 86.26 778.48 87.63 778.35 89.65 775.9 90.7 775.47 92.19 772.97 94.46 772.84 91.81 771.5 90.53 770.32 94.84 768.01 94.46 766.45 92.42 764.56 93.67 765.58 95.28 764.85 97.75 765 100.13 764.38 103.05 761.2 103.31 761.07 106.03 759.66 106.03 758.31 108.63 756.46 108.49 752.34 111.06 753.49 113.45 751.54 114.68 751.98 116.31 750.42 118.58 749.4 124.36 Z" fill="#18213c" stroke="#52607a" stroke-width="1" id="US-ME" data-shapename="Maine"/>
<path d="M 251.53 473.76 251.79 472.78 255.52 469.24 254.23 465.11 255.39 463.78 259.76 466.53 262.4 467 266.5 469.25 270.05 473.54 270.49 475.36 273.46 477.38 273.32 478.27 270.68 480.69 266.83 482.46 265.05 482.33 261.41 484.74 258.73 488.69 254.76 486.65 254.07 485.15 254.61 480.88 252.99 476.02 251.53 473.76 Z M 240.41 451.8 241.39 449.82 242.8 450 244.19 452.15 248.35 451.44 250.64 453.5 252.39 454.01 251.73 456.68 246.04 458.13 244.87 457.59 244.51 454.36 241.78 453.82 240.41 451.8 Z M 234.1 452.06 237.19 452.02 238.1 454.57 235.78 455.21 234.1 452.06 Z M 229.84 448.22 231.03 446.19 237.49 447.26 237.34 449.41 233.5 448.32 229.84 448.22 Z M 213.09 439.39 215.77 439.3 217.75 437.15 219.34 438.15 220.67 441.7 221.97 442.06 223.89 444.65 221.37 445.4 219.81 444.47 215.89 444.52 213.09 439.39 Z M 187.14 430.57 188.17 428.56 190.78 427.06 194.93 427.42 195.71 428.62 195.02 432.02 193 433.68 190.19 433.05 187.14 430.57 Z" fill-rule="evenodd" fill="#18213c" stroke="#52607a" stroke-width="1" id="US-HI" data-shapename="Hawaii"/>
<path d="M 695.68 201.74 698.11 198.98 700.4 199.09 699.08 202.25 699.36 205.6 702.79 208.96 703.8 212.71 707.7 216.66 709.36 216.96 711.14 222.72 702.01 224.57 695.68 201.74 Z" fill="#18213c" stroke="#52607a" stroke-width="1" id="US-DE" data-shapename="Delaware"/>
<path d="M 749.65 151.1 750.56 151.15 751.51 154.05 748.59 154.42 749.65 151.1 Z M 740.01 147.2 745.52 145.55 747.37 149.67 749.09 150.57 746.86 152.08 747.64 155.56 747.24 157.61 742.43 159.87 742.82 157.9 740.01 147.2 Z" fill-rule="evenodd" fill="#18213c" stroke="#52607a" stroke-width="1" id="US-RI" data-shapename="Rhode Island"/>
<path d="M 615.36 257.95 610.55 263.78 605.53 267.28 605.44 268.75 603.78 270.22 603.94 271.63 601.07 273 600.45 275.11 595.32 277.17 592.89 278.81 592.71 279.18 580.14 280.5 570.48 281.09 561.11 282.19 553.68 282.46 531.29 284.86 528.01 284.29 528.55 287.65 508.37 289.16 508.97 286.75 511.09 287.65 512.44 283.68 511.93 279.84 511.12 278.86 513.12 275.45 514.76 275.08 520.64 277.58 522.09 275.86 520.55 273.51 520.97 271.55 523.72 270.09 526.61 269.47 525.18 266.12 526.88 263.31 528.63 263.01 529.63 261.62 532.09 262.33 535.98 259.91 540.8 262.03 541.42 259.76 544.44 258.14 545.22 259.51 548.67 258.92 548.44 256.71 551.47 254.27 551.95 256.12 554.84 256.98 557 256.09 556.97 253.39 558.43 251.07 560.25 250.21 560.57 248.24 563.17 245.94 562.36 243.17 564.41 241.87 566.41 242.65 571.01 239.43 570.55 234.3 573.28 234.51 575.86 233.49 578.11 235.25 579.88 238.82 584.83 239.01 586.57 240.81 588.33 241.01 590 239.46 593.87 240.49 595.41 240.3 596.94 238.1 598.81 237.26 599.75 239.83 601.65 240.59 603.98 242.87 604.66 245.76 604.09 248.2 605.51 249.29 606.67 251.84 607.9 252.47 610.1 255.77 612.89 257.84 615.36 257.95 Z" fill="#18213c" stroke="#52607a" stroke-width="1" id="US-KY" data-shapename="Kentucky"/>
<path d="M 626.89 197.34 625.04 198.88 626.33 200.53 626.74 203.46 625.54 208.24 625.77 211.28 624.14 217.26 621.17 221.18 619.14 223.11 617.72 222.14 614.78 225.1 613.84 227.11 613.28 231.91 610.3 230.52 608.35 235.16 609.3 238.82 607.88 239.33 607.55 241.99 603.98 242.87 601.65 240.59 599.75 239.83 598.81 237.26 596.94 238.1 595.41 240.3 593.87 240.49 590 239.46 588.33 241.01 586.57 240.81 584.83 239.01 579.88 238.82 578.11 235.25 575.86 233.49 573.28 234.51 570.55 234.3 568.13 211.86 565.05 186.09 583.49 183.09 589.14 184.92 590.65 186.05 591.29 187.94 594.49 186.65 597.73 187.76 603.8 184.33 607.54 184.31 613.05 178.23 622.82 172.61 626.89 197.34 Z" fill="#18213c" stroke="#52607a" stroke-width="1" id="US-OH" data-shapename="Ohio"/>
<path d="M 482.5 102.34 485.16 103.37 486.59 106.35 500.1 109.13 505.92 111.46 507.72 110.75 513.19 112.14 513.81 114.72 516.4 114.99 517.95 117.69 517.37 122.49 520.03 122.41 519.15 125.51 521.16 126.89 520.85 129.11 518.41 129.8 516.62 134.27 516.57 137.61 517.63 137.62 519.61 135.47 521.35 131.65 523.91 130.18 525.68 125.07 528.29 124.01 526.95 129.4 525.26 132.23 524 135.77 523.05 141.16 523.63 143.76 522.07 145.3 521.24 149.57 521.96 153.27 521.03 155.54 519.9 161.49 521.42 168.43 522.72 170.02 522.16 172.83 522.59 175.47 509.19 176.57 483.88 177.94 482.68 175.53 479.52 174.86 478.05 173.95 476.67 170.91 476.02 166.64 477.46 164.24 475.46 162.66 475.11 159.85 474.31 157.74 474.5 154.76 471.77 150.74 469.78 150.28 465.7 147.22 464.92 144.77 461 142.98 459.53 141.05 456.59 140.75 452.94 137.44 453.45 135.83 453.52 130.8 453.21 127.46 454.62 124.54 452.92 122.27 451.43 122.16 451.54 119.52 453.53 116.15 458.08 113.72 458.77 112.63 458.37 101.63 460.9 100.02 461.88 100.77 464.78 100.87 470.46 98.32 473.51 97.36 476.39 95.33 477.9 96.54 476.32 99.16 476.07 102.39 478.85 100.72 482.5 102.34 Z" fill="#18213c" stroke="#52607a" stroke-width="1" id="US-WI" data-shapename="Wisconsin"/>
<path d="M 141.65 85.29 142.66 88.75 144.88 90.13 145.82 93.68 142.02 98.2 140.58 101.3 138.58 103.13 137.98 105.57 135.01 107.56 131.48 111.94 130.93 113.35 132.66 116.91 134.49 118.67 131.32 124.69 123.91 157.64 101.51 152.55 84.14 148.14 71.08 144.73 52.63 139.3 35.67 134.63 28.39 132.36 27.2 130.11 27.13 127.01 27.86 123.61 29.22 121.34 29.35 119.68 28.45 116.03 31 112.95 33.14 108.95 36.68 104.34 39.63 98.44 44.86 85.46 45.42 82.92 48.54 77.12 52.07 66.77 52.63 62.8 53.49 62.47 54.32 58.16 55.48 59.58 59.83 58.91 62.54 61.93 64.79 61.81 66.9 64.39 67.38 66.9 66.44 72.5 67.35 73.52 72.34 76.3 74.37 76.19 78.63 75 82.23 75.62 87.47 78.56 90.48 78.92 93.61 78.32 95.02 79.57 98.86 80.08 102.4 79.11 106.28 79.48 107.09 78.75 113.47 79.84 115.52 79.06 141.65 85.29 Z" fill="#18213c" stroke="#52607a" stroke-width="1" id="US-OR" data-shapename="Oregon"/>
<path d="M 403.45 116.12 379.42 115.72 356.64 114.82 336.52 113.74 323.8 112.89 306.46 111.54 309.5 76.2 311.19 55.32 333.81 57.05 347.31 57.85 362.3 58.56 383.44 59.22 395.55 59.43 395.47 60.4 397.07 65.29 396.16 67.44 396.75 71.95 396.37 75.22 397.49 78.86 399.92 85.08 400.33 95.41 400.82 100.67 400.5 102.65 401.51 106.75 403.03 108.79 403.54 113.02 403.45 116.12 Z" fill="#18213c" stroke="#52607a" stroke-width="1" id="US-ND" data-shapename="North Dakota"/>
<path d="M 496.84 318.11 497.84 319.7 494.8 321.46 494.63 324.53 493.73 326.39 493.37 329.27 490.83 330.21 491.03 331.35 488.1 335.2 489.05 336.64 486.06 337.81 486.77 341.46 485.76 344.74 484.36 345.53 485.31 347.63 486.84 353.4 485.79 355.99 467.22 356.69 441.14 357.3 440.93 347.35 435.6 347.56 434.09 345.88 434.39 313.07 431.27 292.39 448.94 292.03 464.54 291.55 478.89 290.93 497.48 289.89 498.92 291.98 499.02 293.46 495.83 297.19 494.7 299.49 504.31 298.79 503.29 303.43 501.38 303.9 501.62 306.45 500.27 307.54 499.06 310.13 498.92 313.1 500.36 315.23 498.75 315.7 498.32 317.44 496.84 318.11 Z" fill="#18213c" stroke="#52607a" stroke-width="1" id="US-AR" data-shapename="Arkansas"/>
<path d="M 537.2 187.88 551.39 186.45 564.91 184.9 565.05 186.09 568.13 211.86 570.55 234.3 571.01 239.43 566.41 242.65 564.41 241.87 562.36 243.17 563.17 245.94 560.57 248.24 560.25 250.21 558.43 251.07 556.97 253.39 557 256.09 554.84 256.98 551.95 256.12 551.47 254.27 548.44 256.71 548.67 258.92 545.22 259.51 544.44 258.14 541.42 259.76 540.8 262.03 535.98 259.91 532.09 262.33 529.63 261.62 528.63 263.01 526.88 263.31 526.43 258.97 527.34 258.23 527.46 253.92 528.56 254.19 532.77 245.87 532.44 241.1 530.05 237.9 531.11 236.25 531.51 233.78 527.68 189.74 529.95 191.01 533.62 190.26 537.2 187.88 Z" fill="#18213c" stroke="#52607a" stroke-width="1" id="US-IN" data-shapename="Indiana"/>
<path d="M 404.67 161.46 404.83 127.97 404.36 126.87 401.86 125.86 399.58 122.21 403.18 118.26 403.45 116.12 403.54 113.02 403.03 108.79 401.51 106.75 400.5 102.65 400.82 100.67 400.33 95.41 399.92 85.08 397.49 78.86 396.37 75.22 396.75 71.95 396.16 67.44 397.07 65.29 395.47 60.4 395.55 59.43 421.25 59.51 421.19 52.44 423.61 52.68 425.25 54.05 427.09 61.56 426.99 63.43 428.31 64.59 432.41 64.92 432.88 65.78 437.53 66.04 438.29 68.12 442.35 67.47 443.8 65.95 448.33 65.86 451.58 67.31 452.54 69.16 454.39 68.89 456.28 73.01 457.19 70.72 458.77 70.28 460.82 70.97 462.61 73 464.49 73.06 464.6 74.61 468.2 75.67 470.42 74.9 472.43 73.02 474.84 71.69 476.79 74.37 484.41 73.61 487.81 75.73 488.92 77.39 486.72 78.66 479.77 81.44 475.48 84.6 472.1 88.08 468.56 92.59 464.71 96.26 460.81 99.31 461.88 100.77 460.9 100.02 458.37 101.63 458.77 112.63 458.08 113.72 453.53 116.15 451.54 119.52 451.43 122.16 452.92 122.27 454.62 124.54 453.21 127.46 453.52 130.8 453.45 135.83 452.94 137.44 456.59 140.75 459.53 141.05 461 142.98 464.92 144.77 465.7 147.22 469.78 150.28 471.77 150.74 474.5 154.76 474.31 157.74 475.11 159.85 447.48 160.96 431.06 161.31 414.24 161.48 404.67 161.46 Z" fill="#18213c" stroke="#52607a" stroke-width="1" id="US-MN" data-shapename="Minnesota"/>
<path d="M 717.31 152.1 723.87 150.7 739.92 146.93 740.01 147.2 742.82 157.9 742.43 159.87 740.79 160.11 733.56 163.52 728.16 164.4 726.11 167.34 725.08 167.38 719.68 172.01 718.22 170.14 721.05 167.3 719.76 166.02 717.31 152.1 Z" fill="#18213c" stroke="#52607a" stroke-width="1" id="US-CT" data-shapename="Connecticut"/>
</g>
</svg>