<?xml version="1.0"?>
<svg xmlns="http://www.w3.org/2000/svg" version="1.2" baseProfile="tiny" width="800" height="963" viewBox="0 0 800 963" stroke-linecap="round" stroke-linejoin="round">
<g id="VNM-ADM1">
<path d="M 195.52 799.38 214.06 834.47 197.35 843.05 170.88 823.33 195.52 799.38 Z" fill="#18213c" stroke="#52607a" stroke-width="1" id="VN-44" data-shapename="An Giang"/>
<path d="M 305.58 818.31 316.51 809.82 334.87 811.33 338.11 822.12 310.14 835.46 306 825.2 305.58 818.31 Z" fill="#18213c" stroke="#52607a" stroke-width="1" id="VN-43" data-shapename="Bà Rịa–Vũng Tàu"/>
<path d="M 281.67 147.97 268.09 154.19 245.42 147.31 242.87 142.28 258.83 125.53 272.66 137.75 282.65 125 299.76 128 311.29 140.79 298.45 152.2 281.67 147.97 Z" fill="#18213c" stroke="#52607a" stroke-width="1" id="VN-54" data-shapename="Bắc Giang"/>
<path d="M 216.43 58.71 232.62 65.56 248.48 63.88 256.37 74.94 259.43 91.33 252.26 104.7 218.98 102.33 210.97 84.1 220.11 67.68 216.43 58.71 Z" fill="#18213c" stroke="#52607a" stroke-width="1" id="VN-53" data-shapename="Bắc Kạn"/>
<path d="M 217.55 879.1 234.94 900.7 211.01 913.15 200.84 909.16 200.39 890.7 207.24 878.76 208.67 877.97 217.55 879.1 Z" fill="#18213c" stroke="#52607a" stroke-width="1" id="VN-55" data-shapename="Bạc Liêu"/>
<path d="M 245.42 147.31 268.09 154.19 256.77 166.37 246.58 163.75 245.42 147.31 Z" fill="#18213c" stroke="#52607a" stroke-width="1" id="VN-56" data-shapename="Bắc Ninh"/>
<path d="M 284.81 839.91 292 850.43 278.67 865.4 260.33 849.99 257.62 846.33 254.39 843.55 246.75 837.27 284.81 839.91 Z" fill="#18213c" stroke="#52607a" stroke-width="1" id="VN-50" data-shapename="Bến Tre"/>
<path d="M 407.03 573.3 431.28 567.39 444.14 618.47 439.95 628.52 417.09 635.34 405.12 578.08 407.03 573.3 Z" fill="#18213c" stroke="#52607a" stroke-width="1" id="VN-31" data-shapename="Bình Định"/>
<path d="M 271.71 764.99 279.3 773.33 302.09 775.29 293.74 799.64 273.03 786.26 271.71 764.99 Z" fill="#18213c" stroke="#52607a" stroke-width="1" id="VN-57" data-shapename="Bình Dương"/>
<path d="M 302.09 775.29 279.3 773.33 271.71 764.99 271.77 752.94 274.51 734.36 302.3 727.99 317.92 714.88 329.19 746.81 324.08 760.44 302.09 775.29 Z" fill="#18213c" stroke="#52607a" stroke-width="1" id="VN-58" data-shapename="Bình Phước"/>
<path d="M 338.11 822.12 334.87 811.33 329.19 791.25 337.42 772.11 367.03 773.89 400.34 760.08 417 774.79 398.79 784.51 383.57 799.11 369.44 801.69 338.11 822.12 Z" fill="#18213c" stroke="#52607a" stroke-width="1" id="VN-40" data-shapename="Bình Thuận"/>
<path d="M 200.39 890.7 200.84 909.16 211.01 913.15 190.89 937.66 173.94 942.48 172.17 908.07 174.75 881.72 200.39 890.7 Z" fill="#18213c" stroke="#52607a" stroke-width="1" id="VN-59" data-shapename="Cà Mau"/>
<path d="M 197.35 843.05 214.06 834.47 225.73 846.97 238.88 859.1 237.04 861.28 217.5 861 197.35 843.05 Z" fill="#18213c" stroke="#52607a" stroke-width="1" id="VN-CT" data-shapename="Cần Thơ"/>
<path d="M 256.37 74.94 248.48 63.88 232.62 65.56 216.43 58.71 214.65 58.48 203.26 44.72 218.54 26.84 237.71 39.61 248.56 35.15 266.02 43.99 278.4 39.13 295.38 47.56 279.83 74.23 256.37 74.94 Z" fill="#18213c" stroke="#52607a" stroke-width="1" id="VN-04" data-shapename="Cao Bằng"/>
<path d="M 283.54 934.87 282.19 938.85 277.29 938.98 278.28 935.38 283.54 934.87 Z" fill="#18213c" stroke="#52607a" stroke-width="1" id="VN-43-con-dao" data-shapename="Côn Đảo"/>
<path d="M 383.18 485.24 365.04 487.38 354.62 479.8 375.07 470.78 383.18 485.24 Z" fill="#18213c" stroke="#52607a" stroke-width="1" id="VN-DN" data-shapename="Đà Nẵng"/>
<path d="M 342.74 650.86 371.66 643.82 384.59 648 397.63 668.21 406.2 670.84 426.9 688.32 406.77 712.62 372.91 721.42 363.28 707.45 358.59 685.65 338.46 683.28 334.24 673.31 342.74 650.86 Z" fill="#18213c" stroke="#52607a" stroke-width="1" id="VN-33" data-shapename="Đắk Lắk"/>
<path d="M 329.19 746.81 317.92 714.88 337.77 710.31 338.46 683.28 358.59 685.65 363.28 707.45 372.91 721.42 351.81 741.88 329.19 746.81 Z" fill="#18213c" stroke="#52607a" stroke-width="1" id="VN-72" data-shapename="Đắk Nông"/>
<path d="M 22.82 64.68 34.67 83.61 61.22 98.07 93.93 102.39 99.57 119.49 89.69 137.62 90.02 152.88 76.7 171.65 61.79 160.05 57.15 141.7 62.16 117.38 44.01 122.18 40.59 105.9 12 73.83 22.82 64.68 Z" fill="#18213c" stroke="#52607a" stroke-width="1" id="VN-71" data-shapename="Điện Biên"/>
<path d="M 334.87 811.33 316.51 809.82 305.58 818.31 290.24 816.09 293.74 799.64 302.09 775.29 324.08 760.44 337.42 772.11 329.19 791.25 334.87 811.33 Z" fill="#18213c" stroke="#52607a" stroke-width="1" id="VN-39" data-shapename="Đồng Nai"/>
<path d="M 214.06 834.47 195.52 799.38 215.04 796.98 240.36 822.46 238.39 838.47 225.73 846.97 214.06 834.47 Z" fill="#18213c" stroke="#52607a" stroke-width="1" id="VN-45" data-shapename="Đồng Tháp"/>
<path d="M 407.03 573.3 405.12 578.08 417.09 635.34 418.56 654.33 406.2 670.84 397.63 668.21 384.59 648 371.66 643.82 342.74 650.86 341.96 635.85 331.98 621.18 333.42 610.27 347.9 594.27 366.86 591.68 403.64 570.17 407.03 573.3 Z" fill="#18213c" stroke="#52607a" stroke-width="1" id="VN-30" data-shapename="Gia Lai"/>
<path d="M 218.54 26.84 203.26 44.72 214.65 58.48 194 58.87 186.94 81.38 175.23 87.92 159.39 83.68 145.82 54.83 168.55 45.94 172.98 26.08 201.58 12 218.54 26.84 Z" fill="#18213c" stroke="#52607a" stroke-width="1" id="VN-03" data-shapename="Hà Giang"/>
<path d="M 240.65 205.86 237.77 203.78 233.54 194.24 249.19 184.48 254.85 189.59 258.76 198.62 240.65 205.86 Z" fill="#18213c" stroke="#52607a" stroke-width="1" id="VN-63" data-shapename="Hà Nam"/>
<path d="M 242.87 142.28 245.42 147.31 246.58 163.75 249.19 184.48 233.54 194.24 215.37 163.39 208.49 164.71 214.55 146.78 234.8 155.86 235.89 139.08 242.87 142.28 Z" fill="#18213c" stroke="#52607a" stroke-width="1" id="VN-HN" data-shapename="Hà Nội	"/>
<path d="M 195.8 318.89 216.47 321.24 228.4 314.32 250.48 339.12 275.51 359.64 253.8 362.32 239.33 351.46 223.32 358.12 197.02 336.98 195.8 318.89 Z" fill="#18213c" stroke="#52607a" stroke-width="1" id="VN-23" data-shapename="Hà Tĩnh"/>
<path d="M 268.09 154.19 281.67 147.97 289.01 159.81 280.15 178.3 270.28 182.86 262.78 184.8 256.77 166.37 268.09 154.19 Z" fill="#18213c" stroke="#52607a" stroke-width="1" id="VN-61" data-shapename="Hải Dương"/>
<path d="M 270.28 182.86 280.15 178.3 289.01 159.81 299.88 165.78 298.42 178.51 283.13 188.78 270.28 182.86 Z" fill="#18213c" stroke="#52607a" stroke-width="1" id="VN-HP" data-shapename="Hải Phòng"/>
<path d="M 217.55 879.1 208.67 877.97 208.19 876.96 217.5 861 237.04 861.28 235.11 870.51 217.55 879.1 Z" fill="#18213c" stroke="#52607a" stroke-width="1" id="VN-73" data-shapename="Hậu Giang"/>
<path d="M 305.58 818.31 306 825.2 292.55 830.8 289.8 824.28 273.05 812.7 270.06 798.48 273.03 786.26 293.74 799.64 290.24 816.09 305.58 818.31 Z" fill="#18213c" stroke="#52607a" stroke-width="1" id="VN-SG" data-shapename="Ho Chi Minh"/>
<path d="M 233.54 194.24 237.77 203.78 216.98 208.12 175.64 187.2 185.94 181.91 180.68 159.02 194.08 168.69 208.49 164.71 215.37 163.39 233.54 194.24 Z" fill="#18213c" stroke="#52607a" stroke-width="1" id="VN-14" data-shapename="Hòa Bình"/>
<path d="M 246.58 163.75 256.77 166.37 262.78 184.8 254.85 189.59 249.19 184.48 246.58 163.75 Z" fill="#18213c" stroke="#52607a" stroke-width="1" id="VN-66" data-shapename="Hưng Yên"/>
<path d="M 406.77 712.62 426.9 688.32 449.6 680.12 452.73 697.76 438.33 717.21 442.44 736.03 436.92 744.01 418.22 736.52 409.56 722.53 406.77 712.62 Z" fill="#18213c" stroke="#52607a" stroke-width="1" id="VN-34" data-shapename="Khánh Hòa"/>
<path d="M 170.88 823.33 197.35 843.05 217.5 861 208.19 876.96 207.24 878.76 200.39 890.7 174.75 881.72 177.64 865.85 190.41 857.38 154.06 832.7 170.88 823.33 Z" fill="#18213c" stroke="#52607a" stroke-width="1" id="VN-47" data-shapename="Kiên Giang"/>
<path d="M 403.64 570.17 366.86 591.68 347.9 594.27 333.42 610.27 325.31 599.49 334.11 583.24 341.13 554.38 342.41 520.89 353.25 531.78 384.59 543.47 402.82 559.93 403.64 570.17 Z" fill="#18213c" stroke="#52607a" stroke-width="1" id="VN-28" data-shapename="Kon Tum"/>
<path d="M 93.93 102.39 61.22 98.07 34.67 83.61 22.82 64.68 33.14 49.62 67.44 71.12 84.43 46.74 96.03 61.55 110.55 75.06 123.02 102.04 119.37 119.47 102.92 100.94 93.93 102.39 Z" fill="#18213c" stroke="#52607a" stroke-width="1" id="VN-01" data-shapename="Lai Châu"/>
<path d="M 324.08 760.44 329.19 746.81 351.81 741.88 372.91 721.42 406.77 712.62 409.56 722.53 400.34 760.08 367.03 773.89 337.42 772.11 324.08 760.44 Z" fill="#18213c" stroke="#52607a" stroke-width="1" id="VN-35" data-shapename="Lâm Đồng"/>
<path d="M 311.29 140.79 299.76 128 282.65 125 272.66 137.75 258.83 125.53 252.26 104.7 259.43 91.33 256.37 74.94 279.83 74.23 288.33 100.26 310.04 106.51 328.77 125.27 325.66 137.66 311.29 140.79 Z" fill="#18213c" stroke="#52607a" stroke-width="1" id="VN-09" data-shapename="Lạng Sơn"/>
<path d="M 145.82 54.83 159.39 83.68 149.18 87.98 151.74 105.06 136.5 108.21 123.02 102.04 110.55 75.06 96.03 61.55 102.36 48.06 116.24 62.62 140.46 46.22 145.82 54.83 Z" fill="#18213c" stroke="#52607a" stroke-width="1" id="VN-02" data-shapename="Lào Cai"/>
<path d="M 240.36 822.46 215.04 796.98 229.58 791.85 236.06 801.9 256.75 795.6 270.06 798.48 273.05 812.7 289.8 824.28 270.16 832.23 261.47 821.12 240.36 822.46 Z" fill="#18213c" stroke="#52607a" stroke-width="1" id="VN-41" data-shapename="Long An"/>
<path d="M 258.76 198.62 280.91 209.92 250.83 230.68 255.64 219.56 240.65 205.86 258.76 198.62 Z" fill="#18213c" stroke="#52607a" stroke-width="1" id="VN-67" data-shapename="Nam Định"/>
<path d="M 228.4 314.32 216.47 321.24 195.8 318.89 169.44 306.26 153.59 293.25 117 272.87 132.25 262.33 139.13 248.5 162.9 253.14 180.33 227.03 192 239.26 202.35 261 232.94 273.84 220.79 295.34 228.4 314.32 Z" fill="#18213c" stroke="#52607a" stroke-width="1" id="VN-22" data-shapename="Nghệ An"/>
<path d="M 237.77 203.78 240.65 205.86 255.64 219.56 250.83 230.68 246.93 229.47 216.98 208.12 237.77 203.78 Z" fill="#18213c" stroke="#52607a" stroke-width="1" id="VN-18" data-shapename="Ninh Bình"/>
<path d="M 417 774.79 400.34 760.08 409.56 722.53 418.22 736.52 436.92 744.01 426.55 772.72 417 774.79 Z" fill="#18213c" stroke="#52607a" stroke-width="1" id="VN-36" data-shapename="Ninh Thuận"/>
<path d="M 214.55 146.78 208.49 164.71 194.08 168.69 180.68 159.02 176.67 144.44 181.62 123.42 192.63 119.01 206.48 131.13 214.55 146.78 Z" fill="#18213c" stroke="#52607a" stroke-width="1" id="VN-68" data-shapename="Phú Thọ"/>
<path d="M 417.09 635.34 439.95 628.52 439.76 644.82 449.6 680.12 426.9 688.32 406.2 670.84 418.56 654.33 417.09 635.34 Z" fill="#18213c" stroke="#52607a" stroke-width="1" id="VN-32" data-shapename="Phú Yên"/>
<path d="M 223.32 358.12 239.33 351.46 253.8 362.32 275.51 359.64 276.06 378.17 305.23 410.08 290.23 424.61 277.93 420.96 252.5 399.66 221.76 364.28 223.32 358.12 Z" fill="#18213c" stroke="#52607a" stroke-width="1" id="VN-24" data-shapename="Quảng Bình"/>
<path d="M 383.18 485.24 410.62 521.14 388.49 527.13 384.59 543.47 353.25 531.78 342.41 520.89 329.7 514.86 318.4 498.97 333.54 481.9 354.62 479.8 365.04 487.38 383.18 485.24 Z" fill="#18213c" stroke="#52607a" stroke-width="1" id="VN-27" data-shapename="Quảng Nam"/>
<path d="M 431.28 567.39 407.03 573.3 403.64 570.17 402.82 559.93 384.59 543.47 388.49 527.13 410.62 521.14 418.91 525.66 421.63 546.56 431.28 567.39 Z" fill="#18213c" stroke="#52607a" stroke-width="1" id="VN-29" data-shapename="Quảng Ngãi"/>
<path d="M 281.67 147.97 298.45 152.2 311.29 140.79 325.66 137.66 328.77 125.27 358 124.21 333.29 159.81 315.11 170.16 299.88 165.78 289.01 159.81 281.67 147.97 Z" fill="#18213c" stroke="#52607a" stroke-width="1" id="VN-13" data-shapename="Quảng Ninh"/>
<path d="M 277.93 420.96 290.23 424.61 305.23 410.08 328.63 436.74 311.15 464.18 289.6 457.02 278.21 438.96 277.93 420.96 Z" fill="#18213c" stroke="#52607a" stroke-width="1" id="VN-25" data-shapename="Quảng Trị"/>
<path d="M 234.94 900.7 217.55 879.1 235.11 870.51 237.04 861.28 238.88 859.1 239.98 859.63 250.01 868.63 262.65 882.5 256.21 895.37 234.94 900.7 Z" fill="#18213c" stroke="#52607a" stroke-width="1" id="VN-52" data-shapename="Sóc Trăng"/>
<path d="M 76.7 171.65 90.02 152.88 89.69 137.62 99.57 119.49 93.93 102.39 102.92 100.94 119.37 119.47 145.57 124.41 143.74 138.09 176.67 144.44 180.68 159.02 185.94 181.91 175.64 187.2 162.32 189.98 142.33 171.09 129.59 166.72 94.4 180.72 76.7 171.65 Z" fill="#18213c" stroke="#52607a" stroke-width="1" id="VN-05" data-shapename="Sơn La"/>
<path d="M 271.71 764.99 273.03 786.26 270.06 798.48 256.75 795.6 236.96 774.58 236.6 752.44 249.27 746.36 271.77 752.94 271.71 764.99 Z" fill="#18213c" stroke="#52607a" stroke-width="1" id="VN-37" data-shapename="Tây Ninh"/>
<path d="M 258.76 198.62 254.85 189.59 262.78 184.8 270.28 182.86 283.13 188.78 280.91 209.92 258.76 198.62 Z" fill="#18213c" stroke="#52607a" stroke-width="1" id="VN-20" data-shapename="Thái Bình"/>
<path d="M 258.83 125.53 242.87 142.28 235.89 139.08 219.51 127 218.98 102.33 252.26 104.7 258.83 125.53 Z" fill="#18213c" stroke="#52607a" stroke-width="1" id="VN-69" data-shapename="Thái Nguyên"/>
<path d="M 175.64 187.2 216.98 208.12 246.93 229.47 235.26 250.55 232.94 273.84 202.35 261 192 239.26 180.33 227.03 147.57 198.45 162.32 189.98 175.64 187.2 Z" fill="#18213c" stroke="#52607a" stroke-width="1" id="VN-21" data-shapename="Thanh Hóa"/>
<path d="M 375.07 470.78 354.62 479.8 333.54 481.9 311.15 464.18 328.63 436.74 375.07 470.78 Z" fill="#18213c" stroke="#52607a" stroke-width="1" id="VN-26" data-shapename="Thừa Thiên Huế"/>
<path d="M 284.81 839.91 246.75 837.27 238.39 838.47 240.36 822.46 261.47 821.12 270.16 832.23 289.8 824.28 292.55 830.8 284.81 839.91 Z" fill="#18213c" stroke="#52607a" stroke-width="1" id="VN-46" data-shapename="Tiền Giang"/>
<path d="M 260.33 849.99 278.67 865.4 268.8 883.12 250.01 868.63 239.98 859.63 260.33 849.99 Z" fill="#18213c" stroke="#52607a" stroke-width="1" id="VN-51" data-shapename="Trà Vinh"/>
<path d="M 218.98 102.33 219.51 127 206.48 131.13 192.63 119.01 175.23 87.92 186.94 81.38 194 58.87 214.65 58.48 216.43 58.71 220.11 67.68 210.97 84.1 218.98 102.33 Z" fill="#18213c" stroke="#52607a" stroke-width="1" id="VN-07" data-shapename="Tuyên Quang"/>
<path d="M 257.62 846.33 260.33 849.99 239.98 859.63 238.88 859.1 225.73 846.97 238.39 838.47 246.75 837.27 254.39 843.55 257.62 846.33 Z" fill="#18213c" stroke="#52607a" stroke-width="1" id="VN-49" data-shapename="Vĩnh Long"/>
<path d="M 235.89 139.08 234.8 155.86 214.55 146.78 206.48 131.13 219.51 127 235.89 139.08 Z" fill="#18213c" stroke="#52607a" stroke-width="1" id="VN-70" data-shapename="Vĩnh Phúc"/>
<path d="M 159.39 83.68 175.23 87.92 192.63 119.01 181.62 123.42 176.67 144.44 143.74 138.09 145.57 124.41 119.37 119.47 123.02 102.04 136.5 108.21 151.74 105.06 149.18 87.98 159.39 83.68 Z" fill="#18213c" stroke="#52607a" stroke-width="1" id="VN-06" data-shapename="Yên Bái"/>
</g>
</svg>
